<ttFont>
    <TTGlyph name="A" xMin="9" yMin="0" xMax="629" yMax="732">
      <contour>
        <pt x="407" y="563" on="1"/>
        <pt x="405" y="571" on="0"/>
        <pt x="404" y="586" on="0"/>
        <pt x="402" y="594" on="1"/>
        <pt x="400" y="589" on="0"/>
        <pt x="390" y="567" on="0"/>
        <pt x="388" y="563" on="1"/>
        <pt x="372" y="534" on="0"/>
        <pt x="343" y="481" on="0"/>
        <pt x="313" y="429" on="0"/>
        <pt x="284" y="376" on="0"/>
        <pt x="268" y="348" on="1"/>
        <pt x="467" y="348" on="1"/>
        <pt x="453" y="402" on="0"/>
        <pt x="422" y="509" on="0"/>
      </contour>
      <contour>
        <pt x="629" y="0" on="1"/>
        <pt x="566" y="0" on="1"/>
        <pt x="546" y="72" on="0"/>
        <pt x="505" y="217" on="0"/>
        <pt x="484" y="289" on="1"/>
        <pt x="234" y="289" on="1"/>
        <pt x="193" y="217" on="0"/>
        <pt x="113" y="72" on="0"/>
        <pt x="71" y="0" on="1"/>
        <pt x="9" y="0" on="1"/>
        <pt x="112" y="184" on="0"/>
        <pt x="319" y="548" on="0"/>
        <pt x="422" y="732" on="1"/>
      </contour>
    </TTGlyph>
    <TTGlyph name="AE" xMin="10" yMin="0" xMax="747" yMax="700">
      <contour>
        <pt x="364" y="339" on="1"/>
        <pt x="398" y="583" on="1"/>
        <pt x="370" y="521" on="0"/>
        <pt x="298" y="400" on="0"/>
        <pt x="264" y="339" on="1"/>
      </contour>
      <contour>
        <pt x="10" y="0" on="1"/>
        <pt x="110" y="176" on="0"/>
        <pt x="305" y="524" on="0"/>
        <pt x="405" y="700" on="1"/>
        <pt x="747" y="700" on="1"/>
        <pt x="739" y="640" on="1"/>
        <pt x="469" y="640" on="1"/>
        <pt x="432" y="382" on="1"/>
        <pt x="663" y="382" on="1"/>
        <pt x="655" y="323" on="1"/>
        <pt x="424" y="323" on="1"/>
        <pt x="386" y="59" on="1"/>
        <pt x="670" y="59" on="1"/>
        <pt x="662" y="0" on="1"/>
        <pt x="316" y="0" on="1"/>
        <pt x="355" y="280" on="1"/>
        <pt x="231" y="280" on="1"/>
        <pt x="191" y="209" on="0"/>
        <pt x="113" y="70" on="0"/>
        <pt x="73" y="0" on="1"/>
      </contour>
    </TTGlyph>
    <TTGlyph name="Aacute" xMin="9" yMin="0" xMax="629" yMax="883">
      <component glyphName="A" x="0" y="0" flags="0x204"/>
      <component glyphName="acute" x="308" y="271" flags="0x4"/>
    </TTGlyph>
    <TTGlyph name="Acircumflex" xMin="9" yMin="0" xMax="629" yMax="931">
      <component glyphName="A" x="0" y="0" flags="0x204"/>
      <component glyphName="asciicircum" x="204" y="271" flags="0x4"/>
    </TTGlyph>
    <TTGlyph name="Adieresis" xMin="9" yMin="0" xMax="629" yMax="847">
      <component glyphName="A" x="0" y="0" flags="0x204"/>
      <component glyphName="dieresis" x="251" y="290" flags="0x4"/>
    </TTGlyph>
    <TTGlyph name="Agrave" xMin="9" yMin="0" xMax="629" yMax="883">
      <component glyphName="A" x="0" y="0" flags="0x204"/>
      <component glyphName="grave" x="343" y="271" flags="0x4"/>
    </TTGlyph>
    <TTGlyph name="Aring" xMin="9" yMin="0" xMax="629" yMax="917">
      <contour>
        <pt x="402" y="836" on="1"/>
        <pt x="400" y="821" on="0"/>
        <pt x="419" y="799" on="0"/>
        <pt x="434" y="799" on="1"/>
        <pt x="450" y="799" on="0"/>
        <pt x="475" y="821" on="0"/>
        <pt x="477" y="836" on="1"/>
        <pt x="479" y="852" on="0"/>
        <pt x="461" y="874" on="0"/>
        <pt x="445" y="874" on="1"/>
        <pt x="429" y="874" on="0"/>
        <pt x="404" y="852" on="0"/>
      </contour>
      <contour>
        <pt x="360" y="837" on="1"/>
        <pt x="362" y="853" on="0"/>
        <pt x="379" y="882" on="0"/>
        <pt x="404" y="904" on="0"/>
        <pt x="434" y="917" on="0"/>
        <pt x="451" y="917" on="1"/>
        <pt x="467" y="917" on="0"/>
        <pt x="494" y="904" on="0"/>
        <pt x="513" y="882" on="0"/>
        <pt x="522" y="853" on="0"/>
        <pt x="520" y="837" on="1"/>
        <pt x="517" y="820" on="0"/>
        <pt x="500" y="791" on="0"/>
        <pt x="475" y="770" on="0"/>
        <pt x="444" y="757" on="0"/>
        <pt x="428" y="757" on="1"/>
        <pt x="395" y="757" on="0"/>
        <pt x="355" y="804" on="0"/>
      </contour>
      <contour>
        <pt x="407" y="563" on="1"/>
        <pt x="405" y="571" on="0"/>
        <pt x="404" y="586" on="0"/>
        <pt x="402" y="594" on="1"/>
        <pt x="400" y="589" on="0"/>
        <pt x="390" y="567" on="0"/>
        <pt x="388" y="563" on="1"/>
        <pt x="372" y="534" on="0"/>
        <pt x="343" y="481" on="0"/>
        <pt x="313" y="429" on="0"/>
        <pt x="284" y="376" on="0"/>
        <pt x="268" y="348" on="1"/>
        <pt x="467" y="348" on="1"/>
        <pt x="453" y="402" on="0"/>
        <pt x="422" y="509" on="0"/>
      </contour>
      <contour>
        <pt x="629" y="0" on="1"/>
        <pt x="566" y="0" on="1"/>
        <pt x="546" y="72" on="0"/>
        <pt x="505" y="217" on="0"/>
        <pt x="484" y="289" on="1"/>
        <pt x="234" y="289" on="1"/>
        <pt x="193" y="217" on="0"/>
        <pt x="113" y="72" on="0"/>
        <pt x="71" y="0" on="1"/>
        <pt x="9" y="0" on="1"/>
        <pt x="112" y="184" on="0"/>
        <pt x="319" y="548" on="0"/>
        <pt x="422" y="732" on="1"/>
      </contour>
    </TTGlyph>
    <TTGlyph name="Atilde" xMin="9" yMin="0" xMax="629" yMax="848">
      <component glyphName="A" x="0" y="0" flags="0x204"/>
      <component glyphName="asciitilde" x="152" y="299" flags="0x4"/>
    </TTGlyph>
    <TTGlyph name="B" xMin="16" yMin="0" xMax="483" yMax="700">
      <contour>
        <pt x="169" y="640" on="1"/>
        <pt x="132" y="382" on="1"/>
        <pt x="252" y="382" on="1"/>
        <pt x="284" y="382" on="0"/>
        <pt x="339" y="402" on="0"/>
        <pt x="381" y="437" on="0"/>
        <pt x="408" y="487" on="0"/>
        <pt x="412" y="517" on="1"/>
        <pt x="421" y="583" on="0"/>
        <pt x="350" y="640" on="0"/>
        <pt x="286" y="640" on="1"/>
      </contour>
      <contour>
        <pt x="124" y="322" on="1"/>
        <pt x="86" y="59" on="1"/>
        <pt x="208" y="59" on="1"/>
        <pt x="242" y="59" on="0"/>
        <pt x="304" y="75" on="0"/>
        <pt x="354" y="107" on="0"/>
        <pt x="387" y="156" on="0"/>
        <pt x="391" y="188" on="1"/>
        <pt x="397" y="228" on="0"/>
        <pt x="367" y="280" on="0"/>
        <pt x="317" y="310" on="0"/>
        <pt x="256" y="322" on="0"/>
        <pt x="230" y="322" on="1"/>
      </contour>
      <contour>
        <pt x="16" y="0" on="1"/>
        <pt x="115" y="700" on="1"/>
        <pt x="286" y="700" on="1"/>
        <pt x="334" y="700" on="0"/>
        <pt x="410" y="680" on="0"/>
        <pt x="461" y="638" on="0"/>
        <pt x="483" y="571" on="0"/>
        <pt x="476" y="525" on="1"/>
        <pt x="468" y="463" on="0"/>
        <pt x="394" y="369" on="0"/>
        <pt x="330" y="352" on="1"/>
        <pt x="358" y="346" on="0"/>
        <pt x="407" y="318" on="0"/>
        <pt x="442" y="274" on="0"/>
        <pt x="458" y="216" on="0"/>
        <pt x="453" y="180" on="1"/>
        <pt x="447" y="135" on="0"/>
        <pt x="400" y="68" on="0"/>
        <pt x="331" y="23" on="0"/>
        <pt x="248" y="0" on="0"/>
        <pt x="205" y="0" on="1"/>
      </contour>
    </TTGlyph>
    <TTGlyph name="C" xMin="51" yMin="-8" xMax="645" yMax="708">
      <contour>
        <pt x="530" y="92" on="1"/>
        <pt x="557" y="42" on="1"/>
        <pt x="514" y="19" on="0"/>
        <pt x="419" y="-8" on="0"/>
        <pt x="368" y="-8" on="1"/>
        <pt x="294" y="-8" on="0"/>
        <pt x="172" y="48" on="0"/>
        <pt x="89" y="145" on="0"/>
        <pt x="51" y="275" on="0"/>
        <pt x="61" y="349" on="1"/>
        <pt x="71" y="423" on="0"/>
        <pt x="146" y="554" on="0"/>
        <pt x="257" y="651" on="0"/>
        <pt x="395" y="708" on="0"/>
        <pt x="469" y="708" on="1"/>
        <pt x="520" y="708" on="0"/>
        <pt x="607" y="682" on="0"/>
        <pt x="645" y="658" on="1"/>
        <pt x="603" y="607" on="1"/>
        <pt x="542" y="648" on="0"/>
        <pt x="461" y="648" on="1"/>
        <pt x="400" y="648" on="0"/>
        <pt x="286" y="601" on="0"/>
        <pt x="194" y="519" on="0"/>
        <pt x="132" y="410" on="0"/>
        <pt x="123" y="349" on="1"/>
        <pt x="115" y="287" on="0"/>
        <pt x="146" y="179" on="0"/>
        <pt x="215" y="98" on="0"/>
        <pt x="315" y="51" on="0"/>
        <pt x="375" y="51" on="1"/>
        <pt x="417" y="51" on="0"/>
        <pt x="494" y="72" on="0"/>
      </contour>
    </TTGlyph>
    <TTGlyph name="Ccedilla" xMin="67" yMin="-242" xMax="661" yMax="708">
      <contour>
        <pt x="546" y="92" on="1"/>
        <pt x="573" y="42" on="1"/>
        <pt x="531" y="19" on="0"/>
        <pt x="442" y="-6" on="0"/>
        <pt x="394" y="-8" on="1"/>
        <pt x="392" y="-22" on="0"/>
        <pt x="399" y="-39" on="0"/>
        <pt x="410" y="-49" on="0"/>
        <pt x="423" y="-57" on="0"/>
        <pt x="429" y="-61" on="1"/>
        <pt x="448" y="-77" on="0"/>
        <pt x="460" y="-116" on="0"/>
        <pt x="457" y="-138" on="1"/>
        <pt x="450" y="-183" on="0"/>
        <pt x="390" y="-242" on="0"/>
        <pt x="344" y="-242" on="1"/>
        <pt x="312" y="-242" on="0"/>
        <pt x="264" y="-207" on="0"/>
        <pt x="257" y="-172" on="1"/>
        <pt x="266" y="-167" on="0"/>
        <pt x="286" y="-159" on="0"/>
        <pt x="296" y="-154" on="1"/>
        <pt x="299" y="-171" on="0"/>
        <pt x="324" y="-194" on="0"/>
        <pt x="346" y="-194" on="1"/>
        <pt x="372" y="-194" on="0"/>
        <pt x="406" y="-160" on="0"/>
        <pt x="410" y="-134" on="1"/>
        <pt x="413" y="-112" on="0"/>
        <pt x="394" y="-86" on="0"/>
        <pt x="369" y="-67" on="0"/>
        <pt x="349" y="-47" on="0"/>
        <pt x="352" y="-29" on="1"/>
        <pt x="354" y="-6" on="1"/>
        <pt x="286" y="-1" on="0"/>
        <pt x="175" y="59" on="0"/>
        <pt x="100" y="154" on="0"/>
        <pt x="67" y="279" on="0"/>
        <pt x="77" y="349" on="1"/>
        <pt x="87" y="423" on="0"/>
        <pt x="162" y="554" on="0"/>
        <pt x="273" y="651" on="0"/>
        <pt x="411" y="708" on="0"/>
        <pt x="485" y="708" on="1"/>
        <pt x="536" y="708" on="0"/>
        <pt x="623" y="682" on="0"/>
        <pt x="661" y="658" on="1"/>
        <pt x="651" y="645" on="0"/>
        <pt x="630" y="620" on="0"/>
        <pt x="619" y="607" on="1"/>
        <pt x="558" y="648" on="0"/>
        <pt x="477" y="648" on="1"/>
        <pt x="416" y="648" on="0"/>
        <pt x="302" y="601" on="0"/>
        <pt x="211" y="519" on="0"/>
        <pt x="149" y="410" on="0"/>
        <pt x="140" y="349" on="1"/>
        <pt x="131" y="287" on="0"/>
        <pt x="162" y="179" on="0"/>
        <pt x="231" y="98" on="0"/>
        <pt x="331" y="51" on="0"/>
        <pt x="392" y="51" on="1"/>
        <pt x="433" y="51" on="0"/>
        <pt x="510" y="72" on="0"/>
      </contour>
    </TTGlyph>
    <TTGlyph name="D" xMin="18" yMin="0" xMax="586" yMax="700">
      <contour>
        <pt x="117" y="700" on="1"/>
        <pt x="272" y="700" on="1"/>
        <pt x="344" y="700" on="0"/>
        <pt x="465" y="651" on="0"/>
        <pt x="548" y="559" on="0"/>
        <pt x="586" y="430" on="0"/>
        <pt x="574" y="349" on="1"/>
        <pt x="566" y="287" on="0"/>
        <pt x="510" y="162" on="0"/>
        <pt x="405" y="62" on="0"/>
        <pt x="248" y="0" on="0"/>
        <pt x="139" y="0" on="1"/>
        <pt x="18" y="0" on="1"/>
      </contour>
      <contour>
        <pt x="171" y="640" on="1"/>
        <pt x="150" y="494" on="0"/>
        <pt x="109" y="206" on="0"/>
        <pt x="89" y="60" on="1"/>
        <pt x="167" y="60" on="1"/>
        <pt x="240" y="60" on="0"/>
        <pt x="361" y="104" on="0"/>
        <pt x="449" y="182" on="0"/>
        <pt x="504" y="288" on="0"/>
        <pt x="513" y="350" on="1"/>
        <pt x="522" y="416" on="0"/>
        <pt x="491" y="524" on="0"/>
        <pt x="421" y="599" on="0"/>
        <pt x="319" y="640" on="0"/>
        <pt x="258" y="640" on="1"/>
      </contour>
    </TTGlyph>
    <TTGlyph name="E" xMin="27" yMin="0" xMax="549" yMax="700">
      <contour>
        <pt x="27" y="0" on="1"/>
        <pt x="126" y="700" on="1"/>
        <pt x="549" y="700" on="1"/>
        <pt x="541" y="640" on="1"/>
        <pt x="180" y="640" on="1"/>
        <pt x="143" y="382" on="1"/>
        <pt x="465" y="382" on="1"/>
        <pt x="456" y="323" on="1"/>
        <pt x="135" y="323" on="1"/>
        <pt x="97" y="59" on="1"/>
        <pt x="472" y="59" on="1"/>
        <pt x="464" y="0" on="1"/>
      </contour>
    </TTGlyph>
    <TTGlyph name="Eacute" xMin="27" yMin="0" xMax="549" yMax="883">
      <component glyphName="E" x="0" y="0" flags="0x204"/>
      <component glyphName="acute" x="215" y="271" flags="0x4"/>
    </TTGlyph>
    <TTGlyph name="Ecircumflex" xMin="27" yMin="0" xMax="549" yMax="931">
      <component glyphName="E" x="0" y="0" flags="0x204"/>
      <component glyphName="asciicircum" x="144" y="271" flags="0x4"/>
    </TTGlyph>
    <TTGlyph name="Edieresis" xMin="27" yMin="0" xMax="549" yMax="847">
      <component glyphName="E" x="0" y="0" flags="0x204"/>
      <component glyphName="dieresis" x="177" y="290" flags="0x4"/>
    </TTGlyph>
    <TTGlyph name="Egrave" xMin="27" yMin="0" xMax="549" yMax="883">
      <component glyphName="E" x="0" y="0" flags="0x204"/>
      <component glyphName="grave" x="259" y="271" flags="0x4"/>
    </TTGlyph>
    <TTGlyph name="Eth" xMin="17" yMin="0" xMax="606" yMax="700">
      <contour>
        <pt x="126" y="320" on="1"/>
        <pt x="88" y="59" on="1"/>
        <pt x="171" y="59" on="1"/>
        <pt x="241" y="59" on="0"/>
        <pt x="364" y="98" on="0"/>
        <pt x="460" y="173" on="0"/>
        <pt x="523" y="281" on="0"/>
        <pt x="533" y="350" on="1"/>
        <pt x="542" y="417" on="0"/>
        <pt x="509" y="524" on="0"/>
        <pt x="434" y="600" on="0"/>
        <pt x="323" y="641" on="0"/>
        <pt x="253" y="641" on="1"/>
        <pt x="171" y="641" on="1"/>
        <pt x="134" y="381" on="1"/>
        <pt x="328" y="381" on="1"/>
        <pt x="319" y="320" on="1"/>
      </contour>
      <contour>
        <pt x="72" y="381" on="1"/>
        <pt x="117" y="700" on="1"/>
        <pt x="264" y="700" on="1"/>
        <pt x="341" y="700" on="0"/>
        <pt x="472" y="651" on="0"/>
        <pt x="564" y="560" on="0"/>
        <pt x="606" y="430" on="0"/>
        <pt x="595" y="350" on="1"/>
        <pt x="586" y="287" on="0"/>
        <pt x="526" y="162" on="0"/>
        <pt x="414" y="62" on="0"/>
        <pt x="245" y="0" on="0"/>
        <pt x="128" y="0" on="1"/>
        <pt x="18" y="0" on="1"/>
        <pt x="63" y="320" on="1"/>
        <pt x="17" y="320" on="1"/>
        <pt x="26" y="381" on="1"/>
      </contour>
    </TTGlyph>
    <TTGlyph name="F" xMin="27" yMin="0" xMax="549" yMax="700">
      <contour>
        <pt x="27" y="0" on="1"/>
        <pt x="126" y="700" on="1"/>
        <pt x="549" y="700" on="1"/>
        <pt x="541" y="640" on="1"/>
        <pt x="180" y="640" on="1"/>
        <pt x="143" y="382" on="1"/>
        <pt x="465" y="382" on="1"/>
        <pt x="456" y="323" on="1"/>
        <pt x="135" y="323" on="1"/>
        <pt x="89" y="0" on="1"/>
      </contour>
    </TTGlyph>
    <TTGlyph name="G" xMin="51" yMin="-8" xMax="645" yMax="708">
      <contour>
        <pt x="399" y="240" on="1"/>
        <pt x="407" y="300" on="1"/>
        <pt x="542" y="300" on="1"/>
        <pt x="571" y="300" on="0"/>
        <pt x="590" y="275" on="0"/>
        <pt x="586" y="244" on="1"/>
        <pt x="557" y="42" on="1"/>
        <pt x="514" y="19" on="0"/>
        <pt x="419" y="-8" on="0"/>
        <pt x="368" y="-8" on="1"/>
        <pt x="294" y="-8" on="0"/>
        <pt x="172" y="48" on="0"/>
        <pt x="89" y="145" on="0"/>
        <pt x="51" y="275" on="0"/>
        <pt x="61" y="349" on="1"/>
        <pt x="71" y="423" on="0"/>
        <pt x="146" y="554" on="0"/>
        <pt x="257" y="651" on="0"/>
        <pt x="395" y="708" on="0"/>
        <pt x="469" y="708" on="1"/>
        <pt x="520" y="708" on="0"/>
        <pt x="607" y="682" on="0"/>
        <pt x="645" y="658" on="1"/>
        <pt x="603" y="607" on="1"/>
        <pt x="542" y="648" on="0"/>
        <pt x="461" y="648" on="1"/>
        <pt x="400" y="648" on="0"/>
        <pt x="286" y="601" on="0"/>
        <pt x="194" y="519" on="0"/>
        <pt x="132" y="410" on="0"/>
        <pt x="123" y="349" on="1"/>
        <pt x="115" y="287" on="0"/>
        <pt x="146" y="179" on="0"/>
        <pt x="215" y="98" on="0"/>
        <pt x="315" y="51" on="0"/>
        <pt x="375" y="51" on="1"/>
        <pt x="440" y="51" on="0"/>
        <pt x="500" y="78" on="1"/>
        <pt x="516" y="191" on="1"/>
        <pt x="519" y="213" on="1"/>
        <pt x="521" y="227" on="0"/>
        <pt x="514" y="240" on="0"/>
        <pt x="498" y="240" on="1"/>
      </contour>
    </TTGlyph>
    <TTGlyph name="H" xMin="36" yMin="0" xMax="664" yMax="700">
      <contour>
        <pt x="36" y="0" on="1"/>
        <pt x="135" y="700" on="1"/>
        <pt x="197" y="700" on="1"/>
        <pt x="152" y="382" on="1"/>
        <pt x="556" y="382" on="1"/>
        <pt x="601" y="700" on="1"/>
        <pt x="664" y="700" on="1"/>
        <pt x="639" y="524" on="0"/>
        <pt x="589" y="176" on="0"/>
        <pt x="564" y="0" on="1"/>
        <pt x="502" y="0" on="1"/>
        <pt x="547" y="323" on="1"/>
        <pt x="144" y="323" on="1"/>
        <pt x="98" y="0" on="1"/>
      </contour>
    </TTGlyph>
    <TTGlyph name="I" xMin="51" yMin="0" xMax="213" yMax="700">
      <contour>
        <pt x="150" y="700" on="1"/>
        <pt x="213" y="700" on="1"/>
        <pt x="114" y="0" on="1"/>
        <pt x="51" y="0" on="1"/>
      </contour>
    </TTGlyph>
    <TTGlyph name="Iacute" xMin="51" yMin="0" xMax="329" yMax="883">
      <component glyphName="I" x="0" y="0" flags="0x4"/>
      <component glyphName="acute" x="66" y="271" flags="0x4"/>
    </TTGlyph>
    <TTGlyph name="Icircumflex" xMin="51" yMin="0" xMax="314" yMax="931">
      <component glyphName="I" x="0" y="0" flags="0x4"/>
      <component glyphName="asciicircum" x="-25" y="271" flags="0x4"/>
    </TTGlyph>
    <TTGlyph name="Idieresis" xMin="51" yMin="0" xMax="311" yMax="847">
      <component glyphName="I" x="0" y="0" flags="0x4"/>
      <component glyphName="dieresis" x="0" y="290" flags="0x4"/>
    </TTGlyph>
    <TTGlyph name="Igrave" xMin="51" yMin="0" xMax="213" yMax="883">
      <component glyphName="I" x="0" y="0" flags="0x4"/>
      <component glyphName="grave" x="97" y="271" flags="0x4"/>
    </TTGlyph>
    <TTGlyph name="J" xMin="-42" yMin="-143" xMax="300" yMax="700">
      <contour>
        <pt x="-42" y="-143" on="1"/>
        <pt x="-33" y="-84" on="1"/>
        <pt x="2" y="-82" on="0"/>
        <pt x="64" y="-57" on="0"/>
        <pt x="113" y="-12" on="0"/>
        <pt x="146" y="52" on="0"/>
        <pt x="152" y="93" on="1"/>
        <pt x="238" y="700" on="1"/>
        <pt x="300" y="700" on="1"/>
        <pt x="214" y="90" on="1"/>
        <pt x="206" y="34" on="0"/>
        <pt x="160" y="-52" on="0"/>
        <pt x="91" y="-110" on="0"/>
        <pt x="5" y="-142" on="0"/>
      </contour>
    </TTGlyph>
    <TTGlyph name="K" xMin="9" yMin="0" xMax="582" yMax="700">
      <contour>
        <pt x="519" y="0" on="1"/>
        <pt x="443" y="0" on="1"/>
        <pt x="382" y="95" on="0"/>
        <pt x="260" y="283" on="0"/>
        <pt x="198" y="378" on="1"/>
        <pt x="178" y="360" on="0"/>
        <pt x="136" y="325" on="0"/>
        <pt x="114" y="308" on="1"/>
        <pt x="103" y="230" on="0"/>
        <pt x="82" y="77" on="0"/>
        <pt x="71" y="0" on="1"/>
        <pt x="9" y="0" on="1"/>
        <pt x="108" y="700" on="1"/>
        <pt x="170" y="700" on="1"/>
        <pt x="128" y="406" on="1"/>
        <pt x="127" y="398" on="0"/>
        <pt x="124" y="383" on="0"/>
        <pt x="122" y="375" on="1"/>
        <pt x="127" y="381" on="0"/>
        <pt x="138" y="391" on="0"/>
        <pt x="143" y="397" on="1"/>
        <pt x="234" y="473" on="0"/>
        <pt x="413" y="624" on="0"/>
        <pt x="504" y="700" on="1"/>
        <pt x="582" y="700" on="1"/>
        <pt x="246" y="418" on="1"/>
        <pt x="315" y="313" on="0"/>
        <pt x="450" y="106" on="0"/>
      </contour>
    </TTGlyph>
    <TTGlyph name="L" xMin="27" yMin="0" xMax="472" yMax="700">
      <contour>
        <pt x="27" y="0" on="1"/>
        <pt x="126" y="700" on="1"/>
        <pt x="188" y="700" on="1"/>
        <pt x="97" y="59" on="1"/>
        <pt x="472" y="59" on="1"/>
        <pt x="464" y="0" on="1"/>
      </contour>
    </TTGlyph>
    <TTGlyph name="M" xMin="48" yMin="0" xMax="883" yMax="732">
      <contour>
        <pt x="151" y="732" on="1"/>
        <pt x="226" y="613" on="0"/>
        <pt x="375" y="376" on="0"/>
        <pt x="450" y="257" on="1"/>
        <pt x="559" y="376" on="0"/>
        <pt x="774" y="613" on="0"/>
        <pt x="883" y="732" on="1"/>
        <pt x="780" y="0" on="1"/>
        <pt x="718" y="0" on="1"/>
        <pt x="782" y="458" on="1"/>
        <pt x="791" y="522" on="1"/>
        <pt x="793" y="532" on="0"/>
        <pt x="797" y="549" on="0"/>
        <pt x="799" y="558" on="1"/>
        <pt x="711" y="455" on="0"/>
        <pt x="527" y="257" on="0"/>
        <pt x="436" y="156" on="1"/>
        <pt x="381" y="245" on="0"/>
        <pt x="271" y="420" on="0"/>
        <pt x="216" y="509" on="1"/>
        <pt x="199" y="536" on="1"/>
        <pt x="195" y="541" on="0"/>
        <pt x="189" y="553" on="0"/>
        <pt x="187" y="558" on="1"/>
        <pt x="185" y="549" on="0"/>
        <pt x="185" y="532" on="0"/>
        <pt x="184" y="522" on="1"/>
        <pt x="110" y="0" on="1"/>
        <pt x="48" y="0" on="1"/>
      </contour>
    </TTGlyph>
    <TTGlyph name="N" xMin="50" yMin="-32" xMax="760" yMax="732">
      <contour>
        <pt x="760" y="700" on="1"/>
        <pt x="657" y="-32" on="1"/>
        <pt x="543" y="117" on="0"/>
        <pt x="320" y="410" on="0"/>
        <pt x="207" y="559" on="1"/>
        <pt x="204" y="566" on="0"/>
        <pt x="196" y="578" on="0"/>
        <pt x="192" y="585" on="1"/>
        <pt x="191" y="577" on="0"/>
        <pt x="191" y="561" on="0"/>
        <pt x="190" y="553" on="1"/>
        <pt x="112" y="0" on="1"/>
        <pt x="50" y="0" on="1"/>
        <pt x="153" y="732" on="1"/>
        <pt x="266" y="581" on="0"/>
        <pt x="489" y="283" on="0"/>
        <pt x="601" y="132" on="1"/>
        <pt x="605" y="125" on="0"/>
        <pt x="613" y="113" on="0"/>
        <pt x="617" y="106" on="1"/>
        <pt x="617" y="114" on="0"/>
        <pt x="618" y="130" on="0"/>
        <pt x="618" y="138" on="1"/>
        <pt x="698" y="700" on="1"/>
      </contour>
    </TTGlyph>
    <TTGlyph name="Ntilde" xMin="50" yMin="-32" xMax="760" yMax="841">
      <component glyphName="N" x="0" y="0" flags="0x204"/>
      <component glyphName="asciitilde" x="200" y="292" flags="0x4"/>
    </TTGlyph>
    <TTGlyph name="O" xMin="51" yMin="-8" xMax="787" yMax="708">
      <contour>
        <pt x="61" y="349" on="1"/>
        <pt x="71" y="423" on="0"/>
        <pt x="146" y="554" on="0"/>
        <pt x="257" y="651" on="0"/>
        <pt x="395" y="708" on="0"/>
        <pt x="469" y="708" on="1"/>
        <pt x="543" y="708" on="0"/>
        <pt x="665" y="651" on="0"/>
        <pt x="749" y="554" on="0"/>
        <pt x="787" y="423" on="0"/>
        <pt x="777" y="349" on="1"/>
        <pt x="767" y="275" on="0"/>
        <pt x="692" y="145" on="0"/>
        <pt x="581" y="48" on="0"/>
        <pt x="442" y="-8" on="0"/>
        <pt x="368" y="-8" on="1"/>
        <pt x="294" y="-8" on="0"/>
        <pt x="172" y="48" on="0"/>
        <pt x="89" y="145" on="0"/>
        <pt x="51" y="275" on="0"/>
      </contour>
      <contour>
        <pt x="123" y="349" on="1"/>
        <pt x="115" y="287" on="0"/>
        <pt x="146" y="179" on="0"/>
        <pt x="215" y="98" on="0"/>
        <pt x="315" y="51" on="0"/>
        <pt x="376" y="51" on="1"/>
        <pt x="437" y="51" on="0"/>
        <pt x="552" y="98" on="0"/>
        <pt x="644" y="179" on="0"/>
        <pt x="706" y="287" on="0"/>
        <pt x="715" y="349" on="1"/>
        <pt x="724" y="410" on="0"/>
        <pt x="692" y="519" on="0"/>
        <pt x="623" y="601" on="0"/>
        <pt x="522" y="648" on="0"/>
        <pt x="461" y="648" on="1"/>
        <pt x="400" y="648" on="0"/>
        <pt x="286" y="601" on="0"/>
        <pt x="194" y="519" on="0"/>
        <pt x="132" y="410" on="0"/>
      </contour>
    </TTGlyph>
    <TTGlyph name="Oacute" xMin="50" yMin="-8" xMax="786" yMax="883">
      <component glyphName="O" x="-1" y="0" flags="0x204"/>
      <component glyphName="acute" x="365" y="271" flags="0x4"/>
    </TTGlyph>
    <TTGlyph name="Ocircumflex" xMin="50" yMin="-8" xMax="786" yMax="931">
      <component glyphName="O" x="-1" y="0" flags="0x4"/>
      <component glyphName="asciicircum" x="259" y="271" flags="0x4"/>
    </TTGlyph>
    <TTGlyph name="Odieresis" xMin="50" yMin="-8" xMax="786" yMax="847">
      <component glyphName="O" x="-1" y="0" flags="0x4"/>
      <component glyphName="dieresis" x="288" y="290" flags="0x4"/>
    </TTGlyph>
    <TTGlyph name="Ograve" xMin="50" yMin="-8" xMax="786" yMax="883">
      <component glyphName="O" x="-1" y="0" flags="0x4"/>
      <component glyphName="grave" x="387" y="271" flags="0x4"/>
    </TTGlyph>
    <TTGlyph name="Oslash" xMin="51" yMin="-14" xMax="788" yMax="716">
      <contour>
        <pt x="123" y="349" on="1"/>
        <pt x="115" y="289" on="0"/>
        <pt x="143" y="185" on="0"/>
        <pt x="175" y="145" on="1"/>
        <pt x="287" y="258" on="0"/>
        <pt x="509" y="481" on="0"/>
        <pt x="621" y="594" on="1"/>
        <pt x="589" y="620" on="0"/>
        <pt x="508" y="648" on="0"/>
        <pt x="461" y="648" on="1"/>
        <pt x="400" y="648" on="0"/>
        <pt x="286" y="601" on="0"/>
        <pt x="194" y="519" on="0"/>
        <pt x="132" y="410" on="0"/>
      </contour>
      <contour>
        <pt x="375" y="51" on="1"/>
        <pt x="436" y="51" on="0"/>
        <pt x="551" y="98" on="0"/>
        <pt x="644" y="179" on="0"/>
        <pt x="706" y="287" on="0"/>
        <pt x="715" y="349" on="1"/>
        <pt x="723" y="409" on="0"/>
        <pt x="692" y="516" on="0"/>
        <pt x="659" y="556" on="1"/>
        <pt x="547" y="443" on="0"/>
        <pt x="326" y="220" on="0"/>
        <pt x="214" y="107" on="1"/>
        <pt x="246" y="81" on="0"/>
        <pt x="327" y="51" on="0"/>
      </contour>
      <contour>
        <pt x="61" y="349" on="1"/>
        <pt x="71" y="423" on="0"/>
        <pt x="146" y="554" on="0"/>
        <pt x="257" y="651" on="0"/>
        <pt x="395" y="708" on="0"/>
        <pt x="469" y="708" on="1"/>
        <pt x="528" y="708" on="0"/>
        <pt x="628" y="673" on="0"/>
        <pt x="668" y="641" on="1"/>
        <pt x="686" y="660" on="0"/>
        <pt x="723" y="697" on="0"/>
        <pt x="742" y="716" on="1"/>
        <pt x="760" y="696" on="0"/>
        <pt x="780" y="678" on="1"/>
        <pt x="761" y="659" on="0"/>
        <pt x="724" y="623" on="0"/>
        <pt x="706" y="604" on="1"/>
        <pt x="749" y="555" on="0"/>
        <pt x="788" y="424" on="0"/>
        <pt x="777" y="349" on="1"/>
        <pt x="767" y="275" on="0"/>
        <pt x="692" y="145" on="0"/>
        <pt x="581" y="48" on="0"/>
        <pt x="442" y="-8" on="0"/>
        <pt x="368" y="-8" on="1"/>
        <pt x="308" y="-8" on="0"/>
        <pt x="207" y="28" on="0"/>
        <pt x="168" y="60" on="1"/>
        <pt x="149" y="42" on="0"/>
        <pt x="112" y="4" on="0"/>
        <pt x="94" y="-14" on="1"/>
        <pt x="84" y="-5" on="0"/>
        <pt x="66" y="14" on="0"/>
        <pt x="56" y="24" on="1"/>
        <pt x="74" y="42" on="0"/>
        <pt x="110" y="79" on="0"/>
        <pt x="129" y="98" on="1"/>
        <pt x="87" y="146" on="0"/>
        <pt x="51" y="275" on="0"/>
      </contour>
    </TTGlyph>
    <TTGlyph name="Otilde" xMin="50" yMin="-8" xMax="786" yMax="876">
      <component glyphName="O" x="-1" y="0" flags="0x4"/>
      <component glyphName="asciitilde" x="194" y="327" flags="0x4"/>
    </TTGlyph>
    <TTGlyph name="P" xMin="16" yMin="0" xMax="479" yMax="700">
      <contour>
        <pt x="132" y="381" on="1"/>
        <pt x="227" y="381" on="1"/>
        <pt x="275" y="381" on="0"/>
        <pt x="342" y="406" on="0"/>
        <pt x="385" y="445" on="0"/>
        <pt x="406" y="492" on="0"/>
        <pt x="409" y="514" on="1"/>
        <pt x="413" y="539" on="0"/>
        <pt x="395" y="585" on="0"/>
        <pt x="356" y="620" on="0"/>
        <pt x="299" y="641" on="0"/>
        <pt x="265" y="641" on="1"/>
        <pt x="169" y="641" on="1"/>
      </contour>
      <contour>
        <pt x="16" y="0" on="1"/>
        <pt x="115" y="700" on="1"/>
        <pt x="272" y="700" on="1"/>
        <pt x="305" y="700" on="0"/>
        <pt x="380" y="679" on="0"/>
        <pt x="442" y="634" on="0"/>
        <pt x="479" y="564" on="0"/>
        <pt x="472" y="514" on="1"/>
        <pt x="459" y="426" on="0"/>
        <pt x="336" y="321" on="0"/>
        <pt x="233" y="321" on="1"/>
        <pt x="123" y="321" on="1"/>
        <pt x="78" y="0" on="1"/>
      </contour>
    </TTGlyph>
    <TTGlyph name="Q" xMin="51" yMin="-8" xMax="787" yMax="708">
      <contour>
        <pt x="123" y="349" on="1"/>
        <pt x="115" y="287" on="0"/>
        <pt x="146" y="179" on="0"/>
        <pt x="215" y="98" on="0"/>
        <pt x="315" y="51" on="0"/>
        <pt x="375" y="51" on="1"/>
        <pt x="436" y="51" on="0"/>
        <pt x="551" y="98" on="0"/>
        <pt x="644" y="179" on="0"/>
        <pt x="706" y="287" on="0"/>
        <pt x="715" y="349" on="1"/>
        <pt x="724" y="410" on="0"/>
        <pt x="692" y="519" on="0"/>
        <pt x="623" y="601" on="0"/>
        <pt x="522" y="648" on="0"/>
        <pt x="461" y="648" on="1"/>
        <pt x="400" y="648" on="0"/>
        <pt x="286" y="601" on="0"/>
        <pt x="194" y="519" on="0"/>
        <pt x="132" y="410" on="0"/>
      </contour>
      <contour>
        <pt x="61" y="349" on="1"/>
        <pt x="71" y="423" on="0"/>
        <pt x="146" y="554" on="0"/>
        <pt x="257" y="651" on="0"/>
        <pt x="395" y="708" on="0"/>
        <pt x="469" y="708" on="1"/>
        <pt x="543" y="708" on="0"/>
        <pt x="666" y="651" on="0"/>
        <pt x="750" y="554" on="0"/>
        <pt x="787" y="423" on="0"/>
        <pt x="777" y="349" on="1"/>
        <pt x="771" y="303" on="0"/>
        <pt x="736" y="218" on="0"/>
        <pt x="684" y="144" on="0"/>
        <pt x="617" y="82" on="0"/>
        <pt x="578" y="59" on="1"/>
        <pt x="758" y="59" on="1"/>
        <pt x="750" y="0" on="1"/>
        <pt x="443" y="0" on="1"/>
        <pt x="405" y="-8" on="0"/>
        <pt x="368" y="-8" on="1"/>
        <pt x="294" y="-8" on="0"/>
        <pt x="172" y="48" on="0"/>
        <pt x="89" y="145" on="0"/>
        <pt x="51" y="275" on="0"/>
      </contour>
    </TTGlyph>
    <TTGlyph name="R" xMin="16" yMin="0" xMax="479" yMax="700">
      <contour>
        <pt x="132" y="381" on="1"/>
        <pt x="227" y="381" on="1"/>
        <pt x="275" y="381" on="0"/>
        <pt x="342" y="406" on="0"/>
        <pt x="385" y="445" on="0"/>
        <pt x="406" y="492" on="0"/>
        <pt x="409" y="514" on="1"/>
        <pt x="413" y="539" on="0"/>
        <pt x="395" y="585" on="0"/>
        <pt x="356" y="620" on="0"/>
        <pt x="299" y="641" on="0"/>
        <pt x="265" y="641" on="1"/>
        <pt x="169" y="641" on="1"/>
      </contour>
      <contour>
        <pt x="16" y="0" on="1"/>
        <pt x="115" y="700" on="1"/>
        <pt x="272" y="700" on="1"/>
        <pt x="305" y="700" on="0"/>
        <pt x="380" y="679" on="0"/>
        <pt x="442" y="634" on="0"/>
        <pt x="479" y="564" on="0"/>
        <pt x="472" y="514" on="1"/>
        <pt x="461" y="440" on="0"/>
        <pt x="372" y="342" on="0"/>
        <pt x="297" y="326" on="1"/>
        <pt x="324" y="245" on="0"/>
        <pt x="378" y="82" on="0"/>
        <pt x="405" y="0" on="1"/>
        <pt x="337" y="0" on="1"/>
        <pt x="311" y="81" on="0"/>
        <pt x="257" y="241" on="0"/>
        <pt x="231" y="322" on="1"/>
        <pt x="224" y="321" on="0"/>
        <pt x="211" y="321" on="0"/>
        <pt x="204" y="321" on="1"/>
        <pt x="123" y="321" on="1"/>
        <pt x="78" y="0" on="1"/>
      </contour>
    </TTGlyph>
    <TTGlyph name="S" xMin="20" yMin="-8" xMax="480" yMax="704">
      <contour>
        <pt x="480" y="636" on="1"/>
        <pt x="469" y="625" on="0"/>
        <pt x="450" y="602" on="0"/>
        <pt x="439" y="590" on="1"/>
        <pt x="431" y="598" on="0"/>
        <pt x="408" y="617" on="0"/>
        <pt x="377" y="633" on="0"/>
        <pt x="337" y="644" on="0"/>
        <pt x="312" y="644" on="1"/>
        <pt x="280" y="644" on="0"/>
        <pt x="230" y="623" on="0"/>
        <pt x="193" y="589" on="0"/>
        <pt x="171" y="543" on="0"/>
        <pt x="168" y="519" on="1"/>
        <pt x="164" y="491" on="0"/>
        <pt x="176" y="455" on="0"/>
        <pt x="204" y="430" on="0"/>
        <pt x="245" y="412" on="0"/>
        <pt x="269" y="403" on="1"/>
        <pt x="300" y="392" on="0"/>
        <pt x="373" y="361" on="0"/>
        <pt x="433" y="312" on="0"/>
        <pt x="468" y="240" on="0"/>
        <pt x="461" y="187" on="1"/>
        <pt x="455" y="142" on="0"/>
        <pt x="411" y="70" on="0"/>
        <pt x="347" y="19" on="0"/>
        <pt x="267" y="-8" on="0"/>
        <pt x="224" y="-8" on="1"/>
        <pt x="185" y="-8" on="0"/>
        <pt x="120" y="13" on="0"/>
        <pt x="67" y="44" on="0"/>
        <pt x="30" y="81" on="0"/>
        <pt x="20" y="98" on="1"/>
        <pt x="66" y="137" on="1"/>
        <pt x="78" y="122" on="0"/>
        <pt x="109" y="92" on="0"/>
        <pt x="148" y="67" on="0"/>
        <pt x="197" y="51" on="0"/>
        <pt x="227" y="51" on="1"/>
        <pt x="257" y="51" on="0"/>
        <pt x="314" y="69" on="0"/>
        <pt x="361" y="104" on="0"/>
        <pt x="393" y="154" on="0"/>
        <pt x="398" y="186" on="1"/>
        <pt x="404" y="228" on="0"/>
        <pt x="372" y="282" on="0"/>
        <pt x="319" y="316" on="0"/>
        <pt x="256" y="337" on="0"/>
        <pt x="231" y="347" on="1"/>
        <pt x="212" y="355" on="0"/>
        <pt x="164" y="378" on="0"/>
        <pt x="124" y="417" on="0"/>
        <pt x="100" y="475" on="0"/>
        <pt x="105" y="517" on="1"/>
        <pt x="108" y="550" on="0"/>
        <pt x="137" y="617" on="0"/>
        <pt x="190" y="670" on="0"/>
        <pt x="268" y="704" on="0"/>
        <pt x="321" y="704" on="1"/>
        <pt x="360" y="704" on="0"/>
        <pt x="438" y="677" on="0"/>
      </contour>
    </TTGlyph>
    <TTGlyph name="T" xMin="41" yMin="0" xMax="602" yMax="700">
      <contour>
        <pt x="602" y="700" on="1"/>
        <pt x="594" y="640" on="1"/>
        <pt x="349" y="640" on="1"/>
        <pt x="258" y="0" on="1"/>
        <pt x="196" y="0" on="1"/>
        <pt x="287" y="640" on="1"/>
        <pt x="41" y="640" on="1"/>
        <pt x="49" y="700" on="1"/>
      </contour>
    </TTGlyph>
    <TTGlyph name="Thorn" xMin="50" yMin="0" xMax="490" yMax="700">
      <contour>
        <pt x="143" y="216" on="1"/>
        <pt x="238" y="216" on="1"/>
        <pt x="286" y="216" on="0"/>
        <pt x="353" y="241" on="0"/>
        <pt x="396" y="280" on="0"/>
        <pt x="417" y="327" on="0"/>
        <pt x="420" y="349" on="1"/>
        <pt x="424" y="374" on="0"/>
        <pt x="406" y="420" on="0"/>
        <pt x="367" y="455" on="0"/>
        <pt x="310" y="476" on="0"/>
        <pt x="276" y="476" on="1"/>
        <pt x="180" y="476" on="1"/>
      </contour>
      <contour>
        <pt x="112" y="0" on="1"/>
        <pt x="50" y="0" on="1"/>
        <pt x="149" y="700" on="1"/>
        <pt x="211" y="700" on="1"/>
        <pt x="188" y="535" on="1"/>
        <pt x="283" y="535" on="1"/>
        <pt x="316" y="535" on="0"/>
        <pt x="391" y="514" on="0"/>
        <pt x="453" y="469" on="0"/>
        <pt x="490" y="399" on="0"/>
        <pt x="483" y="349" on="1"/>
        <pt x="470" y="261" on="0"/>
        <pt x="347" y="156" on="0"/>
        <pt x="244" y="156" on="1"/>
        <pt x="134" y="156" on="1"/>
      </contour>
    </TTGlyph>
    <TTGlyph name="U" xMin="59" yMin="-8" xMax="621" yMax="700">
      <contour>
        <pt x="278" y="-8" on="1"/>
        <pt x="225" y="-8" on="0"/>
        <pt x="140" y="22" on="0"/>
        <pt x="83" y="81" on="0"/>
        <pt x="59" y="169" on="0"/>
        <pt x="67" y="226" on="1"/>
        <pt x="133" y="700" on="1"/>
        <pt x="195" y="700" on="1"/>
        <pt x="129" y="229" on="1"/>
        <pt x="123" y="186" on="0"/>
        <pt x="141" y="120" on="0"/>
        <pt x="183" y="75" on="0"/>
        <pt x="246" y="51" on="0"/>
        <pt x="286" y="51" on="1"/>
        <pt x="325" y="51" on="0"/>
        <pt x="395" y="75" on="0"/>
        <pt x="450" y="120" on="0"/>
        <pt x="487" y="186" on="0"/>
        <pt x="493" y="229" on="1"/>
        <pt x="559" y="700" on="1"/>
        <pt x="621" y="700" on="1"/>
        <pt x="555" y="226" on="1"/>
        <pt x="547" y="169" on="0"/>
        <pt x="497" y="81" on="0"/>
        <pt x="423" y="22" on="0"/>
        <pt x="330" y="-8" on="0"/>
      </contour>
    </TTGlyph>
    <TTGlyph name="Uacute" xMin="60" yMin="-8" xMax="622" yMax="883">
      <component glyphName="U" x="1" y="0" flags="0x204"/>
      <component glyphName="acute" x="266" y="271" flags="0x4"/>
    </TTGlyph>
    <TTGlyph name="Ucircumflex" xMin="60" yMin="-8" xMax="622" yMax="932">
      <component glyphName="U" x="1" y="0" flags="0x204"/>
      <component glyphName="asciicircum" x="167" y="272" flags="0x4"/>
    </TTGlyph>
    <TTGlyph name="Udieresis" xMin="60" yMin="-8" xMax="622" yMax="847">
      <component glyphName="U" x="1" y="0" flags="0x204"/>
      <component glyphName="dieresis" x="213" y="290" flags="0x4"/>
    </TTGlyph>
    <TTGlyph name="Ugrave" xMin="60" yMin="-8" xMax="622" yMax="883">
      <component glyphName="U" x="1" y="0" flags="0x204"/>
      <component glyphName="grave" x="290" y="271" flags="0x4"/>
    </TTGlyph>
    <TTGlyph name="V" xMin="105" yMin="-32" xMax="725" yMax="700">
      <contour>
        <pt x="662" y="700" on="1"/>
        <pt x="725" y="700" on="1"/>
        <pt x="622" y="516" on="0"/>
        <pt x="415" y="152" on="0"/>
        <pt x="312" y="-32" on="1"/>
        <pt x="105" y="700" on="1"/>
        <pt x="168" y="700" on="1"/>
        <pt x="208" y="558" on="0"/>
        <pt x="287" y="279" on="0"/>
        <pt x="327" y="137" on="1"/>
        <pt x="328" y="129" on="0"/>
        <pt x="330" y="114" on="0"/>
        <pt x="332" y="106" on="1"/>
        <pt x="335" y="114" on="0"/>
        <pt x="341" y="129" on="0"/>
        <pt x="345" y="137" on="1"/>
        <pt x="425" y="279" on="0"/>
        <pt x="582" y="558" on="0"/>
      </contour>
    </TTGlyph>
    <TTGlyph name="W" xMin="105" yMin="-32" xMax="1098" yMax="700">
      <contour>
        <pt x="1035" y="700" on="1"/>
        <pt x="1098" y="700" on="1"/>
        <pt x="995" y="516" on="0"/>
        <pt x="788" y="152" on="0"/>
        <pt x="685" y="-32" on="1"/>
        <pt x="567" y="385" on="1"/>
        <pt x="565" y="393" on="0"/>
        <pt x="563" y="408" on="0"/>
        <pt x="561" y="416" on="1"/>
        <pt x="537" y="360" on="0"/>
        <pt x="476" y="247" on="0"/>
        <pt x="410" y="134" on="0"/>
        <pt x="343" y="22" on="0"/>
        <pt x="312" y="-32" on="1"/>
        <pt x="105" y="700" on="1"/>
        <pt x="168" y="700" on="1"/>
        <pt x="207" y="558" on="0"/>
        <pt x="286" y="279" on="0"/>
        <pt x="327" y="137" on="1"/>
        <pt x="328" y="129" on="0"/>
        <pt x="330" y="114" on="0"/>
        <pt x="332" y="106" on="1"/>
        <pt x="374" y="202" on="0"/>
        <pt x="488" y="389" on="0"/>
        <pt x="539" y="482" on="1"/>
        <pt x="524" y="537" on="0"/>
        <pt x="493" y="645" on="0"/>
        <pt x="478" y="700" on="1"/>
        <pt x="540" y="700" on="1"/>
        <pt x="580" y="558" on="0"/>
        <pt x="659" y="279" on="0"/>
        <pt x="700" y="137" on="1"/>
        <pt x="701" y="129" on="0"/>
        <pt x="702" y="114" on="0"/>
        <pt x="704" y="106" on="1"/>
        <pt x="710" y="121" on="0"/>
        <pt x="718" y="137" on="1"/>
        <pt x="798" y="279" on="0"/>
        <pt x="955" y="558" on="0"/>
      </contour>
    </TTGlyph>
    <TTGlyph name="X" xMin="43" yMin="0" xMax="679" yMax="700">
      <contour>
        <pt x="325" y="358" on="1"/>
        <pt x="282" y="444" on="0"/>
        <pt x="196" y="614" on="0"/>
        <pt x="152" y="700" on="1"/>
        <pt x="228" y="700" on="1"/>
        <pt x="263" y="631" on="0"/>
        <pt x="331" y="497" on="0"/>
        <pt x="366" y="429" on="1"/>
        <pt x="368" y="423" on="0"/>
        <pt x="373" y="411" on="0"/>
        <pt x="375" y="406" on="1"/>
        <pt x="378" y="411" on="0"/>
        <pt x="385" y="423" on="0"/>
        <pt x="389" y="429" on="1"/>
        <pt x="443" y="497" on="0"/>
        <pt x="549" y="631" on="0"/>
        <pt x="603" y="700" on="1"/>
        <pt x="679" y="700" on="1"/>
        <pt x="610" y="612" on="0"/>
        <pt x="474" y="440" on="0"/>
        <pt x="405" y="352" on="1"/>
        <pt x="450" y="264" on="0"/>
        <pt x="540" y="89" on="0"/>
        <pt x="585" y="0" on="1"/>
        <pt x="508" y="0" on="1"/>
        <pt x="373" y="264" on="1"/>
        <pt x="368" y="274" on="0"/>
        <pt x="361" y="295" on="0"/>
        <pt x="356" y="305" on="1"/>
        <pt x="341" y="281" on="1"/>
        <pt x="285" y="210" on="0"/>
        <pt x="176" y="71" on="0"/>
        <pt x="120" y="0" on="1"/>
        <pt x="43" y="0" on="1"/>
        <pt x="115" y="90" on="0"/>
        <pt x="254" y="268" on="0"/>
      </contour>
    </TTGlyph>
    <TTGlyph name="Y" xMin="72" yMin="0" xMax="661" yMax="700">
      <contour>
        <pt x="343" y="267" on="1"/>
        <pt x="306" y="0" on="1"/>
        <pt x="230" y="0" on="1"/>
        <pt x="268" y="268" on="1"/>
        <pt x="218" y="376" on="0"/>
        <pt x="121" y="591" on="0"/>
        <pt x="72" y="700" on="1"/>
        <pt x="148" y="700" on="1"/>
        <pt x="188" y="612" on="0"/>
        <pt x="267" y="441" on="0"/>
        <pt x="306" y="353" on="1"/>
        <pt x="308" y="346" on="0"/>
        <pt x="311" y="331" on="0"/>
        <pt x="313" y="324" on="1"/>
        <pt x="314" y="324" on="1"/>
        <pt x="318" y="331" on="0"/>
        <pt x="326" y="346" on="0"/>
        <pt x="330" y="353" on="1"/>
        <pt x="394" y="441" on="0"/>
        <pt x="521" y="612" on="0"/>
        <pt x="585" y="700" on="1"/>
        <pt x="661" y="700" on="1"/>
        <pt x="581" y="591" on="0"/>
        <pt x="423" y="376" on="0"/>
      </contour>
    </TTGlyph>
    <TTGlyph name="Yacute" xMin="72" yMin="0" xMax="661" yMax="883">
      <component glyphName="Y" x="0" y="0" flags="0x204"/>
      <component glyphName="acute" x="258" y="271" flags="0x4"/>
    </TTGlyph>
    <TTGlyph name="Z" xMin="81" yMin="0" xMax="709" yMax="735">
      <contour>
        <pt x="288" y="700" on="1"/>
        <pt x="709" y="700" on="1"/>
        <pt x="701" y="640" on="1"/>
        <pt x="566" y="494" on="0"/>
        <pt x="301" y="206" on="0"/>
        <pt x="166" y="60" on="1"/>
        <pt x="648" y="60" on="1"/>
        <pt x="640" y="0" on="1"/>
        <pt x="81" y="0" on="1"/>
        <pt x="89" y="60" on="1"/>
        <pt x="223" y="206" on="0"/>
        <pt x="488" y="494" on="0"/>
        <pt x="623" y="640" on="1"/>
        <pt x="257" y="640" on="1"/>
        <pt x="226" y="640" on="0"/>
        <pt x="191" y="670" on="0"/>
        <pt x="195" y="699" on="1"/>
        <pt x="200" y="735" on="1"/>
        <pt x="263" y="735" on="1"/>
        <pt x="261" y="723" on="1"/>
        <pt x="259" y="709" on="0"/>
        <pt x="271" y="700" on="0"/>
      </contour>
    </TTGlyph>
    <TTGlyph name="a" xMin="69" yMin="-8" xMax="498" yMax="384">
      <contour>
        <pt x="138" y="188" on="1"/>
        <pt x="134" y="159" on="0"/>
        <pt x="147" y="110" on="0"/>
        <pt x="179" y="74" on="0"/>
        <pt x="226" y="53" on="0"/>
        <pt x="255" y="53" on="1"/>
        <pt x="284" y="53" on="0"/>
        <pt x="337" y="74" on="0"/>
        <pt x="379" y="110" on="0"/>
        <pt x="406" y="159" on="0"/>
        <pt x="410" y="188" on="1"/>
        <pt x="414" y="216" on="0"/>
        <pt x="401" y="266" on="0"/>
        <pt x="369" y="302" on="0"/>
        <pt x="322" y="323" on="0"/>
        <pt x="293" y="323" on="1"/>
        <pt x="263" y="323" on="0"/>
        <pt x="210" y="302" on="0"/>
        <pt x="169" y="266" on="0"/>
        <pt x="142" y="216" on="0"/>
      </contour>
      <contour>
        <pt x="75" y="187" on="1"/>
        <pt x="81" y="230" on="0"/>
        <pt x="121" y="302" on="0"/>
        <pt x="183" y="355" on="0"/>
        <pt x="259" y="384" on="0"/>
        <pt x="301" y="384" on="1"/>
        <pt x="329" y="384" on="0"/>
        <pt x="376" y="368" on="0"/>
        <pt x="410" y="344" on="0"/>
        <pt x="432" y="318" on="0"/>
        <pt x="434" y="308" on="1"/>
        <pt x="436" y="324" on="0"/>
        <pt x="445" y="358" on="0"/>
        <pt x="447" y="375" on="1"/>
        <pt x="498" y="375" on="1"/>
        <pt x="446" y="0" on="1"/>
        <pt x="391" y="0" on="1"/>
        <pt x="396" y="39" on="1"/>
        <pt x="397" y="45" on="0"/>
        <pt x="399" y="57" on="0"/>
        <pt x="400" y="64" on="1"/>
        <pt x="395" y="54" on="0"/>
        <pt x="369" y="29" on="0"/>
        <pt x="328" y="7" on="0"/>
        <pt x="276" y="-8" on="0"/>
        <pt x="246" y="-8" on="1"/>
        <pt x="204" y="-8" on="0"/>
        <pt x="136" y="23" on="0"/>
        <pt x="90" y="76" on="0"/>
        <pt x="69" y="147" on="0"/>
      </contour>
    </TTGlyph>
    <TTGlyph name="aacute" xMin="69" yMin="-8" xMax="498" yMax="612">
      <component glyphName="a" x="0" y="0" flags="0x4"/>
      <component glyphName="acute" x="209" y="0" flags="0x4"/>
    </TTGlyph>
    <TTGlyph name="acircumflex" xMin="69" yMin="-8" xMax="498" yMax="660">
      <component glyphName="a" x="0" y="0" flags="0x4"/>
      <component glyphName="asciicircum" x="106" y="0" flags="0x4"/>
    </TTGlyph>
    <TTGlyph name="acute" xMin="90" yMin="479" xMax="263" yMax="612">
      <contour>
        <pt x="90" y="479" on="1"/>
        <pt x="117" y="512" on="0"/>
        <pt x="172" y="579" on="0"/>
        <pt x="199" y="612" on="1"/>
        <pt x="263" y="612" on="1"/>
        <pt x="231" y="579" on="0"/>
        <pt x="168" y="512" on="0"/>
        <pt x="136" y="479" on="1"/>
      </contour>
    </TTGlyph>
    <TTGlyph name="adieresis" xMin="69" yMin="-8" xMax="498" yMax="557">
      <component glyphName="a" x="0" y="0" flags="0x4"/>
      <component glyphName="dieresis" x="142" y="0" flags="0x4"/>
    </TTGlyph>
    <TTGlyph name="ae" xMin="28" yMin="-8" xMax="584" yMax="384">
      <contour>
        <pt x="367" y="244" on="1"/>
        <pt x="363" y="213" on="1"/>
        <pt x="399" y="227" on="0"/>
        <pt x="472" y="252" on="0"/>
        <pt x="509" y="266" on="1"/>
        <pt x="497" y="292" on="0"/>
        <pt x="452" y="323" on="0"/>
        <pt x="423" y="323" on="1"/>
        <pt x="391" y="323" on="0"/>
        <pt x="364" y="312" on="1"/>
        <pt x="373" y="290" on="0"/>
      </contour>
      <contour>
        <pt x="291" y="149" on="1"/>
        <pt x="223" y="149" on="1"/>
        <pt x="208" y="149" on="0"/>
        <pt x="167" y="148" on="0"/>
        <pt x="127" y="140" on="0"/>
        <pt x="98" y="122" on="0"/>
        <pt x="95" y="105" on="1"/>
        <pt x="93" y="89" on="0"/>
        <pt x="108" y="69" on="0"/>
        <pt x="134" y="57" on="0"/>
        <pt x="168" y="53" on="0"/>
        <pt x="184" y="53" on="1"/>
        <pt x="199" y="53" on="0"/>
        <pt x="233" y="56" on="0"/>
        <pt x="262" y="68" on="0"/>
        <pt x="282" y="90" on="0"/>
        <pt x="285" y="109" on="1"/>
      </contour>
      <contour>
        <pt x="114" y="293" on="1"/>
        <pt x="106" y="304" on="0"/>
        <pt x="93" y="323" on="0"/>
        <pt x="85" y="334" on="1"/>
        <pt x="97" y="344" on="0"/>
        <pt x="132" y="362" on="0"/>
        <pt x="172" y="376" on="0"/>
        <pt x="214" y="384" on="0"/>
        <pt x="232" y="384" on="1"/>
        <pt x="309" y="384" on="0"/>
        <pt x="339" y="364" on="1"/>
        <pt x="384" y="384" on="0"/>
        <pt x="431" y="384" on="1"/>
        <pt x="493" y="384" on="0"/>
        <pt x="574" y="298" on="0"/>
        <pt x="584" y="231" on="1"/>
        <pt x="526" y="210" on="0"/>
        <pt x="411" y="169" on="0"/>
        <pt x="354" y="148" on="1"/>
        <pt x="352" y="138" on="1"/>
        <pt x="351" y="131" on="1"/>
        <pt x="348" y="110" on="0"/>
        <pt x="337" y="78" on="0"/>
        <pt x="326" y="65" on="1"/>
        <pt x="351" y="53" on="0"/>
        <pt x="384" y="53" on="1"/>
        <pt x="411" y="53" on="0"/>
        <pt x="460" y="74" on="0"/>
        <pt x="480" y="91" on="1"/>
        <pt x="488" y="79" on="0"/>
        <pt x="504" y="56" on="0"/>
        <pt x="512" y="45" on="1"/>
        <pt x="483" y="21" on="0"/>
        <pt x="414" y="-7" on="0"/>
        <pt x="376" y="-7" on="1"/>
        <pt x="326" y="-7" on="0"/>
        <pt x="285" y="15" on="1"/>
        <pt x="244" y="-8" on="0"/>
        <pt x="176" y="-8" on="1"/>
        <pt x="140" y="-8" on="0"/>
        <pt x="83" y="3" on="0"/>
        <pt x="45" y="30" on="0"/>
        <pt x="28" y="74" on="0"/>
        <pt x="33" y="108" on="1"/>
        <pt x="37" y="138" on="0"/>
        <pt x="68" y="178" on="0"/>
        <pt x="112" y="203" on="0"/>
        <pt x="166" y="213" on="0"/>
        <pt x="194" y="213" on="1"/>
        <pt x="300" y="213" on="1"/>
        <pt x="305" y="246" on="1"/>
        <pt x="308" y="265" on="0"/>
        <pt x="305" y="294" on="0"/>
        <pt x="288" y="314" on="0"/>
        <pt x="253" y="323" on="0"/>
        <pt x="223" y="323" on="1"/>
        <pt x="210" y="323" on="0"/>
        <pt x="179" y="318" on="0"/>
        <pt x="149" y="309" on="0"/>
        <pt x="122" y="299" on="0"/>
      </contour>
    </TTGlyph>
    <TTGlyph name="agrave" xMin="69" yMin="-8" xMax="498" yMax="612">
      <component glyphName="a" x="0" y="0" flags="0x4"/>
      <component glyphName="grave" x="229" y="0" flags="0x4"/>
    </TTGlyph>
    <TTGlyph name="ampersand" xMin="72" yMin="-19" xMax="601" yMax="750">
      <contour>
        <pt x="141" y="188" on="1"/>
        <pt x="137" y="159" on="0"/>
        <pt x="150" y="110" on="0"/>
        <pt x="181" y="73" on="0"/>
        <pt x="228" y="52" on="0"/>
        <pt x="258" y="52" on="1"/>
        <pt x="299" y="52" on="0"/>
        <pt x="368" y="92" on="0"/>
        <pt x="388" y="124" on="1"/>
        <pt x="295" y="322" on="1"/>
        <pt x="265" y="321" on="0"/>
        <pt x="212" y="301" on="0"/>
        <pt x="171" y="266" on="0"/>
        <pt x="145" y="217" on="0"/>
      </contour>
      <contour>
        <pt x="479" y="210" on="1"/>
        <pt x="476" y="187" on="1"/>
        <pt x="474" y="170" on="0"/>
        <pt x="463" y="141" on="0"/>
        <pt x="455" y="127" on="1"/>
        <pt x="509" y="13" on="1"/>
        <pt x="495" y="5" on="0"/>
        <pt x="470" y="-11" on="0"/>
        <pt x="456" y="-19" on="1"/>
        <pt x="445" y="2" on="0"/>
        <pt x="426" y="45" on="0"/>
        <pt x="415" y="66" on="1"/>
        <pt x="383" y="31" on="0"/>
        <pt x="297" y="-8" on="0"/>
        <pt x="249" y="-8" on="1"/>
        <pt x="208" y="-8" on="0"/>
        <pt x="140" y="23" on="0"/>
        <pt x="93" y="76" on="0"/>
        <pt x="72" y="147" on="0"/>
        <pt x="78" y="188" on="1"/>
        <pt x="83" y="224" on="0"/>
        <pt x="117" y="288" on="0"/>
        <pt x="168" y="339" on="0"/>
        <pt x="232" y="374" on="0"/>
        <pt x="267" y="380" on="1"/>
        <pt x="240" y="439" on="0"/>
        <pt x="212" y="496" on="1"/>
        <pt x="198" y="526" on="0"/>
        <pt x="193" y="590" on="0"/>
        <pt x="212" y="651" on="0"/>
        <pt x="256" y="706" on="0"/>
        <pt x="292" y="726" on="1"/>
        <pt x="323" y="743" on="0"/>
        <pt x="382" y="750" on="0"/>
        <pt x="436" y="739" on="0"/>
        <pt x="483" y="717" on="0"/>
        <pt x="500" y="705" on="1"/>
        <pt x="492" y="693" on="0"/>
        <pt x="476" y="668" on="0"/>
        <pt x="468" y="656" on="1"/>
        <pt x="455" y="664" on="0"/>
        <pt x="422" y="681" on="0"/>
        <pt x="384" y="690" on="0"/>
        <pt x="345" y="687" on="0"/>
        <pt x="326" y="676" on="1"/>
        <pt x="274" y="646" on="0"/>
        <pt x="251" y="556" on="0"/>
        <pt x="272" y="512" on="1"/>
        <pt x="307" y="438" on="0"/>
        <pt x="375" y="294" on="0"/>
        <pt x="410" y="220" on="1"/>
        <pt x="416" y="238" on="0"/>
        <pt x="427" y="270" on="0"/>
        <pt x="432" y="284" on="1"/>
        <pt x="435" y="305" on="1"/>
        <pt x="444" y="334" on="0"/>
        <pt x="470" y="363" on="0"/>
        <pt x="502" y="375" on="0"/>
        <pt x="538" y="375" on="0"/>
        <pt x="557" y="375" on="1"/>
        <pt x="601" y="375" on="1"/>
        <pt x="593" y="314" on="1"/>
        <pt x="545" y="314" on="1"/>
        <pt x="530" y="314" on="0"/>
        <pt x="509" y="305" on="0"/>
        <pt x="494" y="282" on="0"/>
        <pt x="483" y="242" on="0"/>
      </contour>
    </TTGlyph>
    <TTGlyph name="aring" xMin="69" yMin="-8" xMax="498" yMax="620">
      <contour>
        <pt x="288" y="539" on="1"/>
        <pt x="286" y="524" on="0"/>
        <pt x="305" y="502" on="0"/>
        <pt x="320" y="502" on="1"/>
        <pt x="336" y="502" on="0"/>
        <pt x="361" y="524" on="0"/>
        <pt x="363" y="539" on="1"/>
        <pt x="365" y="555" on="0"/>
        <pt x="347" y="577" on="0"/>
        <pt x="331" y="577" on="1"/>
        <pt x="315" y="577" on="0"/>
        <pt x="290" y="555" on="0"/>
      </contour>
      <contour>
        <pt x="245" y="540" on="1"/>
        <pt x="248" y="556" on="0"/>
        <pt x="265" y="586" on="0"/>
        <pt x="290" y="607" on="0"/>
        <pt x="320" y="620" on="0"/>
        <pt x="337" y="620" on="1"/>
        <pt x="369" y="620" on="0"/>
        <pt x="410" y="573" on="0"/>
        <pt x="405" y="540" on="1"/>
        <pt x="403" y="523" on="0"/>
        <pt x="386" y="494" on="0"/>
        <pt x="361" y="473" on="0"/>
        <pt x="330" y="460" on="0"/>
        <pt x="314" y="460" on="1"/>
        <pt x="297" y="460" on="0"/>
        <pt x="270" y="473" on="0"/>
        <pt x="251" y="494" on="0"/>
        <pt x="243" y="523" on="0"/>
      </contour>
      <contour>
        <pt x="138" y="188" on="1"/>
        <pt x="134" y="159" on="0"/>
        <pt x="147" y="110" on="0"/>
        <pt x="179" y="74" on="0"/>
        <pt x="226" y="53" on="0"/>
        <pt x="255" y="53" on="1"/>
        <pt x="284" y="53" on="0"/>
        <pt x="337" y="74" on="0"/>
        <pt x="379" y="110" on="0"/>
        <pt x="406" y="159" on="0"/>
        <pt x="410" y="188" on="1"/>
        <pt x="414" y="216" on="0"/>
        <pt x="401" y="266" on="0"/>
        <pt x="369" y="302" on="0"/>
        <pt x="322" y="323" on="0"/>
        <pt x="293" y="323" on="1"/>
        <pt x="263" y="323" on="0"/>
        <pt x="210" y="302" on="0"/>
        <pt x="169" y="266" on="0"/>
        <pt x="142" y="216" on="0"/>
      </contour>
      <contour>
        <pt x="75" y="187" on="1"/>
        <pt x="81" y="230" on="0"/>
        <pt x="121" y="302" on="0"/>
        <pt x="183" y="355" on="0"/>
        <pt x="259" y="384" on="0"/>
        <pt x="301" y="384" on="1"/>
        <pt x="329" y="384" on="0"/>
        <pt x="376" y="368" on="0"/>
        <pt x="410" y="344" on="0"/>
        <pt x="432" y="318" on="0"/>
        <pt x="434" y="308" on="1"/>
        <pt x="436" y="324" on="0"/>
        <pt x="445" y="358" on="0"/>
        <pt x="447" y="375" on="1"/>
        <pt x="498" y="375" on="1"/>
        <pt x="446" y="0" on="1"/>
        <pt x="391" y="0" on="1"/>
        <pt x="396" y="39" on="1"/>
        <pt x="397" y="45" on="0"/>
        <pt x="399" y="57" on="0"/>
        <pt x="400" y="64" on="1"/>
        <pt x="395" y="54" on="0"/>
        <pt x="369" y="29" on="0"/>
        <pt x="328" y="7" on="0"/>
        <pt x="276" y="-8" on="0"/>
        <pt x="246" y="-8" on="1"/>
        <pt x="204" y="-8" on="0"/>
        <pt x="136" y="23" on="0"/>
        <pt x="90" y="76" on="0"/>
        <pt x="69" y="147" on="0"/>
      </contour>
    </TTGlyph>
    <TTGlyph name="asciicircum" xMin="99" yMin="479" xMax="339" yMax="660">
      <contour>
        <pt x="244" y="660" on="1"/>
        <pt x="268" y="615" on="0"/>
        <pt x="315" y="524" on="0"/>
        <pt x="339" y="479" on="1"/>
        <pt x="293" y="479" on="1"/>
        <pt x="278" y="503" on="0"/>
        <pt x="248" y="551" on="0"/>
        <pt x="232" y="576" on="1"/>
        <pt x="211" y="551" on="0"/>
        <pt x="167" y="503" on="0"/>
        <pt x="145" y="479" on="1"/>
        <pt x="99" y="479" on="1"/>
        <pt x="135" y="524" on="0"/>
        <pt x="208" y="615" on="0"/>
      </contour>
    </TTGlyph>
    <TTGlyph name="asciitilde" xMin="119" yMin="452" xMax="436" yMax="549">
      <contour>
        <pt x="267" y="486" on="1"/>
        <pt x="254" y="503" on="0"/>
        <pt x="231" y="513" on="0"/>
        <pt x="217" y="513" on="1"/>
        <pt x="203" y="513" on="0"/>
        <pt x="162" y="494" on="0"/>
        <pt x="154" y="464" on="1"/>
        <pt x="146" y="465" on="0"/>
        <pt x="128" y="466" on="0"/>
        <pt x="119" y="467" on="1"/>
        <pt x="123" y="486" on="0"/>
        <pt x="144" y="517" on="0"/>
        <pt x="173" y="538" on="0"/>
        <pt x="204" y="549" on="0"/>
        <pt x="219" y="549" on="1"/>
        <pt x="241" y="549" on="0"/>
        <pt x="274" y="530" on="0"/>
        <pt x="288" y="514" on="1"/>
        <pt x="301" y="497" on="0"/>
        <pt x="323" y="487" on="0"/>
        <pt x="337" y="487" on="1"/>
        <pt x="344" y="487" on="0"/>
        <pt x="363" y="491" on="0"/>
        <pt x="382" y="502" on="0"/>
        <pt x="397" y="521" on="0"/>
        <pt x="401" y="536" on="1"/>
        <pt x="410" y="535" on="0"/>
        <pt x="428" y="534" on="0"/>
        <pt x="436" y="533" on="1"/>
        <pt x="432" y="513" on="0"/>
        <pt x="411" y="483" on="0"/>
        <pt x="383" y="462" on="0"/>
        <pt x="351" y="452" on="0"/>
        <pt x="336" y="452" on="1"/>
        <pt x="314" y="452" on="0"/>
        <pt x="281" y="471" on="0"/>
      </contour>
    </TTGlyph>
    <TTGlyph name="asterisk" xMin="23" yMin="434" xMax="314" yMax="720">
      <contour>
        <pt x="229" y="575" on="1"/>
        <pt x="247" y="564" on="0"/>
        <pt x="283" y="542" on="0"/>
        <pt x="300" y="531" on="1"/>
        <pt x="290" y="517" on="0"/>
        <pt x="270" y="489" on="0"/>
        <pt x="260" y="475" on="1"/>
        <pt x="243" y="486" on="0"/>
        <pt x="207" y="510" on="0"/>
        <pt x="190" y="521" on="1"/>
        <pt x="187" y="499" on="0"/>
        <pt x="180" y="456" on="0"/>
        <pt x="176" y="434" on="1"/>
        <pt x="116" y="434" on="1"/>
        <pt x="128" y="521" on="1"/>
        <pt x="108" y="510" on="0"/>
        <pt x="67" y="489" on="0"/>
        <pt x="46" y="478" on="1"/>
        <pt x="36" y="504" on="0"/>
        <pt x="23" y="533" on="1"/>
        <pt x="43" y="544" on="0"/>
        <pt x="84" y="565" on="0"/>
        <pt x="105" y="576" on="1"/>
        <pt x="88" y="587" on="0"/>
        <pt x="53" y="611" on="0"/>
        <pt x="36" y="622" on="1"/>
        <pt x="45" y="635" on="0"/>
        <pt x="63" y="660" on="0"/>
        <pt x="72" y="674" on="1"/>
        <pt x="90" y="663" on="0"/>
        <pt x="126" y="639" on="0"/>
        <pt x="144" y="628" on="1"/>
        <pt x="157" y="720" on="1"/>
        <pt x="221" y="720" on="1"/>
        <pt x="217" y="697" on="0"/>
        <pt x="210" y="651" on="0"/>
        <pt x="206" y="628" on="1"/>
        <pt x="228" y="639" on="0"/>
        <pt x="270" y="662" on="0"/>
        <pt x="292" y="673" on="1"/>
        <pt x="297" y="659" on="0"/>
        <pt x="309" y="634" on="0"/>
        <pt x="314" y="621" on="1"/>
        <pt x="293" y="610" on="0"/>
        <pt x="251" y="586" on="0"/>
      </contour>
    </TTGlyph>
    <TTGlyph name="at" xMin="62" yMin="-225" xMax="913" yMax="602">
      <contour>
        <pt x="350" y="188" on="1"/>
        <pt x="346" y="159" on="0"/>
        <pt x="359" y="110" on="0"/>
        <pt x="390" y="74" on="0"/>
        <pt x="437" y="53" on="0"/>
        <pt x="467" y="53" on="1"/>
        <pt x="496" y="53" on="0"/>
        <pt x="549" y="74" on="0"/>
        <pt x="590" y="110" on="0"/>
        <pt x="618" y="159" on="0"/>
        <pt x="622" y="188" on="1"/>
        <pt x="626" y="216" on="0"/>
        <pt x="613" y="266" on="0"/>
        <pt x="581" y="302" on="0"/>
        <pt x="534" y="323" on="0"/>
        <pt x="505" y="323" on="1"/>
        <pt x="476" y="323" on="0"/>
        <pt x="423" y="302" on="0"/>
        <pt x="382" y="266" on="0"/>
        <pt x="354" y="216" on="0"/>
      </contour>
      <contour>
        <pt x="901" y="188" on="1"/>
        <pt x="890" y="134" on="0"/>
        <pt x="845" y="61" on="0"/>
        <pt x="788" y="18" on="0"/>
        <pt x="727" y="0" on="0"/>
        <pt x="700" y="0" on="1"/>
        <pt x="603" y="0" on="1"/>
        <pt x="607" y="30" on="1"/>
        <pt x="608" y="38" on="0"/>
        <pt x="610" y="55" on="0"/>
        <pt x="612" y="63" on="1"/>
        <pt x="606" y="53" on="0"/>
        <pt x="579" y="28" on="0"/>
        <pt x="539" y="7" on="0"/>
        <pt x="488" y="-8" on="0"/>
        <pt x="458" y="-8" on="1"/>
        <pt x="416" y="-8" on="0"/>
        <pt x="348" y="23" on="0"/>
        <pt x="302" y="76" on="0"/>
        <pt x="281" y="147" on="0"/>
        <pt x="287" y="187" on="1"/>
        <pt x="293" y="227" on="0"/>
        <pt x="333" y="298" on="0"/>
        <pt x="395" y="351" on="0"/>
        <pt x="471" y="382" on="0"/>
        <pt x="513" y="382" on="1"/>
        <pt x="540" y="382" on="0"/>
        <pt x="587" y="366" on="0"/>
        <pt x="621" y="344" on="0"/>
        <pt x="643" y="318" on="0"/>
        <pt x="646" y="308" on="1"/>
        <pt x="648" y="324" on="0"/>
        <pt x="656" y="358" on="0"/>
        <pt x="660" y="375" on="1"/>
        <pt x="711" y="375" on="1"/>
        <pt x="666" y="61" on="1"/>
        <pt x="711" y="61" on="1"/>
        <pt x="755" y="61" on="0"/>
        <pt x="826" y="118" on="0"/>
        <pt x="838" y="188" on="1"/>
        <pt x="848" y="261" on="0"/>
        <pt x="812" y="390" on="0"/>
        <pt x="730" y="486" on="0"/>
        <pt x="610" y="542" on="0"/>
        <pt x="538" y="542" on="1"/>
        <pt x="465" y="542" on="0"/>
        <pt x="329" y="486" on="0"/>
        <pt x="220" y="390" on="0"/>
        <pt x="146" y="261" on="0"/>
        <pt x="136" y="188" on="1"/>
        <pt x="126" y="115" on="0"/>
        <pt x="163" y="-13" on="0"/>
        <pt x="245" y="-109" on="0"/>
        <pt x="366" y="-164" on="0"/>
        <pt x="439" y="-164" on="1"/>
        <pt x="499" y="-164" on="0"/>
        <pt x="611" y="-128" on="0"/>
        <pt x="660" y="-96" on="1"/>
        <pt x="668" y="-108" on="0"/>
        <pt x="684" y="-130" on="0"/>
        <pt x="692" y="-141" on="1"/>
        <pt x="637" y="-182" on="0"/>
        <pt x="496" y="-225" on="0"/>
        <pt x="430" y="-225" on="1"/>
        <pt x="344" y="-225" on="0"/>
        <pt x="202" y="-160" on="0"/>
        <pt x="105" y="-48" on="0"/>
        <pt x="62" y="103" on="0"/>
        <pt x="74" y="189" on="1"/>
        <pt x="86" y="275" on="0"/>
        <pt x="172" y="425" on="0"/>
        <pt x="301" y="537" on="0"/>
        <pt x="461" y="602" on="0"/>
        <pt x="547" y="602" on="1"/>
        <pt x="633" y="602" on="0"/>
        <pt x="774" y="537" on="0"/>
        <pt x="870" y="425" on="0"/>
        <pt x="913" y="274" on="0"/>
      </contour>
    </TTGlyph>
    <TTGlyph name="atilde" xMin="69" yMin="-8" xMax="498" yMax="549">
      <component glyphName="a" x="0" y="0" flags="0x4"/>
      <component glyphName="asciitilde" x="48" y="0" flags="0x4"/>
    </TTGlyph>
    <TTGlyph name="b" xMin="82" yMin="-8" xMax="511" yMax="750">
      <contour>
        <pt x="442" y="188" on="1"/>
        <pt x="446" y="216" on="0"/>
        <pt x="433" y="266" on="0"/>
        <pt x="401" y="302" on="0"/>
        <pt x="354" y="323" on="0"/>
        <pt x="325" y="323" on="1"/>
        <pt x="296" y="323" on="0"/>
        <pt x="243" y="302" on="0"/>
        <pt x="202" y="266" on="0"/>
        <pt x="174" y="216" on="0"/>
        <pt x="170" y="188" on="1"/>
        <pt x="166" y="159" on="0"/>
        <pt x="180" y="110" on="0"/>
        <pt x="211" y="74" on="0"/>
        <pt x="258" y="53" on="0"/>
        <pt x="288" y="53" on="1"/>
        <pt x="317" y="53" on="0"/>
        <pt x="370" y="74" on="0"/>
        <pt x="411" y="110" on="0"/>
        <pt x="438" y="159" on="0"/>
      </contour>
      <contour>
        <pt x="505" y="188" on="1"/>
        <pt x="499" y="145" on="0"/>
        <pt x="459" y="73" on="0"/>
        <pt x="398" y="21" on="0"/>
        <pt x="321" y="-8" on="0"/>
        <pt x="279" y="-8" on="1"/>
        <pt x="249" y="-8" on="0"/>
        <pt x="201" y="7" on="0"/>
        <pt x="167" y="29" on="0"/>
        <pt x="147" y="54" on="0"/>
        <pt x="145" y="64" on="1"/>
        <pt x="144" y="57" on="0"/>
        <pt x="143" y="45" on="0"/>
        <pt x="142" y="39" on="1"/>
        <pt x="137" y="0" on="1"/>
        <pt x="82" y="0" on="1"/>
        <pt x="187" y="750" on="1"/>
        <pt x="249" y="750" on="1"/>
        <pt x="192" y="348" on="1"/>
        <pt x="190" y="337" on="0"/>
        <pt x="183" y="319" on="0"/>
        <pt x="180" y="309" on="1"/>
        <pt x="185" y="319" on="0"/>
        <pt x="213" y="345" on="0"/>
        <pt x="254" y="368" on="0"/>
        <pt x="305" y="384" on="0"/>
        <pt x="333" y="384" on="1"/>
        <pt x="375" y="384" on="0"/>
        <pt x="443" y="353" on="0"/>
        <pt x="490" y="299" on="0"/>
        <pt x="511" y="228" on="0"/>
      </contour>
    </TTGlyph>
    <TTGlyph name="backslash" xMin="58" yMin="-19" xMax="299" yMax="736">
      <contour>
        <pt x="128" y="736" on="1"/>
        <pt x="171" y="546" on="0"/>
        <pt x="256" y="171" on="0"/>
        <pt x="299" y="-19" on="1"/>
        <pt x="229" y="-19" on="1"/>
        <pt x="186" y="171" on="0"/>
        <pt x="101" y="546" on="0"/>
        <pt x="58" y="736" on="1"/>
      </contour>
    </TTGlyph>
    <TTGlyph name="bar" xMin="27" yMin="-232" xMax="221" yMax="700">
      <contour>
        <pt x="27" y="-232" on="1"/>
        <pt x="158" y="700" on="1"/>
        <pt x="221" y="700" on="1"/>
        <pt x="90" y="-232" on="1"/>
      </contour>
    </TTGlyph>
    <TTGlyph name="braceleft" xMin="25" yMin="-149" xMax="335" yMax="746">
      <contour>
        <pt x="25" y="265" on="1"/>
        <pt x="34" y="329" on="1"/>
        <pt x="58" y="330" on="0"/>
        <pt x="93" y="357" on="0"/>
        <pt x="116" y="397" on="0"/>
        <pt x="129" y="444" on="0"/>
        <pt x="132" y="464" on="1"/>
        <pt x="155" y="628" on="1"/>
        <pt x="161" y="674" on="0"/>
        <pt x="186" y="723" on="0"/>
        <pt x="218" y="744" on="0"/>
        <pt x="258" y="746" on="0"/>
        <pt x="279" y="746" on="1"/>
        <pt x="335" y="746" on="1"/>
        <pt x="326" y="685" on="1"/>
        <pt x="278" y="685" on="1"/>
        <pt x="263" y="685" on="0"/>
        <pt x="242" y="676" on="0"/>
        <pt x="227" y="652" on="0"/>
        <pt x="216" y="611" on="0"/>
        <pt x="212" y="579" on="1"/>
        <pt x="192" y="444" on="1"/>
        <pt x="187" y="408" on="0"/>
        <pt x="168" y="359" on="0"/>
        <pt x="144" y="325" on="0"/>
        <pt x="119" y="305" on="0"/>
        <pt x="107" y="298" on="1"/>
        <pt x="117" y="292" on="0"/>
        <pt x="137" y="271" on="0"/>
        <pt x="151" y="237" on="0"/>
        <pt x="157" y="187" on="0"/>
        <pt x="152" y="153" on="1"/>
        <pt x="133" y="18" on="1"/>
        <pt x="124" y="-45" on="0"/>
        <pt x="139" y="-88" on="0"/>
        <pt x="170" y="-88" on="1"/>
        <pt x="218" y="-88" on="1"/>
        <pt x="210" y="-149" on="1"/>
        <pt x="154" y="-149" on="1"/>
        <pt x="132" y="-149" on="0"/>
        <pt x="93" y="-147" on="0"/>
        <pt x="66" y="-124" on="0"/>
        <pt x="56" y="-71" on="0"/>
        <pt x="63" y="-20" on="1"/>
        <pt x="85" y="130" on="1"/>
        <pt x="88" y="150" on="0"/>
        <pt x="88" y="197" on="0"/>
        <pt x="76" y="237" on="0"/>
        <pt x="49" y="264" on="0"/>
      </contour>
    </TTGlyph>
    <TTGlyph name="braceright" xMin="-15" yMin="-149" xMax="294" yMax="746">
      <contour>
        <pt x="294" y="329" on="1"/>
        <pt x="284" y="265" on="1"/>
        <pt x="258" y="264" on="0"/>
        <pt x="222" y="233" on="0"/>
        <pt x="200" y="188" on="0"/>
        <pt x="188" y="138" on="0"/>
        <pt x="185" y="119" on="1"/>
        <pt x="164" y="-31" on="1"/>
        <pt x="158" y="-77" on="0"/>
        <pt x="133" y="-126" on="0"/>
        <pt x="101" y="-147" on="0"/>
        <pt x="61" y="-149" on="0"/>
        <pt x="40" y="-149" on="1"/>
        <pt x="-15" y="-149" on="1"/>
        <pt x="-7" y="-88" on="1"/>
        <pt x="41" y="-88" on="1"/>
        <pt x="56" y="-88" on="0"/>
        <pt x="77" y="-79" on="0"/>
        <pt x="92" y="-55" on="0"/>
        <pt x="102" y="-14" on="0"/>
        <pt x="107" y="18" on="1"/>
        <pt x="128" y="164" on="1"/>
        <pt x="132" y="195" on="0"/>
        <pt x="152" y="241" on="0"/>
        <pt x="176" y="273" on="0"/>
        <pt x="202" y="292" on="0"/>
        <pt x="212" y="298" on="1"/>
        <pt x="202" y="305" on="0"/>
        <pt x="182" y="325" on="0"/>
        <pt x="168" y="359" on="0"/>
        <pt x="162" y="408" on="0"/>
        <pt x="167" y="444" on="1"/>
        <pt x="186" y="579" on="1"/>
        <pt x="190" y="611" on="0"/>
        <pt x="192" y="652" on="0"/>
        <pt x="183" y="676" on="0"/>
        <pt x="164" y="685" on="0"/>
        <pt x="149" y="685" on="1"/>
        <pt x="101" y="685" on="1"/>
        <pt x="109" y="746" on="1"/>
        <pt x="165" y="746" on="1"/>
        <pt x="186" y="746" on="0"/>
        <pt x="225" y="744" on="0"/>
        <pt x="252" y="723" on="0"/>
        <pt x="263" y="674" on="0"/>
        <pt x="257" y="628" on="1"/>
        <pt x="235" y="475" on="1"/>
        <pt x="232" y="455" on="0"/>
        <pt x="230" y="406" on="0"/>
        <pt x="241" y="361" on="0"/>
        <pt x="268" y="330" on="0"/>
      </contour>
    </TTGlyph>
    <TTGlyph name="bracketleft" xMin="20" yMin="-149" xMax="328" yMax="746">
      <contour>
        <pt x="20" y="-149" on="1"/>
        <pt x="145" y="746" on="1"/>
        <pt x="328" y="746" on="1"/>
        <pt x="320" y="685" on="1"/>
        <pt x="200" y="685" on="1"/>
        <pt x="91" y="-88" on="1"/>
        <pt x="212" y="-88" on="1"/>
        <pt x="203" y="-149" on="1"/>
      </contour>
    </TTGlyph>
    <TTGlyph name="bracketright" xMin="5" yMin="-149" xMax="313" yMax="746">
      <contour>
        <pt x="313" y="746" on="1"/>
        <pt x="188" y="-149" on="1"/>
        <pt x="5" y="-149" on="1"/>
        <pt x="13" y="-88" on="1"/>
        <pt x="133" y="-88" on="1"/>
        <pt x="242" y="685" on="1"/>
        <pt x="121" y="685" on="1"/>
        <pt x="130" y="746" on="1"/>
      </contour>
    </TTGlyph>
    <TTGlyph name="brokenbar" xMin="13" yMin="-233" xMax="207" yMax="700">
      <contour>
        <pt x="76" y="-233" on="1"/>
        <pt x="13" y="-233" on="1"/>
        <pt x="62" y="117" on="1"/>
        <pt x="125" y="117" on="1"/>
      </contour>
      <contour>
        <pt x="158" y="350" on="1"/>
        <pt x="95" y="350" on="1"/>
        <pt x="144" y="700" on="1"/>
        <pt x="207" y="700" on="1"/>
      </contour>
    </TTGlyph>
    <TTGlyph name="bullet" xMin="127" yMin="192" xMax="350" yMax="409">
      <contour>
        <pt x="130" y="300" on="1"/>
        <pt x="133" y="323" on="0"/>
        <pt x="156" y="363" on="0"/>
        <pt x="190" y="392" on="0"/>
        <pt x="231" y="409" on="0"/>
        <pt x="254" y="409" on="1"/>
        <pt x="276" y="409" on="0"/>
        <pt x="314" y="392" on="0"/>
        <pt x="339" y="363" on="0"/>
        <pt x="350" y="323" on="0"/>
        <pt x="347" y="300" on="1"/>
        <pt x="344" y="277" on="0"/>
        <pt x="322" y="238" on="0"/>
        <pt x="288" y="209" on="0"/>
        <pt x="246" y="192" on="0"/>
        <pt x="223" y="192" on="1"/>
        <pt x="201" y="192" on="0"/>
        <pt x="164" y="209" on="0"/>
        <pt x="139" y="238" on="0"/>
        <pt x="127" y="277" on="0"/>
      </contour>
    </TTGlyph>
    <TTGlyph name="c" xMin="56" yMin="-8" xMax="407" yMax="384">
      <contour>
        <pt x="331" y="82" on="1"/>
        <pt x="339" y="70" on="0"/>
        <pt x="355" y="46" on="0"/>
        <pt x="363" y="35" on="1"/>
        <pt x="334" y="15" on="0"/>
        <pt x="268" y="-8" on="0"/>
        <pt x="232" y="-8" on="1"/>
        <pt x="191" y="-8" on="0"/>
        <pt x="123" y="23" on="0"/>
        <pt x="77" y="76" on="0"/>
        <pt x="56" y="147" on="0"/>
        <pt x="62" y="188" on="1"/>
        <pt x="68" y="232" on="0"/>
        <pt x="108" y="304" on="0"/>
        <pt x="168" y="356" on="0"/>
        <pt x="245" y="384" on="0"/>
        <pt x="287" y="384" on="1"/>
        <pt x="324" y="384" on="0"/>
        <pt x="384" y="361" on="0"/>
        <pt x="407" y="341" on="1"/>
        <pt x="396" y="329" on="0"/>
        <pt x="373" y="306" on="0"/>
        <pt x="362" y="294" on="1"/>
        <pt x="346" y="308" on="0"/>
        <pt x="304" y="323" on="0"/>
        <pt x="279" y="323" on="1"/>
        <pt x="250" y="323" on="0"/>
        <pt x="197" y="302" on="0"/>
        <pt x="156" y="266" on="0"/>
        <pt x="128" y="216" on="0"/>
        <pt x="124" y="188" on="1"/>
        <pt x="120" y="159" on="0"/>
        <pt x="134" y="110" on="0"/>
        <pt x="165" y="74" on="0"/>
        <pt x="212" y="53" on="0"/>
        <pt x="241" y="53" on="1"/>
        <pt x="267" y="53" on="0"/>
        <pt x="312" y="68" on="0"/>
      </contour>
    </TTGlyph>
    <TTGlyph name="ccedilla" xMin="47" yMin="-241" xMax="397" yMax="384">
      <contour>
        <pt x="322" y="82" on="1"/>
        <pt x="330" y="70" on="0"/>
        <pt x="345" y="46" on="0"/>
        <pt x="353" y="35" on="1"/>
        <pt x="296" y="-6" on="0"/>
        <pt x="225" y="-8" on="1"/>
        <pt x="223" y="-22" on="0"/>
        <pt x="230" y="-39" on="0"/>
        <pt x="240" y="-49" on="0"/>
        <pt x="254" y="-57" on="0"/>
        <pt x="260" y="-61" on="1"/>
        <pt x="279" y="-77" on="0"/>
        <pt x="291" y="-116" on="0"/>
        <pt x="287" y="-138" on="1"/>
        <pt x="282" y="-176" on="0"/>
        <pt x="236" y="-230" on="0"/>
        <pt x="201" y="-238" on="1"/>
        <pt x="192" y="-240" on="0"/>
        <pt x="174" y="-241" on="0"/>
        <pt x="164" y="-240" on="1"/>
        <pt x="136" y="-238" on="0"/>
        <pt x="93" y="-205" on="0"/>
        <pt x="87" y="-172" on="1"/>
        <pt x="126" y="-154" on="1"/>
        <pt x="129" y="-171" on="0"/>
        <pt x="155" y="-194" on="0"/>
        <pt x="176" y="-194" on="1"/>
        <pt x="202" y="-194" on="0"/>
        <pt x="237" y="-160" on="0"/>
        <pt x="241" y="-134" on="1"/>
        <pt x="244" y="-112" on="0"/>
        <pt x="225" y="-86" on="0"/>
        <pt x="200" y="-67" on="0"/>
        <pt x="180" y="-47" on="0"/>
        <pt x="182" y="-29" on="1"/>
        <pt x="186" y="-3" on="1"/>
        <pt x="152" y="3" on="0"/>
        <pt x="98" y="37" on="0"/>
        <pt x="62" y="88" on="0"/>
        <pt x="47" y="152" on="0"/>
        <pt x="52" y="188" on="1"/>
        <pt x="58" y="228" on="0"/>
        <pt x="98" y="300" on="0"/>
        <pt x="160" y="353" on="0"/>
        <pt x="236" y="384" on="0"/>
        <pt x="278" y="384" on="1"/>
        <pt x="314" y="384" on="0"/>
        <pt x="375" y="361" on="0"/>
        <pt x="397" y="341" on="1"/>
        <pt x="386" y="329" on="0"/>
        <pt x="362" y="306" on="0"/>
        <pt x="351" y="294" on="1"/>
        <pt x="335" y="308" on="0"/>
        <pt x="294" y="323" on="0"/>
        <pt x="269" y="323" on="1"/>
        <pt x="240" y="323" on="0"/>
        <pt x="187" y="302" on="0"/>
        <pt x="146" y="266" on="0"/>
        <pt x="119" y="216" on="0"/>
        <pt x="115" y="188" on="1"/>
        <pt x="110" y="159" on="0"/>
        <pt x="124" y="110" on="0"/>
        <pt x="155" y="74" on="0"/>
        <pt x="202" y="53" on="0"/>
        <pt x="231" y="53" on="1"/>
        <pt x="257" y="53" on="0"/>
        <pt x="302" y="68" on="0"/>
      </contour>
    </TTGlyph>
    <TTGlyph name="cedilla" xMin="104" yMin="-242" xMax="308" yMax="0">
      <contour>
        <pt x="203" y="0" on="1"/>
        <pt x="243" y="0" on="1"/>
        <pt x="242" y="-7" on="1"/>
        <pt x="240" y="-21" on="0"/>
        <pt x="246" y="-38" on="0"/>
        <pt x="257" y="-49" on="0"/>
        <pt x="270" y="-57" on="0"/>
        <pt x="276" y="-61" on="1"/>
        <pt x="296" y="-77" on="0"/>
        <pt x="308" y="-116" on="0"/>
        <pt x="304" y="-138" on="1"/>
        <pt x="298" y="-183" on="0"/>
        <pt x="238" y="-242" on="0"/>
        <pt x="191" y="-242" on="1"/>
        <pt x="159" y="-242" on="0"/>
        <pt x="111" y="-207" on="0"/>
        <pt x="104" y="-172" on="1"/>
        <pt x="143" y="-154" on="1"/>
        <pt x="146" y="-171" on="0"/>
        <pt x="172" y="-194" on="0"/>
        <pt x="193" y="-194" on="1"/>
        <pt x="219" y="-194" on="0"/>
        <pt x="254" y="-160" on="0"/>
        <pt x="258" y="-134" on="1"/>
        <pt x="261" y="-112" on="0"/>
        <pt x="241" y="-86" on="0"/>
        <pt x="216" y="-67" on="0"/>
        <pt x="196" y="-47" on="0"/>
        <pt x="199" y="-29" on="1"/>
      </contour>
    </TTGlyph>
    <TTGlyph name="cent" xMin="31" yMin="-68" xMax="381" yMax="438">
      <contour>
        <pt x="98" y="188" on="1"/>
        <pt x="92" y="143" on="0"/>
        <pt x="133" y="74" on="0"/>
        <pt x="172" y="62" on="1"/>
        <pt x="207" y="313" on="1"/>
        <pt x="165" y="301" on="0"/>
        <pt x="104" y="233" on="0"/>
      </contour>
      <contour>
        <pt x="305" y="82" on="1"/>
        <pt x="313" y="70" on="0"/>
        <pt x="329" y="46" on="0"/>
        <pt x="337" y="35" on="1"/>
        <pt x="286" y="-2" on="0"/>
        <pt x="226" y="-7" on="1"/>
        <pt x="217" y="-68" on="1"/>
        <pt x="154" y="-68" on="1"/>
        <pt x="163" y="-2" on="1"/>
        <pt x="131" y="5" on="0"/>
        <pt x="79" y="40" on="0"/>
        <pt x="45" y="90" on="0"/>
        <pt x="31" y="153" on="0"/>
        <pt x="36" y="188" on="1"/>
        <pt x="41" y="222" on="0"/>
        <pt x="73" y="285" on="0"/>
        <pt x="121" y="336" on="0"/>
        <pt x="182" y="371" on="0"/>
        <pt x="216" y="378" on="1"/>
        <pt x="225" y="438" on="1"/>
        <pt x="288" y="438" on="1"/>
        <pt x="280" y="382" on="1"/>
        <pt x="309" y="380" on="0"/>
        <pt x="362" y="358" on="0"/>
        <pt x="381" y="341" on="1"/>
        <pt x="370" y="329" on="0"/>
        <pt x="347" y="306" on="0"/>
        <pt x="336" y="294" on="1"/>
        <pt x="322" y="305" on="0"/>
        <pt x="290" y="319" on="0"/>
        <pt x="271" y="321" on="1"/>
        <pt x="234" y="54" on="1"/>
        <pt x="274" y="59" on="0"/>
      </contour>
    </TTGlyph>
    <TTGlyph name="colon" xMin="22" yMin="0" xMax="146" yMax="335">
      <contour>
        <pt x="60" y="292" on="1"/>
        <pt x="62" y="311" on="0"/>
        <pt x="91" y="335" on="0"/>
        <pt x="108" y="335" on="1"/>
        <pt x="124" y="335" on="0"/>
        <pt x="146" y="311" on="0"/>
        <pt x="144" y="292" on="1"/>
        <pt x="142" y="273" on="0"/>
        <pt x="112" y="250" on="0"/>
        <pt x="96" y="250" on="1"/>
        <pt x="80" y="250" on="0"/>
        <pt x="57" y="273" on="0"/>
      </contour>
      <contour>
        <pt x="25" y="42" on="1"/>
        <pt x="27" y="61" on="0"/>
        <pt x="56" y="85" on="0"/>
        <pt x="73" y="85" on="1"/>
        <pt x="89" y="85" on="0"/>
        <pt x="111" y="61" on="0"/>
        <pt x="109" y="42" on="1"/>
        <pt x="106" y="23" on="0"/>
        <pt x="77" y="0" on="0"/>
        <pt x="61" y="0" on="1"/>
        <pt x="45" y="0" on="0"/>
        <pt x="22" y="23" on="0"/>
      </contour>
    </TTGlyph>
    <TTGlyph name="comma" xMin="-5" yMin="-120" xMax="166" yMax="86">
      <contour>
        <pt x="166" y="86" on="1"/>
        <pt x="137" y="34" on="0"/>
        <pt x="80" y="-68" on="0"/>
        <pt x="51" y="-120" on="1"/>
        <pt x="-5" y="-120" on="1"/>
        <pt x="21" y="-68" on="0"/>
        <pt x="73" y="34" on="0"/>
        <pt x="100" y="86" on="1"/>
      </contour>
    </TTGlyph>
    <TTGlyph name="copyright" xMin="130" yMin="113" xMax="668" yMax="632">
      <contour>
        <pt x="367" y="143" on="1"/>
        <pt x="415" y="143" on="0"/>
        <pt x="503" y="178" on="0"/>
        <pt x="573" y="239" on="0"/>
        <pt x="620" y="323" on="0"/>
        <pt x="627" y="372" on="1"/>
        <pt x="634" y="422" on="0"/>
        <pt x="611" y="506" on="0"/>
        <pt x="558" y="568" on="0"/>
        <pt x="479" y="602" on="0"/>
        <pt x="431" y="602" on="1"/>
        <pt x="383" y="602" on="0"/>
        <pt x="296" y="568" on="0"/>
        <pt x="225" y="506" on="0"/>
        <pt x="178" y="422" on="0"/>
        <pt x="171" y="372" on="1"/>
        <pt x="164" y="323" on="0"/>
        <pt x="188" y="239" on="0"/>
        <pt x="241" y="178" on="0"/>
        <pt x="319" y="143" on="0"/>
      </contour>
      <contour>
        <pt x="363" y="113" on="1"/>
        <pt x="309" y="113" on="0"/>
        <pt x="220" y="152" on="0"/>
        <pt x="158" y="222" on="0"/>
        <pt x="130" y="316" on="0"/>
        <pt x="138" y="372" on="1"/>
        <pt x="146" y="428" on="0"/>
        <pt x="201" y="524" on="0"/>
        <pt x="282" y="593" on="0"/>
        <pt x="382" y="632" on="0"/>
        <pt x="436" y="632" on="1"/>
        <pt x="490" y="632" on="0"/>
        <pt x="579" y="593" on="0"/>
        <pt x="640" y="524" on="0"/>
        <pt x="668" y="428" on="0"/>
        <pt x="660" y="372" on="1"/>
        <pt x="652" y="316" on="0"/>
        <pt x="598" y="222" on="0"/>
        <pt x="517" y="152" on="0"/>
        <pt x="417" y="113" on="0"/>
      </contour>
      <contour>
        <pt x="456" y="259" on="1"/>
        <pt x="469" y="236" on="1"/>
        <pt x="449" y="225" on="0"/>
        <pt x="406" y="213" on="0"/>
        <pt x="383" y="213" on="1"/>
        <pt x="350" y="213" on="0"/>
        <pt x="294" y="239" on="0"/>
        <pt x="257" y="283" on="0"/>
        <pt x="240" y="342" on="0"/>
        <pt x="245" y="375" on="1"/>
        <pt x="249" y="409" on="0"/>
        <pt x="283" y="468" on="0"/>
        <pt x="333" y="512" on="0"/>
        <pt x="396" y="537" on="0"/>
        <pt x="429" y="537" on="1"/>
        <pt x="473" y="537" on="0"/>
        <pt x="508" y="515" on="1"/>
        <pt x="503" y="509" on="0"/>
        <pt x="494" y="497" on="0"/>
        <pt x="489" y="492" on="1"/>
        <pt x="462" y="510" on="0"/>
        <pt x="425" y="510" on="1"/>
        <pt x="398" y="510" on="0"/>
        <pt x="346" y="489" on="0"/>
        <pt x="305" y="452" on="0"/>
        <pt x="277" y="403" on="0"/>
        <pt x="273" y="375" on="1"/>
        <pt x="269" y="347" on="0"/>
        <pt x="283" y="298" on="0"/>
        <pt x="314" y="261" on="0"/>
        <pt x="359" y="240" on="0"/>
        <pt x="386" y="240" on="1"/>
        <pt x="423" y="240" on="0"/>
      </contour>
    </TTGlyph>
    <TTGlyph name="currency" xMin="76" yMin="203" xMax="417" yMax="514">
      <contour>
        <pt x="158" y="360" on="1"/>
        <pt x="153" y="323" on="0"/>
        <pt x="198" y="271" on="0"/>
        <pt x="235" y="271" on="1"/>
        <pt x="253" y="271" on="0"/>
        <pt x="288" y="285" on="0"/>
        <pt x="316" y="309" on="0"/>
        <pt x="335" y="342" on="0"/>
        <pt x="338" y="360" on="1"/>
        <pt x="343" y="398" on="0"/>
        <pt x="298" y="451" on="0"/>
        <pt x="260" y="451" on="1"/>
        <pt x="242" y="451" on="0"/>
        <pt x="208" y="437" on="0"/>
        <pt x="180" y="412" on="0"/>
        <pt x="161" y="379" on="0"/>
      </contour>
      <contour>
        <pt x="95" y="361" on="1"/>
        <pt x="99" y="384" on="0"/>
        <pt x="117" y="424" on="0"/>
        <pt x="131" y="442" on="1"/>
        <pt x="125" y="449" on="0"/>
        <pt x="114" y="462" on="0"/>
        <pt x="107" y="470" on="1"/>
        <pt x="158" y="514" on="1"/>
        <pt x="182" y="486" on="1"/>
        <pt x="202" y="497" on="0"/>
        <pt x="245" y="511" on="0"/>
        <pt x="268" y="511" on="1"/>
        <pt x="314" y="511" on="0"/>
        <pt x="347" y="486" on="1"/>
        <pt x="379" y="514" on="1"/>
        <pt x="417" y="470" on="1"/>
        <pt x="387" y="443" on="1"/>
        <pt x="407" y="406" on="0"/>
        <pt x="401" y="361" on="1"/>
        <pt x="393" y="313" on="0"/>
        <pt x="362" y="277" on="1"/>
        <pt x="387" y="248" on="1"/>
        <pt x="337" y="204" on="1"/>
        <pt x="310" y="234" on="1"/>
        <pt x="272" y="210" on="0"/>
        <pt x="225" y="210" on="1"/>
        <pt x="180" y="210" on="0"/>
        <pt x="148" y="233" on="1"/>
        <pt x="114" y="203" on="1"/>
        <pt x="76" y="247" on="1"/>
        <pt x="109" y="276" on="1"/>
        <pt x="100" y="294" on="0"/>
        <pt x="92" y="337" on="0"/>
      </contour>
    </TTGlyph>
    <TTGlyph name="d" xMin="71" yMin="-8" xMax="553" yMax="750">
      <contour>
        <pt x="140" y="188" on="1"/>
        <pt x="136" y="159" on="0"/>
        <pt x="149" y="110" on="0"/>
        <pt x="181" y="74" on="0"/>
        <pt x="228" y="53" on="0"/>
        <pt x="257" y="53" on="1"/>
        <pt x="286" y="53" on="0"/>
        <pt x="339" y="74" on="0"/>
        <pt x="380" y="110" on="0"/>
        <pt x="408" y="159" on="0"/>
        <pt x="412" y="188" on="1"/>
        <pt x="416" y="216" on="0"/>
        <pt x="402" y="266" on="0"/>
        <pt x="371" y="302" on="0"/>
        <pt x="324" y="323" on="0"/>
        <pt x="294" y="323" on="1"/>
        <pt x="265" y="323" on="0"/>
        <pt x="212" y="302" on="0"/>
        <pt x="171" y="266" on="0"/>
        <pt x="144" y="216" on="0"/>
      </contour>
      <contour>
        <pt x="77" y="188" on="1"/>
        <pt x="83" y="228" on="0"/>
        <pt x="123" y="300" on="0"/>
        <pt x="184" y="353" on="0"/>
        <pt x="261" y="384" on="0"/>
        <pt x="303" y="384" on="1"/>
        <pt x="331" y="384" on="0"/>
        <pt x="378" y="368" on="0"/>
        <pt x="412" y="345" on="0"/>
        <pt x="434" y="319" on="0"/>
        <pt x="436" y="309" on="1"/>
        <pt x="435" y="319" on="0"/>
        <pt x="435" y="337" on="0"/>
        <pt x="434" y="348" on="1"/>
        <pt x="491" y="750" on="1"/>
        <pt x="553" y="750" on="1"/>
        <pt x="448" y="0" on="1"/>
        <pt x="393" y="0" on="1"/>
        <pt x="398" y="39" on="1"/>
        <pt x="399" y="45" on="0"/>
        <pt x="401" y="57" on="0"/>
        <pt x="401" y="64" on="1"/>
        <pt x="396" y="54" on="0"/>
        <pt x="370" y="29" on="0"/>
        <pt x="330" y="7" on="0"/>
        <pt x="278" y="-8" on="0"/>
        <pt x="248" y="-8" on="1"/>
        <pt x="206" y="-8" on="0"/>
        <pt x="138" y="23" on="0"/>
        <pt x="92" y="77" on="0"/>
        <pt x="71" y="148" on="0"/>
      </contour>
    </TTGlyph>
    <TTGlyph name="degree" xMin="38" yMin="467" xMax="233" yMax="653">
      <contour>
        <pt x="130" y="507" on="1"/>
        <pt x="152" y="507" on="0"/>
        <pt x="188" y="537" on="0"/>
        <pt x="190" y="559" on="1"/>
        <pt x="193" y="582" on="0"/>
        <pt x="167" y="612" on="0"/>
        <pt x="145" y="612" on="1"/>
        <pt x="122" y="612" on="0"/>
        <pt x="88" y="582" on="0"/>
        <pt x="85" y="559" on="1"/>
        <pt x="82" y="537" on="0"/>
        <pt x="108" y="507" on="0"/>
      </contour>
      <contour>
        <pt x="43" y="560" on="1"/>
        <pt x="46" y="579" on="0"/>
        <pt x="65" y="613" on="0"/>
        <pt x="94" y="639" on="0"/>
        <pt x="131" y="653" on="0"/>
        <pt x="151" y="653" on="1"/>
        <pt x="170" y="653" on="0"/>
        <pt x="202" y="639" on="0"/>
        <pt x="223" y="613" on="0"/>
        <pt x="233" y="579" on="0"/>
        <pt x="230" y="560" on="1"/>
        <pt x="227" y="540" on="0"/>
        <pt x="208" y="507" on="0"/>
        <pt x="180" y="481" on="0"/>
        <pt x="143" y="467" on="0"/>
        <pt x="124" y="467" on="1"/>
        <pt x="84" y="467" on="0"/>
        <pt x="38" y="521" on="0"/>
      </contour>
    </TTGlyph>
    <TTGlyph name="dieresis" xMin="56" yMin="472" xMax="311" yMax="557">
      <contour>
        <pt x="224" y="514" on="1"/>
        <pt x="227" y="532" on="0"/>
        <pt x="256" y="557" on="0"/>
        <pt x="272" y="557" on="1"/>
        <pt x="288" y="557" on="0"/>
        <pt x="311" y="532" on="0"/>
        <pt x="308" y="514" on="1"/>
        <pt x="306" y="495" on="0"/>
        <pt x="276" y="472" on="0"/>
        <pt x="260" y="472" on="1"/>
        <pt x="244" y="472" on="0"/>
        <pt x="221" y="495" on="0"/>
      </contour>
      <contour>
        <pt x="58" y="514" on="1"/>
        <pt x="61" y="532" on="0"/>
        <pt x="90" y="557" on="0"/>
        <pt x="107" y="557" on="1"/>
        <pt x="123" y="557" on="0"/>
        <pt x="145" y="532" on="0"/>
        <pt x="142" y="514" on="1"/>
        <pt x="140" y="495" on="0"/>
        <pt x="111" y="472" on="0"/>
        <pt x="95" y="472" on="1"/>
        <pt x="78" y="472" on="0"/>
        <pt x="56" y="495" on="0"/>
      </contour>
    </TTGlyph>
    <TTGlyph name="divide" xMin="63" yMin="71" xMax="431" yMax="406">
      <contour>
        <pt x="423" y="207" on="1"/>
        <pt x="63" y="207" on="1"/>
        <pt x="71" y="268" on="1"/>
        <pt x="431" y="268" on="1"/>
      </contour>
      <contour>
        <pt x="226" y="363" on="1"/>
        <pt x="228" y="382" on="0"/>
        <pt x="257" y="406" on="0"/>
        <pt x="274" y="406" on="1"/>
        <pt x="290" y="406" on="0"/>
        <pt x="312" y="382" on="0"/>
        <pt x="310" y="363" on="1"/>
        <pt x="308" y="344" on="0"/>
        <pt x="278" y="321" on="0"/>
        <pt x="262" y="321" on="1"/>
        <pt x="246" y="321" on="0"/>
        <pt x="223" y="344" on="0"/>
      </contour>
      <contour>
        <pt x="191" y="113" on="1"/>
        <pt x="193" y="132" on="0"/>
        <pt x="222" y="156" on="0"/>
        <pt x="239" y="156" on="1"/>
        <pt x="255" y="156" on="0"/>
        <pt x="277" y="132" on="0"/>
        <pt x="275" y="113" on="1"/>
        <pt x="272" y="94" on="0"/>
        <pt x="243" y="71" on="0"/>
        <pt x="227" y="71" on="1"/>
        <pt x="211" y="71" on="0"/>
        <pt x="188" y="94" on="0"/>
      </contour>
    </TTGlyph>
    <TTGlyph name="dollar" xMin="20" yMin="-68" xMax="480" yMax="764">
      <contour>
        <pt x="168" y="519" on="1"/>
        <pt x="162" y="477" on="0"/>
        <pt x="197" y="433" on="0"/>
        <pt x="229" y="419" on="1"/>
        <pt x="234" y="416" on="0"/>
        <pt x="245" y="412" on="0"/>
        <pt x="250" y="410" on="1"/>
        <pt x="283" y="641" on="1"/>
        <pt x="257" y="637" on="0"/>
        <pt x="217" y="614" on="0"/>
        <pt x="189" y="581" on="0"/>
        <pt x="171" y="541" on="0"/>
      </contour>
      <contour>
        <pt x="398" y="186" on="1"/>
        <pt x="402" y="216" on="0"/>
        <pt x="388" y="258" on="0"/>
        <pt x="360" y="290" on="0"/>
        <pt x="321" y="311" on="0"/>
        <pt x="300" y="320" on="1"/>
        <pt x="263" y="56" on="1"/>
        <pt x="313" y="64" on="0"/>
        <pt x="391" y="132" on="0"/>
      </contour>
      <contour>
        <pt x="480" y="636" on="1"/>
        <pt x="469" y="625" on="0"/>
        <pt x="450" y="601" on="0"/>
        <pt x="439" y="590" on="1"/>
        <pt x="426" y="603" on="0"/>
        <pt x="379" y="634" on="0"/>
        <pt x="346" y="640" on="1"/>
        <pt x="310" y="387" on="1"/>
        <pt x="338" y="375" on="0"/>
        <pt x="398" y="343" on="0"/>
        <pt x="443" y="297" on="0"/>
        <pt x="467" y="232" on="0"/>
        <pt x="461" y="187" on="1"/>
        <pt x="455" y="146" on="0"/>
        <pt x="417" y="79" on="0"/>
        <pt x="362" y="29" on="0"/>
        <pt x="292" y="-2" on="0"/>
        <pt x="254" y="-6" on="1"/>
        <pt x="246" y="-68" on="1"/>
        <pt x="183" y="-68" on="1"/>
        <pt x="191" y="-5" on="1"/>
        <pt x="158" y="-1" on="0"/>
        <pt x="103" y="21" on="0"/>
        <pt x="60" y="50" on="0"/>
        <pt x="29" y="83" on="0"/>
        <pt x="20" y="98" on="1"/>
        <pt x="66" y="138" on="1"/>
        <pt x="86" y="112" on="0"/>
        <pt x="152" y="61" on="0"/>
        <pt x="200" y="54" on="1"/>
        <pt x="240" y="343" on="1"/>
        <pt x="237" y="345" on="0"/>
        <pt x="226" y="349" on="0"/>
        <pt x="221" y="352" on="1"/>
        <pt x="203" y="359" on="0"/>
        <pt x="159" y="383" on="0"/>
        <pt x="122" y="421" on="0"/>
        <pt x="100" y="477" on="0"/>
        <pt x="105" y="517" on="1"/>
        <pt x="108" y="547" on="0"/>
        <pt x="133" y="609" on="0"/>
        <pt x="178" y="661" on="0"/>
        <pt x="246" y="697" on="0"/>
        <pt x="291" y="702" on="1"/>
        <pt x="300" y="764" on="1"/>
        <pt x="363" y="764" on="1"/>
        <pt x="354" y="701" on="1"/>
        <pt x="385" y="696" on="0"/>
        <pt x="447" y="668" on="0"/>
      </contour>
    </TTGlyph>
    <TTGlyph name="e" xMin="56" yMin="-8" xMax="440" yMax="384">
      <contour>
        <pt x="279" y="323" on="1"/>
        <pt x="227" y="323" on="0"/>
        <pt x="148" y="266" on="0"/>
        <pt x="133" y="218" on="1"/>
        <pt x="129" y="208" on="0"/>
        <pt x="126" y="188" on="0"/>
        <pt x="125" y="178" on="1"/>
        <pt x="185" y="200" on="0"/>
        <pt x="305" y="243" on="0"/>
        <pt x="365" y="265" on="1"/>
        <pt x="353" y="291" on="0"/>
        <pt x="308" y="323" on="0"/>
      </contour>
      <contour>
        <pt x="440" y="230" on="1"/>
        <pt x="363" y="202" on="0"/>
        <pt x="210" y="147" on="0"/>
        <pt x="134" y="119" on="1"/>
        <pt x="146" y="89" on="0"/>
        <pt x="203" y="53" on="0"/>
        <pt x="241" y="53" on="1"/>
        <pt x="268" y="53" on="0"/>
        <pt x="317" y="73" on="0"/>
        <pt x="337" y="90" on="1"/>
        <pt x="345" y="79" on="0"/>
        <pt x="361" y="56" on="0"/>
        <pt x="369" y="45" on="1"/>
        <pt x="340" y="20" on="0"/>
        <pt x="270" y="-8" on="0"/>
        <pt x="232" y="-8" on="1"/>
        <pt x="191" y="-8" on="0"/>
        <pt x="123" y="23" on="0"/>
        <pt x="77" y="76" on="0"/>
        <pt x="56" y="147" on="0"/>
        <pt x="62" y="188" on="1"/>
        <pt x="68" y="233" on="0"/>
        <pt x="107" y="306" on="0"/>
        <pt x="167" y="357" on="0"/>
        <pt x="244" y="384" on="0"/>
        <pt x="287" y="384" on="1"/>
        <pt x="349" y="384" on="0"/>
        <pt x="431" y="297" on="0"/>
      </contour>
    </TTGlyph>
    <TTGlyph name="eacute" xMin="56" yMin="-8" xMax="445" yMax="612">
      <component glyphName="e" x="0" y="0" flags="0x204"/>
      <component glyphName="acute" x="182" y="0" flags="0x4"/>
    </TTGlyph>
    <TTGlyph name="ecircumflex" xMin="56" yMin="-8" xMax="440" yMax="660">
      <component glyphName="e" x="0" y="0" flags="0x204"/>
      <component glyphName="asciicircum" x="80" y="0" flags="0x4"/>
    </TTGlyph>
    <TTGlyph name="edieresis" xMin="56" yMin="-8" xMax="440" yMax="557">
      <component glyphName="e" x="0" y="0" flags="0x204"/>
      <component glyphName="dieresis" x="111" y="0" flags="0x4"/>
    </TTGlyph>
    <TTGlyph name="egrave" xMin="56" yMin="-8" xMax="440" yMax="612">
      <component glyphName="e" x="0" y="0" flags="0x204"/>
      <component glyphName="grave" x="201" y="0" flags="0x4"/>
    </TTGlyph>
    <TTGlyph name="eight" xMin="17" yMin="-8" xMax="460" yMax="658">
      <contour>
        <pt x="187" y="502" on="1"/>
        <pt x="182" y="465" on="0"/>
        <pt x="228" y="416" on="0"/>
        <pt x="266" y="416" on="1"/>
        <pt x="305" y="416" on="0"/>
        <pt x="365" y="465" on="0"/>
        <pt x="370" y="502" on="1"/>
        <pt x="373" y="521" on="0"/>
        <pt x="364" y="556" on="0"/>
        <pt x="343" y="582" on="0"/>
        <pt x="311" y="597" on="0"/>
        <pt x="292" y="597" on="1"/>
        <pt x="273" y="597" on="0"/>
        <pt x="237" y="582" on="0"/>
        <pt x="209" y="556" on="0"/>
        <pt x="190" y="521" on="0"/>
      </contour>
      <contour>
        <pt x="88" y="205" on="1"/>
        <pt x="84" y="174" on="0"/>
        <pt x="99" y="119" on="0"/>
        <pt x="133" y="77" on="0"/>
        <pt x="183" y="53" on="0"/>
        <pt x="214" y="53" on="1"/>
        <pt x="245" y="53" on="0"/>
        <pt x="305" y="77" on="0"/>
        <pt x="352" y="119" on="0"/>
        <pt x="384" y="174" on="0"/>
        <pt x="388" y="205" on="1"/>
        <pt x="392" y="235" on="0"/>
        <pt x="377" y="289" on="0"/>
        <pt x="342" y="329" on="0"/>
        <pt x="291" y="353" on="0"/>
        <pt x="260" y="354" on="1"/>
        <pt x="228" y="354" on="0"/>
        <pt x="169" y="330" on="0"/>
        <pt x="123" y="290" on="0"/>
        <pt x="92" y="236" on="0"/>
      </contour>
      <contour>
        <pt x="23" y="205" on="1"/>
        <pt x="32" y="267" on="0"/>
        <pt x="111" y="365" on="0"/>
        <pt x="166" y="390" on="1"/>
        <pt x="142" y="409" on="0"/>
        <pt x="119" y="468" on="0"/>
        <pt x="124" y="504" on="1"/>
        <pt x="128" y="536" on="0"/>
        <pt x="160" y="592" on="0"/>
        <pt x="208" y="634" on="0"/>
        <pt x="267" y="658" on="0"/>
        <pt x="299" y="658" on="1"/>
        <pt x="331" y="658" on="0"/>
        <pt x="384" y="633" on="0"/>
        <pt x="420" y="591" on="0"/>
        <pt x="436" y="535" on="0"/>
        <pt x="432" y="503" on="1"/>
        <pt x="427" y="468" on="0"/>
        <pt x="387" y="409" on="0"/>
        <pt x="358" y="390" on="1"/>
        <pt x="407" y="365" on="0"/>
        <pt x="460" y="267" on="0"/>
        <pt x="451" y="205" on="1"/>
        <pt x="445" y="161" on="0"/>
        <pt x="399" y="84" on="0"/>
        <pt x="333" y="26" on="0"/>
        <pt x="250" y="-8" on="0"/>
        <pt x="207" y="-8" on="1"/>
        <pt x="163" y="-8" on="0"/>
        <pt x="90" y="26" on="0"/>
        <pt x="40" y="84" on="0"/>
        <pt x="17" y="161" on="0"/>
      </contour>
    </TTGlyph>
    <TTGlyph name="emdash" xMin="94" yMin="175" xMax="604" yMax="236">
      <contour>
        <pt x="94" y="175" on="1"/>
        <pt x="102" y="236" on="1"/>
        <pt x="604" y="236" on="1"/>
        <pt x="596" y="175" on="1"/>
      </contour>
    </TTGlyph>
    <TTGlyph name="endash" xMin="95" yMin="175" xMax="404" yMax="236">
      <contour>
        <pt x="95" y="175" on="1"/>
        <pt x="103" y="236" on="1"/>
        <pt x="404" y="236" on="1"/>
        <pt x="396" y="175" on="1"/>
      </contour>
    </TTGlyph>
    <TTGlyph name="equal" xMin="81" yMin="123" xMax="623" yMax="378">
      <contour>
        <pt x="596" y="184" on="1"/>
        <pt x="587" y="123" on="1"/>
        <pt x="81" y="123" on="1"/>
        <pt x="90" y="184" on="1"/>
      </contour>
      <contour>
        <pt x="623" y="378" on="1"/>
        <pt x="614" y="317" on="1"/>
        <pt x="108" y="317" on="1"/>
        <pt x="117" y="378" on="1"/>
      </contour>
    </TTGlyph>
    <TTGlyph name="eth" xMin="25" yMin="-7" xMax="432" yMax="734">
      <contour>
        <pt x="90" y="188" on="1"/>
        <pt x="86" y="159" on="0"/>
        <pt x="100" y="110" on="0"/>
        <pt x="132" y="74" on="0"/>
        <pt x="180" y="54" on="0"/>
        <pt x="209" y="55" on="1"/>
        <pt x="239" y="55" on="0"/>
        <pt x="291" y="77" on="0"/>
        <pt x="332" y="114" on="0"/>
        <pt x="359" y="164" on="0"/>
        <pt x="363" y="192" on="1"/>
        <pt x="366" y="221" on="0"/>
        <pt x="351" y="270" on="0"/>
        <pt x="319" y="306" on="0"/>
        <pt x="272" y="325" on="0"/>
        <pt x="243" y="325" on="1"/>
        <pt x="213" y="324" on="0"/>
        <pt x="161" y="303" on="0"/>
        <pt x="120" y="266" on="0"/>
        <pt x="93" y="216" on="0"/>
      </contour>
      <contour>
        <pt x="159" y="536" on="1"/>
        <pt x="177" y="553" on="0"/>
        <pt x="213" y="585" on="0"/>
        <pt x="230" y="602" on="1"/>
        <pt x="194" y="652" on="0"/>
        <pt x="151" y="693" on="1"/>
        <pt x="176" y="715" on="0"/>
        <pt x="201" y="734" on="1"/>
        <pt x="222" y="716" on="0"/>
        <pt x="262" y="673" on="0"/>
        <pt x="281" y="650" on="1"/>
        <pt x="296" y="664" on="0"/>
        <pt x="327" y="693" on="0"/>
        <pt x="341" y="708" on="1"/>
        <pt x="379" y="670" on="1"/>
        <pt x="362" y="653" on="0"/>
        <pt x="328" y="622" on="0"/>
        <pt x="311" y="605" on="1"/>
        <pt x="339" y="562" on="0"/>
        <pt x="387" y="461" on="0"/>
        <pt x="419" y="353" on="0"/>
        <pt x="432" y="245" on="0"/>
        <pt x="425" y="194" on="1"/>
        <pt x="420" y="153" on="0"/>
        <pt x="382" y="82" on="0"/>
        <pt x="323" y="28" on="0"/>
        <pt x="248" y="-5" on="0"/>
        <pt x="206" y="-6" on="1"/>
        <pt x="165" y="-7" on="0"/>
        <pt x="96" y="23" on="0"/>
        <pt x="48" y="75" on="0"/>
        <pt x="25" y="145" on="0"/>
        <pt x="30" y="186" on="1"/>
        <pt x="35" y="226" on="0"/>
        <pt x="75" y="298" on="0"/>
        <pt x="135" y="352" on="0"/>
        <pt x="211" y="384" on="0"/>
        <pt x="253" y="385" on="1"/>
        <pt x="280" y="386" on="0"/>
        <pt x="325" y="368" on="0"/>
        <pt x="342" y="353" on="1"/>
        <pt x="335" y="398" on="0"/>
        <pt x="296" y="502" on="0"/>
        <pt x="261" y="556" on="1"/>
        <pt x="245" y="541" on="0"/>
        <pt x="213" y="511" on="0"/>
        <pt x="196" y="496" on="1"/>
        <pt x="187" y="507" on="0"/>
        <pt x="168" y="525" on="0"/>
      </contour>
    </TTGlyph>
    <TTGlyph name="exclam" xMin="9" yMin="11" xMax="181" yMax="750">
      <contour>
        <pt x="47" y="11" on="1"/>
        <pt x="30" y="11" on="0"/>
        <pt x="9" y="35" on="0"/>
        <pt x="10" y="54" on="1"/>
        <pt x="13" y="73" on="0"/>
        <pt x="43" y="96" on="0"/>
        <pt x="59" y="96" on="1"/>
        <pt x="75" y="96" on="0"/>
        <pt x="96" y="73" on="0"/>
        <pt x="94" y="54" on="1"/>
        <pt x="92" y="35" on="0"/>
        <pt x="62" y="11" on="0"/>
        <pt x="47" y="11" on="1"/>
      </contour>
      <contour>
        <pt x="119" y="750" on="1"/>
        <pt x="181" y="750" on="1"/>
        <pt x="99" y="166" on="1"/>
        <pt x="37" y="166" on="1"/>
      </contour>
    </TTGlyph>
    <TTGlyph name="exclamdown" xMin="15" yMin="-210" xMax="189" yMax="529">
      <contour>
        <pt x="150" y="529" on="1"/>
        <pt x="166" y="529" on="0"/>
        <pt x="189" y="505" on="0"/>
        <pt x="186" y="486" on="1"/>
        <pt x="184" y="467" on="0"/>
        <pt x="154" y="444" on="0"/>
        <pt x="138" y="444" on="1"/>
        <pt x="122" y="444" on="0"/>
        <pt x="100" y="467" on="0"/>
        <pt x="102" y="486" on="1"/>
        <pt x="106" y="505" on="0"/>
        <pt x="134" y="529" on="0"/>
      </contour>
      <contour>
        <pt x="97" y="374" on="1"/>
        <pt x="159" y="374" on="1"/>
        <pt x="77" y="-210" on="1"/>
        <pt x="15" y="-210" on="1"/>
      </contour>
    </TTGlyph>
    <TTGlyph name="f" xMin="66" yMin="0" xMax="415" yMax="751">
      <contour>
        <pt x="66" y="319" on="1"/>
        <pt x="75" y="380" on="1"/>
        <pt x="139" y="380" on="1"/>
        <pt x="158" y="517" on="1"/>
        <pt x="166" y="573" on="0"/>
        <pt x="212" y="659" on="0"/>
        <pt x="281" y="718" on="0"/>
        <pt x="367" y="749" on="0"/>
        <pt x="415" y="751" on="1"/>
        <pt x="407" y="691" on="1"/>
        <pt x="372" y="690" on="0"/>
        <pt x="310" y="665" on="0"/>
        <pt x="260" y="620" on="0"/>
        <pt x="227" y="556" on="0"/>
        <pt x="221" y="516" on="1"/>
        <pt x="201" y="380" on="1"/>
        <pt x="322" y="380" on="1"/>
        <pt x="314" y="319" on="1"/>
        <pt x="193" y="319" on="1"/>
        <pt x="149" y="0" on="1"/>
        <pt x="86" y="0" on="1"/>
        <pt x="131" y="319" on="1"/>
      </contour>
    </TTGlyph>
    <TTGlyph name="five" xMin="68" yMin="-8" xMax="476" yMax="650">
      <contour>
        <pt x="140" y="307" on="1"/>
        <pt x="189" y="650" on="1"/>
        <pt x="476" y="650" on="1"/>
        <pt x="467" y="589" on="1"/>
        <pt x="243" y="589" on="1"/>
        <pt x="218" y="407" on="1"/>
        <pt x="242" y="415" on="0"/>
        <pt x="266" y="415" on="1"/>
        <pt x="310" y="415" on="0"/>
        <pt x="383" y="382" on="0"/>
        <pt x="434" y="325" on="0"/>
        <pt x="458" y="249" on="0"/>
        <pt x="452" y="205" on="1"/>
        <pt x="446" y="161" on="0"/>
        <pt x="400" y="84" on="0"/>
        <pt x="333" y="26" on="0"/>
        <pt x="250" y="-8" on="0"/>
        <pt x="207" y="-8" on="1"/>
        <pt x="164" y="-8" on="0"/>
        <pt x="93" y="23" on="0"/>
        <pt x="68" y="51" on="1"/>
        <pt x="82" y="62" on="0"/>
        <pt x="107" y="83" on="0"/>
        <pt x="120" y="94" on="1"/>
        <pt x="156" y="53" on="0"/>
        <pt x="215" y="53" on="1"/>
        <pt x="246" y="53" on="0"/>
        <pt x="305" y="77" on="0"/>
        <pt x="353" y="119" on="0"/>
        <pt x="384" y="174" on="0"/>
        <pt x="389" y="205" on="1"/>
        <pt x="393" y="236" on="0"/>
        <pt x="377" y="290" on="0"/>
        <pt x="341" y="330" on="0"/>
        <pt x="288" y="354" on="0"/>
        <pt x="257" y="354" on="1"/>
        <pt x="222" y="354" on="0"/>
        <pt x="161" y="331" on="0"/>
      </contour>
    </TTGlyph>
    <TTGlyph name="four" xMin="16" yMin="0" xMax="487" yMax="658">
      <contour>
        <pt x="360" y="474" on="1"/>
        <pt x="307" y="416" on="0"/>
        <pt x="203" y="302" on="0"/>
        <pt x="151" y="244" on="1"/>
        <pt x="327" y="244" on="1"/>
      </contour>
      <contour>
        <pt x="16" y="183" on="1"/>
        <pt x="125" y="302" on="0"/>
        <pt x="340" y="539" on="0"/>
        <pt x="449" y="658" on="1"/>
        <pt x="390" y="244" on="1"/>
        <pt x="487" y="244" on="1"/>
        <pt x="479" y="183" on="1"/>
        <pt x="382" y="183" on="1"/>
        <pt x="356" y="0" on="1"/>
        <pt x="293" y="0" on="1"/>
        <pt x="319" y="183" on="1"/>
      </contour>
    </TTGlyph>
    <TTGlyph name="g" xMin="68" yMin="-250" xMax="498" yMax="384">
      <contour>
        <pt x="138" y="188" on="1"/>
        <pt x="134" y="159" on="0"/>
        <pt x="147" y="110" on="0"/>
        <pt x="179" y="74" on="0"/>
        <pt x="226" y="53" on="0"/>
        <pt x="255" y="53" on="1"/>
        <pt x="284" y="53" on="0"/>
        <pt x="337" y="74" on="0"/>
        <pt x="379" y="110" on="0"/>
        <pt x="406" y="159" on="0"/>
        <pt x="410" y="188" on="1"/>
        <pt x="414" y="216" on="0"/>
        <pt x="401" y="266" on="0"/>
        <pt x="369" y="302" on="0"/>
        <pt x="322" y="323" on="0"/>
        <pt x="293" y="323" on="1"/>
        <pt x="263" y="323" on="0"/>
        <pt x="210" y="302" on="0"/>
        <pt x="169" y="266" on="0"/>
        <pt x="142" y="216" on="0"/>
      </contour>
      <contour>
        <pt x="447" y="375" on="1"/>
        <pt x="498" y="375" on="1"/>
        <pt x="443" y="-17" on="1"/>
        <pt x="439" y="-47" on="1"/>
        <pt x="433" y="-92" on="0"/>
        <pt x="392" y="-166" on="0"/>
        <pt x="332" y="-220" on="0"/>
        <pt x="257" y="-250" on="0"/>
        <pt x="216" y="-250" on="1"/>
        <pt x="172" y="-249" on="0"/>
        <pt x="94" y="-215" on="0"/>
        <pt x="68" y="-190" on="1"/>
        <pt x="80" y="-177" on="0"/>
        <pt x="105" y="-153" on="0"/>
        <pt x="117" y="-140" on="1"/>
        <pt x="136" y="-160" on="0"/>
        <pt x="191" y="-186" on="0"/>
        <pt x="223" y="-186" on="1"/>
        <pt x="251" y="-186" on="0"/>
        <pt x="304" y="-164" on="0"/>
        <pt x="345" y="-125" on="0"/>
        <pt x="373" y="-72" on="0"/>
        <pt x="378" y="-40" on="1"/>
        <pt x="388" y="30" on="1"/>
        <pt x="390" y="38" on="0"/>
        <pt x="396" y="54" on="0"/>
        <pt x="399" y="62" on="1"/>
        <pt x="392" y="51" on="0"/>
        <pt x="364" y="27" on="0"/>
        <pt x="325" y="6" on="0"/>
        <pt x="275" y="-7" on="0"/>
        <pt x="246" y="-7" on="1"/>
        <pt x="204" y="-7" on="0"/>
        <pt x="136" y="24" on="0"/>
        <pt x="90" y="77" on="0"/>
        <pt x="69" y="147" on="0"/>
        <pt x="75" y="187" on="1"/>
        <pt x="81" y="231" on="0"/>
        <pt x="121" y="303" on="0"/>
        <pt x="182" y="355" on="0"/>
        <pt x="259" y="384" on="0"/>
        <pt x="301" y="384" on="1"/>
        <pt x="329" y="384" on="0"/>
        <pt x="376" y="368" on="0"/>
        <pt x="410" y="344" on="0"/>
        <pt x="432" y="318" on="0"/>
        <pt x="434" y="308" on="1"/>
        <pt x="436" y="324" on="0"/>
        <pt x="445" y="358" on="0"/>
      </contour>
    </TTGlyph>
    <TTGlyph name="germandbls" xMin="18" yMin="-9" xMax="488" yMax="657">
      <contour>
        <pt x="146" y="13" on="1"/>
        <pt x="154" y="27" on="0"/>
        <pt x="171" y="54" on="0"/>
        <pt x="179" y="68" on="1"/>
        <pt x="209" y="52" on="0"/>
        <pt x="243" y="52" on="1"/>
        <pt x="274" y="52" on="0"/>
        <pt x="333" y="76" on="0"/>
        <pt x="381" y="118" on="0"/>
        <pt x="413" y="173" on="0"/>
        <pt x="417" y="204" on="1"/>
        <pt x="421" y="235" on="0"/>
        <pt x="405" y="289" on="0"/>
        <pt x="369" y="330" on="0"/>
        <pt x="316" y="354" on="0"/>
        <pt x="285" y="354" on="1"/>
        <pt x="284" y="354" on="1"/>
        <pt x="286" y="361" on="0"/>
        <pt x="287" y="376" on="0"/>
        <pt x="288" y="384" on="1"/>
        <pt x="292" y="415" on="1"/>
        <pt x="331" y="415" on="0"/>
        <pt x="393" y="462" on="0"/>
        <pt x="399" y="501" on="1"/>
        <pt x="402" y="520" on="0"/>
        <pt x="393" y="554" on="0"/>
        <pt x="372" y="581" on="0"/>
        <pt x="340" y="596" on="0"/>
        <pt x="321" y="596" on="1"/>
        <pt x="291" y="595" on="0"/>
        <pt x="236" y="571" on="0"/>
        <pt x="191" y="526" on="0"/>
        <pt x="161" y="462" on="0"/>
        <pt x="155" y="422" on="1"/>
        <pt x="96" y="0" on="1"/>
        <pt x="34" y="0" on="1"/>
        <pt x="82" y="345" on="1"/>
        <pt x="18" y="345" on="1"/>
        <pt x="26" y="406" on="1"/>
        <pt x="91" y="406" on="1"/>
        <pt x="93" y="424" on="1"/>
        <pt x="101" y="479" on="0"/>
        <pt x="146" y="565" on="0"/>
        <pt x="210" y="625" on="0"/>
        <pt x="288" y="657" on="0"/>
        <pt x="328" y="657" on="1"/>
        <pt x="360" y="657" on="0"/>
        <pt x="413" y="632" on="0"/>
        <pt x="449" y="590" on="0"/>
        <pt x="465" y="534" on="0"/>
        <pt x="461" y="502" on="1"/>
        <pt x="456" y="467" on="0"/>
        <pt x="416" y="408" on="0"/>
        <pt x="387" y="390" on="1"/>
        <pt x="435" y="365" on="0"/>
        <pt x="488" y="266" on="0"/>
        <pt x="479" y="204" on="1"/>
        <pt x="473" y="160" on="0"/>
        <pt x="428" y="83" on="0"/>
        <pt x="362" y="25" on="0"/>
        <pt x="279" y="-9" on="0"/>
        <pt x="235" y="-9" on="1"/>
        <pt x="187" y="-9" on="0"/>
      </contour>
    </TTGlyph>
    <TTGlyph name="grave" xMin="-30" yMin="479" xMax="104" yMax="612">
      <contour>
        <pt x="33" y="612" on="1"/>
        <pt x="51" y="579" on="0"/>
        <pt x="86" y="512" on="0"/>
        <pt x="104" y="479" on="1"/>
        <pt x="58" y="479" on="1"/>
        <pt x="35" y="512" on="0"/>
        <pt x="-8" y="579" on="0"/>
        <pt x="-30" y="612" on="1"/>
      </contour>
    </TTGlyph>
    <TTGlyph name="greater" xMin="80" yMin="-14" xMax="553" yMax="490">
      <contour>
        <pt x="80" y="-14" on="1"/>
        <pt x="91" y="70" on="1"/>
        <pt x="170" y="112" on="0"/>
        <pt x="328" y="196" on="0"/>
        <pt x="408" y="238" on="1"/>
        <pt x="340" y="280" on="0"/>
        <pt x="206" y="364" on="0"/>
        <pt x="139" y="406" on="1"/>
        <pt x="151" y="490" on="1"/>
        <pt x="252" y="427" on="0"/>
        <pt x="451" y="301" on="0"/>
        <pt x="553" y="238" on="1"/>
        <pt x="434" y="175" on="0"/>
        <pt x="199" y="49" on="0"/>
      </contour>
    </TTGlyph>
    <TTGlyph name="guillemotleft" xMin="117" yMin="77" xMax="481" yMax="400">
      <contour>
        <pt x="436" y="77" on="1"/>
        <pt x="288" y="239" on="1"/>
        <pt x="336" y="280" on="0"/>
        <pt x="433" y="359" on="0"/>
        <pt x="481" y="400" on="1"/>
        <pt x="471" y="329" on="1"/>
        <pt x="446" y="306" on="0"/>
        <pt x="396" y="262" on="0"/>
        <pt x="371" y="239" on="1"/>
        <pt x="389" y="216" on="0"/>
        <pt x="426" y="171" on="0"/>
        <pt x="446" y="148" on="1"/>
      </contour>
      <contour>
        <pt x="265" y="77" on="1"/>
        <pt x="117" y="239" on="1"/>
        <pt x="165" y="280" on="0"/>
        <pt x="262" y="359" on="0"/>
        <pt x="310" y="400" on="1"/>
        <pt x="300" y="328" on="1"/>
        <pt x="275" y="306" on="0"/>
        <pt x="225" y="262" on="0"/>
        <pt x="200" y="239" on="1"/>
        <pt x="218" y="216" on="0"/>
        <pt x="255" y="171" on="0"/>
        <pt x="275" y="148" on="1"/>
      </contour>
    </TTGlyph>
    <TTGlyph name="guillemotright" xMin="94" yMin="77" xMax="459" yMax="400">
      <contour>
        <pt x="104" y="148" on="1"/>
        <pt x="129" y="171" on="0"/>
        <pt x="179" y="216" on="0"/>
        <pt x="205" y="239" on="1"/>
        <pt x="185" y="262" on="0"/>
        <pt x="149" y="306" on="0"/>
        <pt x="129" y="329" on="1"/>
        <pt x="139" y="400" on="1"/>
        <pt x="177" y="359" on="0"/>
        <pt x="250" y="280" on="0"/>
        <pt x="288" y="239" on="1"/>
        <pt x="94" y="77" on="1"/>
      </contour>
      <contour>
        <pt x="275" y="148" on="1"/>
        <pt x="300" y="171" on="0"/>
        <pt x="350" y="216" on="0"/>
        <pt x="376" y="239" on="1"/>
        <pt x="356" y="262" on="0"/>
        <pt x="320" y="306" on="0"/>
        <pt x="300" y="328" on="1"/>
        <pt x="310" y="400" on="1"/>
        <pt x="348" y="359" on="0"/>
        <pt x="421" y="280" on="0"/>
        <pt x="459" y="239" on="1"/>
        <pt x="265" y="77" on="1"/>
      </contour>
    </TTGlyph>
    <TTGlyph name="guilsinglleft" xMin="117" yMin="77" xMax="310" yMax="400">
      <contour>
        <pt x="265" y="77" on="1"/>
        <pt x="117" y="239" on="1"/>
        <pt x="165" y="280" on="0"/>
        <pt x="262" y="359" on="0"/>
        <pt x="310" y="400" on="1"/>
        <pt x="300" y="328" on="1"/>
        <pt x="275" y="306" on="0"/>
        <pt x="225" y="262" on="0"/>
        <pt x="200" y="239" on="1"/>
        <pt x="218" y="216" on="0"/>
        <pt x="255" y="171" on="0"/>
        <pt x="275" y="148" on="1"/>
      </contour>
    </TTGlyph>
    <TTGlyph name="guilsinglright" xMin="94" yMin="77" xMax="288" yMax="400">
      <contour>
        <pt x="104" y="148" on="1"/>
        <pt x="129" y="171" on="0"/>
        <pt x="179" y="216" on="0"/>
        <pt x="205" y="239" on="1"/>
        <pt x="185" y="262" on="0"/>
        <pt x="149" y="306" on="0"/>
        <pt x="129" y="328" on="1"/>
        <pt x="139" y="400" on="1"/>
        <pt x="177" y="359" on="0"/>
        <pt x="250" y="280" on="0"/>
        <pt x="288" y="239" on="1"/>
        <pt x="94" y="77" on="1"/>
      </contour>
    </TTGlyph>
    <TTGlyph name="h" xMin="92" yMin="0" xMax="483" yMax="750">
      <contour>
        <pt x="197" y="750" on="1"/>
        <pt x="260" y="750" on="1"/>
        <pt x="200" y="323" on="1"/>
        <pt x="190" y="278" on="1"/>
        <pt x="219" y="326" on="0"/>
        <pt x="311" y="381" on="0"/>
        <pt x="368" y="383" on="1"/>
        <pt x="425" y="383" on="0"/>
        <pt x="483" y="321" on="0"/>
        <pt x="478" y="271" on="1"/>
        <pt x="440" y="0" on="1"/>
        <pt x="378" y="0" on="1"/>
        <pt x="412" y="247" on="1"/>
        <pt x="415" y="276" on="0"/>
        <pt x="382" y="320" on="0"/>
        <pt x="342" y="322" on="1"/>
        <pt x="314" y="322" on="0"/>
        <pt x="260" y="302" on="0"/>
        <pt x="215" y="268" on="0"/>
        <pt x="185" y="221" on="0"/>
        <pt x="181" y="193" on="1"/>
        <pt x="155" y="0" on="1"/>
        <pt x="92" y="0" on="1"/>
      </contour>
    </TTGlyph>
    <TTGlyph name="hyphen" xMin="48" yMin="158" xMax="240" yMax="219">
      <contour>
        <pt x="48" y="158" on="1"/>
        <pt x="56" y="219" on="1"/>
        <pt x="240" y="219" on="1"/>
        <pt x="232" y="158" on="1"/>
      </contour>
    </TTGlyph>
    <TTGlyph name="i" xMin="66" yMin="0" xMax="214" yMax="557">
      <contour>
        <pt x="128" y="514" on="1"/>
        <pt x="130" y="532" on="0"/>
        <pt x="160" y="557" on="0"/>
        <pt x="176" y="557" on="1"/>
        <pt x="192" y="557" on="0"/>
        <pt x="214" y="532" on="0"/>
        <pt x="212" y="514" on="1"/>
        <pt x="209" y="495" on="0"/>
        <pt x="180" y="472" on="0"/>
        <pt x="164" y="472" on="1"/>
        <pt x="148" y="472" on="0"/>
        <pt x="125" y="495" on="0"/>
      </contour>
      <contour>
        <pt x="129" y="0" on="1"/>
        <pt x="66" y="0" on="1"/>
        <pt x="118" y="375" on="1"/>
        <pt x="181" y="375" on="1"/>
      </contour>
    </TTGlyph>
    <TTGlyph name="iacute" xMin="64" yMin="0" xMax="311" yMax="612">
      <contour>
        <pt x="127" y="0" on="1"/>
        <pt x="64" y="0" on="1"/>
        <pt x="116" y="375" on="1"/>
        <pt x="179" y="375" on="1"/>
      </contour>
      <contour>
        <pt x="138" y="479" on="1"/>
        <pt x="165" y="512" on="0"/>
        <pt x="220" y="579" on="0"/>
        <pt x="247" y="612" on="1"/>
        <pt x="311" y="612" on="1"/>
        <pt x="279" y="579" on="0"/>
        <pt x="216" y="512" on="0"/>
        <pt x="184" y="479" on="1"/>
      </contour>
    </TTGlyph>
    <TTGlyph name="icircumflex" xMin="56" yMin="0" xMax="296" yMax="660">
      <contour>
        <pt x="147" y="0" on="1"/>
        <pt x="85" y="0" on="1"/>
        <pt x="137" y="375" on="1"/>
        <pt x="199" y="375" on="1"/>
      </contour>
      <contour>
        <pt x="201" y="660" on="1"/>
        <pt x="225" y="615" on="0"/>
        <pt x="272" y="524" on="0"/>
        <pt x="296" y="479" on="1"/>
        <pt x="250" y="479" on="1"/>
        <pt x="235" y="503" on="0"/>
        <pt x="205" y="551" on="0"/>
        <pt x="189" y="576" on="1"/>
        <pt x="168" y="551" on="0"/>
        <pt x="124" y="503" on="0"/>
        <pt x="102" y="479" on="1"/>
        <pt x="56" y="479" on="1"/>
        <pt x="92" y="524" on="0"/>
        <pt x="165" y="615" on="0"/>
      </contour>
    </TTGlyph>
    <TTGlyph name="idieresis" xMin="78" yMin="0" xMax="333" yMax="557">
      <contour>
        <pt x="173" y="0" on="1"/>
        <pt x="111" y="0" on="1"/>
        <pt x="163" y="375" on="1"/>
        <pt x="225" y="375" on="1"/>
      </contour>
      <contour>
        <pt x="246" y="514" on="1"/>
        <pt x="249" y="532" on="0"/>
        <pt x="278" y="557" on="0"/>
        <pt x="294" y="557" on="1"/>
        <pt x="310" y="557" on="0"/>
        <pt x="333" y="532" on="0"/>
        <pt x="330" y="514" on="1"/>
        <pt x="328" y="495" on="0"/>
        <pt x="298" y="472" on="0"/>
        <pt x="282" y="472" on="1"/>
        <pt x="266" y="472" on="0"/>
        <pt x="243" y="495" on="0"/>
      </contour>
      <contour>
        <pt x="80" y="514" on="1"/>
        <pt x="83" y="532" on="0"/>
        <pt x="112" y="557" on="0"/>
        <pt x="129" y="557" on="1"/>
        <pt x="145" y="557" on="0"/>
        <pt x="167" y="532" on="0"/>
        <pt x="164" y="514" on="1"/>
        <pt x="162" y="495" on="0"/>
        <pt x="133" y="472" on="0"/>
        <pt x="117" y="472" on="1"/>
        <pt x="100" y="472" on="0"/>
        <pt x="78" y="495" on="0"/>
      </contour>
    </TTGlyph>
    <TTGlyph name="igrave" xMin="44" yMin="0" xMax="181" yMax="612">
      <contour>
        <pt x="129" y="0" on="1"/>
        <pt x="66" y="0" on="1"/>
        <pt x="118" y="375" on="1"/>
        <pt x="181" y="375" on="1"/>
      </contour>
      <contour>
        <pt x="107" y="612" on="1"/>
        <pt x="125" y="579" on="0"/>
        <pt x="160" y="512" on="0"/>
        <pt x="178" y="479" on="1"/>
        <pt x="132" y="479" on="1"/>
        <pt x="109" y="512" on="0"/>
        <pt x="66" y="579" on="0"/>
        <pt x="44" y="612" on="1"/>
      </contour>
    </TTGlyph>
    <TTGlyph name="j" xMin="12" yMin="-181" xMax="235" yMax="557">
      <contour>
        <pt x="149" y="514" on="1"/>
        <pt x="151" y="532" on="0"/>
        <pt x="181" y="557" on="0"/>
        <pt x="197" y="557" on="1"/>
        <pt x="213" y="557" on="0"/>
        <pt x="235" y="532" on="0"/>
        <pt x="233" y="514" on="1"/>
        <pt x="230" y="495" on="0"/>
        <pt x="201" y="472" on="0"/>
        <pt x="185" y="472" on="1"/>
        <pt x="168" y="472" on="0"/>
        <pt x="146" y="495" on="0"/>
      </contour>
      <contour>
        <pt x="49" y="-181" on="1"/>
        <pt x="40" y="-169" on="0"/>
        <pt x="21" y="-146" on="0"/>
        <pt x="12" y="-135" on="1"/>
        <pt x="41" y="-112" on="0"/>
        <pt x="79" y="-46" on="0"/>
        <pt x="85" y="-1" on="1"/>
        <pt x="138" y="376" on="1"/>
        <pt x="154" y="376" on="0"/>
        <pt x="184" y="375" on="0"/>
        <pt x="200" y="375" on="1"/>
        <pt x="148" y="-2" on="1"/>
        <pt x="139" y="-62" on="0"/>
        <pt x="87" y="-152" on="0"/>
      </contour>
    </TTGlyph>
    <TTGlyph name="k" xMin="68" yMin="0" xMax="412" yMax="750">
      <contour>
        <pt x="380" y="384" on="1"/>
        <pt x="388" y="375" on="0"/>
        <pt x="404" y="356" on="0"/>
        <pt x="412" y="347" on="1"/>
        <pt x="372" y="314" on="0"/>
        <pt x="301" y="253" on="0"/>
        <pt x="261" y="220" on="1"/>
        <pt x="294" y="165" on="0"/>
        <pt x="358" y="55" on="0"/>
        <pt x="391" y="0" on="1"/>
        <pt x="319" y="0" on="1"/>
        <pt x="292" y="45" on="0"/>
        <pt x="238" y="134" on="0"/>
        <pt x="211" y="179" on="1"/>
        <pt x="195" y="166" on="0"/>
        <pt x="164" y="140" on="0"/>
        <pt x="147" y="126" on="1"/>
        <pt x="130" y="0" on="1"/>
        <pt x="68" y="0" on="1"/>
        <pt x="173" y="750" on="1"/>
        <pt x="235" y="750" on="1"/>
        <pt x="157" y="200" on="1"/>
        <pt x="215" y="248" on="0"/>
        <pt x="323" y="336" on="0"/>
      </contour>
    </TTGlyph>
    <TTGlyph name="l" xMin="66" yMin="0" xMax="234" yMax="750">
      <contour>
        <pt x="129" y="0" on="1"/>
        <pt x="66" y="0" on="1"/>
        <pt x="171" y="750" on="1"/>
        <pt x="234" y="750" on="1"/>
      </contour>
    </TTGlyph>
    <TTGlyph name="less" xMin="116" yMin="-14" xMax="588" yMax="490">
      <contour>
        <pt x="529" y="70" on="1"/>
        <pt x="517" y="-14" on="1"/>
        <pt x="416" y="49" on="0"/>
        <pt x="217" y="175" on="0"/>
        <pt x="116" y="238" on="1"/>
        <pt x="234" y="301" on="0"/>
        <pt x="469" y="427" on="0"/>
        <pt x="588" y="490" on="1"/>
        <pt x="576" y="406" on="1"/>
        <pt x="498" y="364" on="0"/>
        <pt x="339" y="280" on="0"/>
        <pt x="261" y="238" on="1"/>
        <pt x="327" y="196" on="0"/>
        <pt x="461" y="112" on="0"/>
      </contour>
    </TTGlyph>
    <TTGlyph name="logicalnot" xMin="100" yMin="148" xMax="467" yMax="246">
      <contour>
        <pt x="389" y="148" on="1"/>
        <pt x="397" y="200" on="1"/>
        <pt x="100" y="200" on="1"/>
        <pt x="107" y="246" on="1"/>
        <pt x="467" y="246" on="1"/>
        <pt x="452" y="148" on="1"/>
      </contour>
    </TTGlyph>
    <TTGlyph name="m" xMin="92" yMin="0" xMax="769" yMax="383">
      <contour>
        <pt x="144" y="375" on="1"/>
        <pt x="200" y="375" on="1"/>
        <pt x="197" y="353" on="1"/>
        <pt x="195" y="333" on="0"/>
        <pt x="192" y="298" on="0"/>
        <pt x="190" y="278" on="1"/>
        <pt x="218" y="326" on="0"/>
        <pt x="311" y="382" on="0"/>
        <pt x="368" y="383" on="1"/>
        <pt x="422" y="383" on="0"/>
        <pt x="479" y="328" on="0"/>
        <pt x="478" y="283" on="1"/>
        <pt x="507" y="329" on="0"/>
        <pt x="599" y="382" on="0"/>
        <pt x="654" y="383" on="1"/>
        <pt x="711" y="383" on="0"/>
        <pt x="769" y="321" on="0"/>
        <pt x="764" y="271" on="1"/>
        <pt x="726" y="0" on="1"/>
        <pt x="664" y="0" on="1"/>
        <pt x="698" y="247" on="1"/>
        <pt x="700" y="276" on="0"/>
        <pt x="668" y="320" on="0"/>
        <pt x="628" y="322" on="1"/>
        <pt x="600" y="322" on="0"/>
        <pt x="546" y="303" on="0"/>
        <pt x="502" y="269" on="0"/>
        <pt x="471" y="222" on="0"/>
        <pt x="467" y="195" on="1"/>
        <pt x="440" y="0" on="1"/>
        <pt x="378" y="0" on="1"/>
        <pt x="412" y="247" on="1"/>
        <pt x="415" y="276" on="0"/>
        <pt x="382" y="320" on="0"/>
        <pt x="342" y="322" on="1"/>
        <pt x="314" y="322" on="0"/>
        <pt x="260" y="302" on="0"/>
        <pt x="215" y="268" on="0"/>
        <pt x="185" y="221" on="0"/>
        <pt x="181" y="193" on="1"/>
        <pt x="155" y="0" on="1"/>
        <pt x="92" y="0" on="1"/>
      </contour>
    </TTGlyph>
    <TTGlyph name="macron" xMin="82" yMin="482" xMax="317" yMax="523">
      <contour>
        <pt x="82" y="482" on="1"/>
        <pt x="87" y="523" on="1"/>
        <pt x="317" y="523" on="1"/>
        <pt x="312" y="482" on="1"/>
      </contour>
    </TTGlyph>
    <TTGlyph name="mu" xMin="51" yMin="-201" xMax="480" yMax="375">
      <contour>
        <pt x="427" y="-6" on="1"/>
        <pt x="364" y="-6" on="1"/>
        <pt x="372" y="52" on="1"/>
        <pt x="382" y="97" on="1"/>
        <pt x="354" y="49" on="0"/>
        <pt x="260" y="-7" on="0"/>
        <pt x="204" y="-8" on="1"/>
        <pt x="163" y="-8" on="0"/>
        <pt x="144" y="13" on="1"/>
        <pt x="114" y="-201" on="1"/>
        <pt x="51" y="-201" on="1"/>
        <pt x="132" y="375" on="1"/>
        <pt x="195" y="375" on="1"/>
        <pt x="160" y="128" on="1"/>
        <pt x="157" y="98" on="0"/>
        <pt x="191" y="55" on="0"/>
        <pt x="231" y="53" on="1"/>
        <pt x="259" y="53" on="0"/>
        <pt x="313" y="72" on="0"/>
        <pt x="357" y="107" on="0"/>
        <pt x="387" y="154" on="0"/>
        <pt x="391" y="182" on="1"/>
        <pt x="418" y="375" on="1"/>
        <pt x="480" y="375" on="1"/>
      </contour>
    </TTGlyph>
    <TTGlyph name="multiply" xMin="101" yMin="0" xMax="428" yMax="299">
      <contour>
        <pt x="348" y="0" on="1"/>
        <pt x="325" y="26" on="0"/>
        <pt x="280" y="79" on="0"/>
        <pt x="257" y="105" on="1"/>
        <pt x="228" y="79" on="0"/>
        <pt x="168" y="27" on="0"/>
        <pt x="138" y="1" on="1"/>
        <pt x="129" y="12" on="0"/>
        <pt x="110" y="33" on="0"/>
        <pt x="101" y="44" on="1"/>
        <pt x="131" y="70" on="0"/>
        <pt x="190" y="123" on="0"/>
        <pt x="220" y="149" on="1"/>
        <pt x="130" y="255" on="1"/>
        <pt x="181" y="299" on="1"/>
        <pt x="271" y="193" on="1"/>
        <pt x="301" y="220" on="0"/>
        <pt x="361" y="272" on="0"/>
        <pt x="391" y="299" on="1"/>
        <pt x="401" y="288" on="0"/>
        <pt x="419" y="266" on="0"/>
        <pt x="428" y="255" on="1"/>
        <pt x="399" y="229" on="0"/>
        <pt x="338" y="176" on="0"/>
        <pt x="309" y="150" on="1"/>
        <pt x="332" y="124" on="0"/>
        <pt x="376" y="71" on="0"/>
        <pt x="399" y="44" on="1"/>
      </contour>
    </TTGlyph>
    <TTGlyph name="n" xMin="92" yMin="0" xMax="483" yMax="383">
      <contour>
        <pt x="144" y="375" on="1"/>
        <pt x="200" y="375" on="1"/>
        <pt x="197" y="353" on="1"/>
        <pt x="195" y="333" on="0"/>
        <pt x="192" y="298" on="0"/>
        <pt x="190" y="278" on="1"/>
        <pt x="217" y="326" on="0"/>
        <pt x="313" y="383" on="0"/>
        <pt x="368" y="383" on="1"/>
        <pt x="425" y="383" on="0"/>
        <pt x="483" y="321" on="0"/>
        <pt x="478" y="271" on="1"/>
        <pt x="440" y="0" on="1"/>
        <pt x="378" y="0" on="1"/>
        <pt x="412" y="247" on="1"/>
        <pt x="415" y="276" on="0"/>
        <pt x="382" y="320" on="0"/>
        <pt x="342" y="322" on="1"/>
        <pt x="314" y="322" on="0"/>
        <pt x="260" y="302" on="0"/>
        <pt x="215" y="268" on="0"/>
        <pt x="185" y="221" on="0"/>
        <pt x="181" y="193" on="1"/>
        <pt x="155" y="0" on="1"/>
        <pt x="92" y="0" on="1"/>
      </contour>
    </TTGlyph>
    <TTGlyph name="nine" xMin="43" yMin="-9" xMax="483" yMax="635">
      <contour>
        <pt x="413" y="423" on="1"/>
        <pt x="417" y="454" on="0"/>
        <pt x="402" y="509" on="0"/>
        <pt x="367" y="550" on="0"/>
        <pt x="316" y="574" on="0"/>
        <pt x="285" y="574" on="1"/>
        <pt x="254" y="574" on="0"/>
        <pt x="195" y="550" on="0"/>
        <pt x="148" y="509" on="0"/>
        <pt x="116" y="454" on="0"/>
        <pt x="112" y="423" on="1"/>
        <pt x="107" y="392" on="0"/>
        <pt x="124" y="337" on="0"/>
        <pt x="160" y="297" on="0"/>
        <pt x="212" y="273" on="0"/>
        <pt x="243" y="273" on="1"/>
        <pt x="274" y="273" on="0"/>
        <pt x="332" y="297" on="0"/>
        <pt x="378" y="337" on="0"/>
        <pt x="409" y="392" on="0"/>
      </contour>
      <contour>
        <pt x="477" y="423" on="1"/>
        <pt x="467" y="353" on="0"/>
        <pt x="387" y="230" on="0"/>
        <pt x="275" y="123" on="0"/>
        <pt x="145" y="30" on="0"/>
        <pt x="85" y="-9" on="1"/>
        <pt x="77" y="3" on="0"/>
        <pt x="60" y="28" on="0"/>
        <pt x="52" y="40" on="1"/>
        <pt x="146" y="97" on="0"/>
        <pt x="266" y="197" on="0"/>
        <pt x="301" y="237" on="1"/>
        <pt x="273" y="212" on="0"/>
        <pt x="234" y="212" on="1"/>
        <pt x="190" y="212" on="0"/>
        <pt x="117" y="245" on="0"/>
        <pt x="66" y="302" on="0"/>
        <pt x="43" y="379" on="0"/>
        <pt x="49" y="423" on="1"/>
        <pt x="55" y="466" on="0"/>
        <pt x="101" y="544" on="0"/>
        <pt x="167" y="601" on="0"/>
        <pt x="250" y="635" on="0"/>
        <pt x="294" y="635" on="1"/>
        <pt x="338" y="635" on="0"/>
        <pt x="411" y="601" on="0"/>
        <pt x="461" y="544" on="0"/>
        <pt x="483" y="466" on="0"/>
      </contour>
    </TTGlyph>
    <TTGlyph name="ntilde" xMin="92" yMin="0" xMax="506" yMax="541">
      <component glyphName="n" x="0" y="0" flags="0x4"/>
      <component glyphName="asciitilde" x="70" y="-8" flags="0x4"/>
    </TTGlyph>
    <TTGlyph name="numbersign" xMin="9" yMin="0" xMax="530" yMax="643">
      <contour>
        <pt x="218" y="382" on="1"/>
        <pt x="210" y="351" on="0"/>
        <pt x="195" y="291" on="0"/>
        <pt x="187" y="260" on="1"/>
        <pt x="308" y="260" on="1"/>
        <pt x="316" y="291" on="0"/>
        <pt x="331" y="351" on="0"/>
        <pt x="339" y="382" on="1"/>
      </contour>
      <contour>
        <pt x="240" y="0" on="1"/>
        <pt x="267" y="101" on="0"/>
        <pt x="292" y="199" on="1"/>
        <pt x="171" y="199" on="1"/>
        <pt x="146" y="101" on="0"/>
        <pt x="119" y="0" on="1"/>
        <pt x="56" y="0" on="1"/>
        <pt x="83" y="101" on="0"/>
        <pt x="108" y="199" on="1"/>
        <pt x="9" y="199" on="1"/>
        <pt x="13" y="214" on="0"/>
        <pt x="20" y="245" on="0"/>
        <pt x="24" y="260" on="1"/>
        <pt x="124" y="260" on="1"/>
        <pt x="132" y="291" on="0"/>
        <pt x="147" y="351" on="0"/>
        <pt x="155" y="382" on="1"/>
        <pt x="57" y="382" on="1"/>
        <pt x="61" y="397" on="0"/>
        <pt x="68" y="427" on="0"/>
        <pt x="72" y="443" on="1"/>
        <pt x="171" y="443" on="1"/>
        <pt x="185" y="494" on="0"/>
        <pt x="211" y="592" on="0"/>
        <pt x="224" y="643" on="1"/>
        <pt x="287" y="643" on="1"/>
        <pt x="274" y="592" on="0"/>
        <pt x="248" y="494" on="0"/>
        <pt x="234" y="443" on="1"/>
        <pt x="355" y="443" on="1"/>
        <pt x="369" y="494" on="0"/>
        <pt x="395" y="592" on="0"/>
        <pt x="408" y="643" on="1"/>
        <pt x="471" y="643" on="1"/>
        <pt x="458" y="592" on="0"/>
        <pt x="432" y="494" on="0"/>
        <pt x="418" y="443" on="1"/>
        <pt x="530" y="443" on="1"/>
        <pt x="526" y="427" on="0"/>
        <pt x="520" y="397" on="0"/>
        <pt x="516" y="382" on="1"/>
        <pt x="402" y="382" on="1"/>
        <pt x="394" y="351" on="0"/>
        <pt x="379" y="291" on="0"/>
        <pt x="371" y="260" on="1"/>
        <pt x="483" y="260" on="1"/>
        <pt x="479" y="245" on="0"/>
        <pt x="472" y="214" on="0"/>
        <pt x="467" y="199" on="1"/>
        <pt x="355" y="199" on="1"/>
        <pt x="330" y="101" on="0"/>
        <pt x="303" y="0" on="1"/>
      </contour>
    </TTGlyph>
    <TTGlyph name="o" xMin="56" yMin="-8" xMax="466" yMax="384">
      <contour>
        <pt x="62" y="188" on="1"/>
        <pt x="68" y="234" on="0"/>
        <pt x="108" y="307" on="0"/>
        <pt x="168" y="357" on="0"/>
        <pt x="245" y="384" on="0"/>
        <pt x="287" y="384" on="1"/>
        <pt x="329" y="384" on="0"/>
        <pt x="398" y="353" on="0"/>
        <pt x="444" y="300" on="0"/>
        <pt x="466" y="228" on="0"/>
        <pt x="460" y="188" on="1"/>
        <pt x="454" y="143" on="0"/>
        <pt x="413" y="71" on="0"/>
        <pt x="352" y="20" on="0"/>
        <pt x="274" y="-8" on="0"/>
        <pt x="232" y="-8" on="1"/>
        <pt x="191" y="-8" on="0"/>
        <pt x="123" y="23" on="0"/>
        <pt x="77" y="76" on="0"/>
        <pt x="56" y="147" on="0"/>
      </contour>
      <contour>
        <pt x="124" y="187" on="1"/>
        <pt x="120" y="159" on="0"/>
        <pt x="134" y="110" on="0"/>
        <pt x="166" y="74" on="0"/>
        <pt x="212" y="53" on="0"/>
        <pt x="240" y="53" on="1"/>
        <pt x="268" y="53" on="0"/>
        <pt x="320" y="73" on="0"/>
        <pt x="362" y="109" on="0"/>
        <pt x="390" y="158" on="0"/>
        <pt x="394" y="187" on="1"/>
        <pt x="398" y="215" on="0"/>
        <pt x="384" y="265" on="0"/>
        <pt x="352" y="302" on="0"/>
        <pt x="305" y="323" on="0"/>
        <pt x="277" y="323" on="1"/>
        <pt x="248" y="323" on="0"/>
        <pt x="197" y="302" on="0"/>
        <pt x="156" y="266" on="0"/>
        <pt x="128" y="216" on="0"/>
      </contour>
    </TTGlyph>
    <TTGlyph name="oacute" xMin="56" yMin="-8" xMax="467" yMax="612">
      <component glyphName="o" x="0" y="0" flags="0x4"/>
      <component glyphName="acute" x="204" y="0" flags="0x4"/>
    </TTGlyph>
    <TTGlyph name="ocircumflex" xMin="56" yMin="-8" xMax="466" yMax="660">
      <component glyphName="o" x="0" y="0" flags="0x4"/>
      <component glyphName="asciicircum" x="75" y="0" flags="0x4"/>
    </TTGlyph>
    <TTGlyph name="odieresis" xMin="56" yMin="-8" xMax="466" yMax="557">
      <component glyphName="o" x="0" y="0" flags="0x4"/>
      <component glyphName="dieresis" x="111" y="0" flags="0x4"/>
    </TTGlyph>
    <TTGlyph name="ograve" xMin="56" yMin="-8" xMax="466" yMax="612">
      <component glyphName="o" x="0" y="0" flags="0x4"/>
      <component glyphName="grave" x="212" y="0" flags="0x4"/>
    </TTGlyph>
    <TTGlyph name="one" xMin="69" yMin="0" xMax="223" yMax="650">
      <contour>
        <pt x="71" y="589" on="1"/>
        <pt x="79" y="650" on="1"/>
        <pt x="223" y="650" on="1"/>
        <pt x="132" y="0" on="1"/>
        <pt x="69" y="0" on="1"/>
        <pt x="152" y="589" on="1"/>
      </contour>
    </TTGlyph>
    <TTGlyph name="onehalf" xMin="145" yMin="-19" xMax="853" yMax="736">
      <component glyphName="one" x="97" y="234" scalex="0.709899902344" scaley="0.709716796875" flags="0x4"/>
      <component glyphName="two" x="523" y="0" scalex="0.707885742188" scaley="0.708801269531" flags="0x4"/>
      <component glyphName="slash" x="251" y="0" scalex="1.0" scaley="0.999572753906" flags="0x4"/>
    </TTGlyph>
    <TTGlyph name="onequarter" xMin="150" yMin="-19" xMax="836" yMax="736">
      <component glyphName="slash" x="251" y="0" scalex="1.0" scaley="0.999572753906" flags="0x4"/>
      <component glyphName="four" x="474" y="0" scalex="0.742980957031" scaley="0.744689941406" flags="0x4"/>
      <component glyphName="one" x="102" y="234" scalex="0.709533691406" scaley="0.709594726562" flags="0x4"/>
    </TTGlyph>
    <TTGlyph name="onesuperior" xMin="77" yMin="401" xMax="149" yMax="700">
      <component glyphName="one" x="46" y="401" scalex="0.459594726562" scaley="0.460021972656" flags="0x4"/>
    </TTGlyph>
    <TTGlyph name="ordfeminine" xMin="107" yMin="300" xMax="418" yMax="583">
      <component glyphName="a" x="58" y="306" scalex="0.721374511719" scaley="0.721252441406" flags="0x4"/>
    </TTGlyph>
    <TTGlyph name="ordmasculine" xMin="105" yMin="300" xMax="402" yMax="583">
      <component glyphName="o" x="65" y="306" scale="0.721252441406" flags="0x4"/>
    </TTGlyph>
    <TTGlyph name="oslash" xMin="18" yMin="-21" xMax="439" yMax="396">
      <contour>
        <pt x="98" y="188" on="1"/>
        <pt x="94" y="164" on="0"/>
        <pt x="103" y="122" on="0"/>
        <pt x="114" y="105" on="1"/>
        <pt x="165" y="156" on="0"/>
        <pt x="263" y="256" on="0"/>
        <pt x="314" y="307" on="1"/>
        <pt x="287" y="323" on="0"/>
        <pt x="253" y="323" on="1"/>
        <pt x="224" y="323" on="0"/>
        <pt x="171" y="302" on="0"/>
        <pt x="130" y="266" on="0"/>
        <pt x="102" y="216" on="0"/>
      </contour>
      <contour>
        <pt x="214" y="53" on="1"/>
        <pt x="244" y="53" on="0"/>
        <pt x="297" y="74" on="0"/>
        <pt x="338" y="110" on="0"/>
        <pt x="366" y="159" on="0"/>
        <pt x="370" y="188" on="1"/>
        <pt x="374" y="215" on="0"/>
        <pt x="361" y="262" on="0"/>
        <pt x="347" y="279" on="1"/>
        <pt x="296" y="228" on="0"/>
        <pt x="194" y="126" on="0"/>
        <pt x="143" y="74" on="1"/>
        <pt x="157" y="64" on="0"/>
        <pt x="193" y="53" on="0"/>
      </contour>
      <contour>
        <pt x="36" y="188" on="1"/>
        <pt x="42" y="228" on="0"/>
        <pt x="82" y="300" on="0"/>
        <pt x="143" y="353" on="0"/>
        <pt x="220" y="384" on="0"/>
        <pt x="261" y="384" on="1"/>
        <pt x="290" y="384" on="0"/>
        <pt x="341" y="368" on="0"/>
        <pt x="361" y="354" on="1"/>
        <pt x="371" y="365" on="0"/>
        <pt x="393" y="385" on="0"/>
        <pt x="403" y="396" on="1"/>
        <pt x="411" y="388" on="0"/>
        <pt x="425" y="373" on="0"/>
        <pt x="433" y="365" on="1"/>
        <pt x="423" y="355" on="0"/>
        <pt x="403" y="336" on="0"/>
        <pt x="394" y="326" on="1"/>
        <pt x="417" y="300" on="0"/>
        <pt x="439" y="229" on="0"/>
        <pt x="433" y="188" on="1"/>
        <pt x="427" y="147" on="0"/>
        <pt x="386" y="76" on="0"/>
        <pt x="325" y="23" on="0"/>
        <pt x="248" y="-8" on="0"/>
        <pt x="206" y="-8" on="1"/>
        <pt x="142" y="-8" on="0"/>
        <pt x="97" y="28" on="1"/>
        <pt x="85" y="16" on="0"/>
        <pt x="61" y="-9" on="0"/>
        <pt x="49" y="-21" on="1"/>
        <pt x="41" y="-13" on="0"/>
        <pt x="26" y="0" on="0"/>
        <pt x="18" y="8" on="1"/>
        <pt x="30" y="21" on="0"/>
        <pt x="55" y="45" on="0"/>
        <pt x="67" y="57" on="1"/>
        <pt x="47" y="83" on="0"/>
        <pt x="31" y="150" on="0"/>
      </contour>
    </TTGlyph>
    <TTGlyph name="otilde" xMin="56" yMin="-8" xMax="466" yMax="549">
      <component glyphName="o" x="0" y="0" flags="0x4"/>
      <component glyphName="asciitilde" x="17" y="0" flags="0x4"/>
    </TTGlyph>
    <TTGlyph name="p" xMin="31" yMin="-250" xMax="496" yMax="383">
      <contour>
        <pt x="427" y="188" on="1"/>
        <pt x="431" y="216" on="0"/>
        <pt x="418" y="265" on="0"/>
        <pt x="386" y="301" on="0"/>
        <pt x="339" y="322" on="0"/>
        <pt x="310" y="322" on="1"/>
        <pt x="281" y="322" on="0"/>
        <pt x="228" y="301" on="0"/>
        <pt x="187" y="265" on="0"/>
        <pt x="159" y="216" on="0"/>
        <pt x="155" y="188" on="1"/>
        <pt x="151" y="159" on="0"/>
        <pt x="165" y="110" on="0"/>
        <pt x="196" y="73" on="0"/>
        <pt x="243" y="52" on="0"/>
        <pt x="272" y="52" on="1"/>
        <pt x="302" y="52" on="0"/>
        <pt x="355" y="73" on="0"/>
        <pt x="396" y="110" on="0"/>
        <pt x="423" y="159" on="0"/>
      </contour>
      <contour>
        <pt x="490" y="188" on="1"/>
        <pt x="484" y="144" on="0"/>
        <pt x="444" y="72" on="0"/>
        <pt x="382" y="20" on="0"/>
        <pt x="305" y="-9" on="0"/>
        <pt x="263" y="-9" on="1"/>
        <pt x="233" y="-9" on="0"/>
        <pt x="186" y="7" on="0"/>
        <pt x="152" y="29" on="0"/>
        <pt x="133" y="53" on="0"/>
        <pt x="131" y="63" on="1"/>
        <pt x="131" y="55" on="0"/>
        <pt x="133" y="40" on="0"/>
        <pt x="133" y="32" on="1"/>
        <pt x="94" y="-250" on="1"/>
        <pt x="31" y="-250" on="1"/>
        <pt x="119" y="375" on="1"/>
        <pt x="171" y="375" on="1"/>
        <pt x="169" y="358" on="0"/>
        <pt x="167" y="324" on="0"/>
        <pt x="165" y="307" on="1"/>
        <pt x="170" y="317" on="0"/>
        <pt x="198" y="343" on="0"/>
        <pt x="239" y="367" on="0"/>
        <pt x="290" y="383" on="0"/>
        <pt x="318" y="383" on="1"/>
        <pt x="360" y="383" on="0"/>
        <pt x="428" y="352" on="0"/>
        <pt x="475" y="299" on="0"/>
        <pt x="496" y="228" on="0"/>
      </contour>
    </TTGlyph>
    <TTGlyph name="paragraph" xMin="62" yMin="0" xMax="478" yMax="750">
      <contour>
        <pt x="210" y="0" on="1"/>
        <pt x="148" y="0" on="1"/>
        <pt x="207" y="423" on="1"/>
        <pt x="173" y="423" on="0"/>
        <pt x="117" y="448" on="0"/>
        <pt x="79" y="492" on="0"/>
        <pt x="62" y="552" on="0"/>
        <pt x="67" y="586" on="1"/>
        <pt x="72" y="620" on="0"/>
        <pt x="106" y="680" on="0"/>
        <pt x="156" y="724" on="0"/>
        <pt x="219" y="750" on="0"/>
        <pt x="253" y="750" on="1"/>
        <pt x="478" y="750" on="1"/>
        <pt x="373" y="0" on="1"/>
        <pt x="311" y="0" on="1"/>
        <pt x="408" y="689" on="1"/>
        <pt x="307" y="689" on="1"/>
      </contour>
    </TTGlyph>
    <TTGlyph name="parenleft" xMin="114" yMin="-164" xMax="402" yMax="746">
      <contour>
        <pt x="125" y="291" on="1"/>
        <pt x="135" y="366" on="0"/>
        <pt x="182" y="502" on="0"/>
        <pt x="245" y="618" on="0"/>
        <pt x="317" y="713" on="0"/>
        <pt x="353" y="746" on="1"/>
        <pt x="365" y="740" on="0"/>
        <pt x="389" y="729" on="0"/>
        <pt x="402" y="723" on="1"/>
        <pt x="369" y="690" on="0"/>
        <pt x="301" y="600" on="0"/>
        <pt x="242" y="490" on="0"/>
        <pt x="198" y="362" on="0"/>
        <pt x="188" y="291" on="1"/>
        <pt x="178" y="220" on="0"/>
        <pt x="186" y="92" on="0"/>
        <pt x="214" y="-18" on="0"/>
        <pt x="257" y="-108" on="0"/>
        <pt x="281" y="-141" on="1"/>
        <pt x="267" y="-147" on="0"/>
        <pt x="240" y="-158" on="0"/>
        <pt x="226" y="-164" on="1"/>
        <pt x="199" y="-131" on="0"/>
        <pt x="153" y="-36" on="0"/>
        <pt x="123" y="80" on="0"/>
        <pt x="114" y="216" on="0"/>
      </contour>
    </TTGlyph>
    <TTGlyph name="parenright" xMin="24" yMin="-166" xMax="312" yMax="744">
      <contour>
        <pt x="302" y="289" on="1"/>
        <pt x="291" y="214" on="0"/>
        <pt x="244" y="78" on="0"/>
        <pt x="181" y="-38" on="0"/>
        <pt x="109" y="-133" on="0"/>
        <pt x="73" y="-166" on="1"/>
        <pt x="61" y="-161" on="0"/>
        <pt x="36" y="-150" on="0"/>
        <pt x="24" y="-144" on="1"/>
        <pt x="57" y="-111" on="0"/>
        <pt x="125" y="-21" on="0"/>
        <pt x="184" y="89" on="0"/>
        <pt x="228" y="217" on="0"/>
        <pt x="238" y="288" on="1"/>
        <pt x="248" y="359" on="0"/>
        <pt x="240" y="487" on="0"/>
        <pt x="212" y="597" on="0"/>
        <pt x="169" y="687" on="0"/>
        <pt x="145" y="720" on="1"/>
        <pt x="159" y="726" on="0"/>
        <pt x="186" y="738" on="0"/>
        <pt x="200" y="744" on="1"/>
        <pt x="227" y="711" on="0"/>
        <pt x="273" y="616" on="0"/>
        <pt x="303" y="500" on="0"/>
        <pt x="312" y="364" on="0"/>
      </contour>
    </TTGlyph>
    <TTGlyph name="percent" xMin="111" yMin="-10" xMax="628" yMax="510">
      <contour>
        <pt x="442" y="111" on="1"/>
        <pt x="438" y="85" on="0"/>
        <pt x="468" y="51" on="0"/>
        <pt x="494" y="51" on="1"/>
        <pt x="520" y="51" on="0"/>
        <pt x="558" y="85" on="0"/>
        <pt x="562" y="111" on="1"/>
        <pt x="565" y="137" on="0"/>
        <pt x="536" y="171" on="0"/>
        <pt x="510" y="171" on="1"/>
        <pt x="484" y="171" on="0"/>
        <pt x="446" y="137" on="0"/>
      </contour>
      <contour>
        <pt x="485" y="-10" on="1"/>
        <pt x="460" y="-10" on="0"/>
        <pt x="418" y="9" on="0"/>
        <pt x="389" y="42" on="0"/>
        <pt x="376" y="86" on="0"/>
        <pt x="379" y="112" on="1"/>
        <pt x="383" y="137" on="0"/>
        <pt x="409" y="181" on="0"/>
        <pt x="447" y="213" on="0"/>
        <pt x="494" y="232" on="0"/>
        <pt x="519" y="232" on="1"/>
        <pt x="544" y="232" on="0"/>
        <pt x="586" y="213" on="0"/>
        <pt x="615" y="181" on="0"/>
        <pt x="628" y="137" on="0"/>
        <pt x="625" y="112" on="1"/>
        <pt x="621" y="86" on="0"/>
        <pt x="595" y="42" on="0"/>
        <pt x="557" y="9" on="0"/>
        <pt x="510" y="-10" on="0"/>
      </contour>
      <contour>
        <pt x="177" y="389" on="1"/>
        <pt x="173" y="363" on="0"/>
        <pt x="203" y="328" on="0"/>
        <pt x="229" y="328" on="1"/>
        <pt x="255" y="328" on="0"/>
        <pt x="293" y="363" on="0"/>
        <pt x="297" y="389" on="1"/>
        <pt x="300" y="414" on="0"/>
        <pt x="271" y="449" on="0"/>
        <pt x="245" y="449" on="1"/>
        <pt x="219" y="449" on="0"/>
        <pt x="181" y="414" on="0"/>
      </contour>
      <contour>
        <pt x="220" y="267" on="1"/>
        <pt x="195" y="267" on="0"/>
        <pt x="153" y="286" on="0"/>
        <pt x="124" y="319" on="0"/>
        <pt x="111" y="363" on="0"/>
        <pt x="114" y="389" on="1"/>
        <pt x="118" y="414" on="0"/>
        <pt x="144" y="458" on="0"/>
        <pt x="182" y="491" on="0"/>
        <pt x="229" y="510" on="0"/>
        <pt x="254" y="510" on="1"/>
        <pt x="279" y="510" on="0"/>
        <pt x="321" y="491" on="0"/>
        <pt x="350" y="458" on="0"/>
        <pt x="363" y="414" on="0"/>
        <pt x="360" y="389" on="1"/>
        <pt x="356" y="363" on="0"/>
        <pt x="330" y="319" on="0"/>
        <pt x="292" y="286" on="0"/>
        <pt x="245" y="267" on="0"/>
      </contour>
      <contour>
        <pt x="148" y="0" on="1"/>
        <pt x="241" y="126" on="0"/>
        <pt x="424" y="374" on="0"/>
        <pt x="517" y="500" on="1"/>
        <pt x="586" y="500" on="1"/>
        <pt x="493" y="374" on="0"/>
        <pt x="310" y="126" on="0"/>
        <pt x="217" y="0" on="1"/>
      </contour>
    </TTGlyph>
    <TTGlyph name="period" xMin="40" yMin="0" xMax="129" yMax="85">
      <contour>
        <pt x="42" y="42" on="1"/>
        <pt x="45" y="61" on="0"/>
        <pt x="74" y="85" on="0"/>
        <pt x="91" y="85" on="1"/>
        <pt x="107" y="85" on="0"/>
        <pt x="129" y="61" on="0"/>
        <pt x="126" y="42" on="1"/>
        <pt x="124" y="23" on="0"/>
        <pt x="95" y="0" on="0"/>
        <pt x="79" y="0" on="1"/>
        <pt x="62" y="0" on="0"/>
        <pt x="40" y="23" on="0"/>
      </contour>
    </TTGlyph>
    <TTGlyph name="periodcentered" xMin="40" yMin="239" xMax="129" yMax="324">
      <component glyphName="period" x="0" y="239" flags="0x4"/>
    </TTGlyph>
    <TTGlyph name="plus" xMin="81" yMin="51" xMax="450" yMax="411">
      <contour>
        <pt x="208" y="51" on="1"/>
        <pt x="230" y="200" on="1"/>
        <pt x="81" y="200" on="1"/>
        <pt x="90" y="261" on="1"/>
        <pt x="238" y="261" on="1"/>
        <pt x="259" y="411" on="1"/>
        <pt x="322" y="411" on="1"/>
        <pt x="301" y="261" on="1"/>
        <pt x="450" y="261" on="1"/>
        <pt x="441" y="200" on="1"/>
        <pt x="293" y="200" on="1"/>
        <pt x="271" y="51" on="1"/>
      </contour>
    </TTGlyph>
    <TTGlyph name="plusminus" xMin="53" yMin="111" xMax="457" yMax="571">
      <contour>
        <pt x="216" y="211" on="1"/>
        <pt x="237" y="360" on="1"/>
        <pt x="89" y="360" on="1"/>
        <pt x="97" y="421" on="1"/>
        <pt x="245" y="421" on="1"/>
        <pt x="267" y="571" on="1"/>
        <pt x="330" y="571" on="1"/>
        <pt x="308" y="421" on="1"/>
        <pt x="457" y="421" on="1"/>
        <pt x="449" y="360" on="1"/>
        <pt x="300" y="360" on="1"/>
        <pt x="279" y="211" on="1"/>
      </contour>
      <contour>
        <pt x="413" y="111" on="1"/>
        <pt x="53" y="111" on="1"/>
        <pt x="62" y="172" on="1"/>
        <pt x="422" y="172" on="1"/>
      </contour>
    </TTGlyph>
    <TTGlyph name="q" xMin="70" yMin="-250" xMax="500" yMax="383">
      <contour>
        <pt x="139" y="188" on="1"/>
        <pt x="135" y="159" on="0"/>
        <pt x="149" y="110" on="0"/>
        <pt x="180" y="73" on="0"/>
        <pt x="227" y="52" on="0"/>
        <pt x="256" y="52" on="1"/>
        <pt x="285" y="52" on="0"/>
        <pt x="338" y="73" on="0"/>
        <pt x="380" y="110" on="0"/>
        <pt x="407" y="159" on="0"/>
        <pt x="411" y="188" on="1"/>
        <pt x="415" y="216" on="0"/>
        <pt x="402" y="265" on="0"/>
        <pt x="370" y="301" on="0"/>
        <pt x="323" y="322" on="0"/>
        <pt x="294" y="322" on="1"/>
        <pt x="264" y="322" on="0"/>
        <pt x="212" y="301" on="0"/>
        <pt x="170" y="265" on="0"/>
        <pt x="143" y="216" on="0"/>
      </contour>
      <contour>
        <pt x="76" y="188" on="1"/>
        <pt x="82" y="231" on="0"/>
        <pt x="122" y="303" on="0"/>
        <pt x="184" y="354" on="0"/>
        <pt x="260" y="383" on="0"/>
        <pt x="302" y="383" on="1"/>
        <pt x="330" y="383" on="0"/>
        <pt x="377" y="367" on="0"/>
        <pt x="412" y="343" on="0"/>
        <pt x="434" y="317" on="0"/>
        <pt x="436" y="307" on="1"/>
        <pt x="438" y="324" on="0"/>
        <pt x="445" y="358" on="0"/>
        <pt x="447" y="375" on="1"/>
        <pt x="500" y="375" on="1"/>
        <pt x="412" y="-250" on="1"/>
        <pt x="349" y="-250" on="1"/>
        <pt x="389" y="32" on="1"/>
        <pt x="391" y="40" on="0"/>
        <pt x="398" y="55" on="0"/>
        <pt x="401" y="63" on="1"/>
        <pt x="396" y="53" on="0"/>
        <pt x="369" y="28" on="0"/>
        <pt x="329" y="6" on="0"/>
        <pt x="277" y="-9" on="0"/>
        <pt x="247" y="-9" on="1"/>
        <pt x="205" y="-9" on="0"/>
        <pt x="137" y="22" on="0"/>
        <pt x="91" y="76" on="0"/>
        <pt x="70" y="147" on="0"/>
      </contour>
    </TTGlyph>
    <TTGlyph name="question" xMin="67" yMin="8" xMax="459" yMax="732">
      <contour>
        <pt x="120" y="565" on="1"/>
        <pt x="107" y="570" on="0"/>
        <pt x="81" y="580" on="0"/>
        <pt x="67" y="585" on="1"/>
        <pt x="79" y="609" on="0"/>
        <pt x="115" y="661" on="0"/>
        <pt x="168" y="704" on="0"/>
        <pt x="239" y="732" on="0"/>
        <pt x="284" y="732" on="1"/>
        <pt x="325" y="732" on="0"/>
        <pt x="393" y="701" on="0"/>
        <pt x="438" y="648" on="0"/>
        <pt x="459" y="577" on="0"/>
        <pt x="453" y="537" on="1"/>
        <pt x="445" y="482" on="0"/>
        <pt x="381" y="399" on="0"/>
        <pt x="330" y="366" on="1"/>
        <pt x="313" y="354" on="0"/>
        <pt x="277" y="334" on="0"/>
        <pt x="247" y="308" on="0"/>
        <pt x="225" y="270" on="0"/>
        <pt x="221" y="242" on="1"/>
        <pt x="210" y="164" on="1"/>
        <pt x="147" y="164" on="1"/>
        <pt x="161" y="261" on="1"/>
        <pt x="165" y="292" on="0"/>
        <pt x="192" y="332" on="0"/>
        <pt x="231" y="362" on="0"/>
        <pt x="278" y="389" on="0"/>
        <pt x="304" y="409" on="1"/>
        <pt x="342" y="436" on="0"/>
        <pt x="384" y="500" on="0"/>
        <pt x="389" y="537" on="1"/>
        <pt x="393" y="566" on="0"/>
        <pt x="380" y="615" on="0"/>
        <pt x="350" y="651" on="0"/>
        <pt x="304" y="671" on="0"/>
        <pt x="276" y="671" on="1"/>
        <pt x="219" y="671" on="0"/>
        <pt x="143" y="616" on="0"/>
      </contour>
      <contour>
        <pt x="156" y="8" on="1"/>
        <pt x="140" y="8" on="0"/>
        <pt x="117" y="31" on="0"/>
        <pt x="120" y="50" on="1"/>
        <pt x="122" y="68" on="0"/>
        <pt x="152" y="93" on="0"/>
        <pt x="168" y="93" on="1"/>
        <pt x="183" y="93" on="0"/>
        <pt x="206" y="68" on="0"/>
        <pt x="203" y="50" on="1"/>
        <pt x="201" y="31" on="0"/>
        <pt x="171" y="8" on="0"/>
      </contour>
    </TTGlyph>
    <TTGlyph name="questiondown" xMin="3" yMin="-193" xMax="396" yMax="532">
      <component glyphName="question" x="462" y="539" scale="-1.0" flags="0x4"/>
    </TTGlyph>
    <TTGlyph name="quotedbl" xMin="45" yMin="472" xMax="276" yMax="720">
      <contour>
        <pt x="178" y="472" on="1"/>
        <pt x="213" y="720" on="1"/>
        <pt x="276" y="720" on="1"/>
        <pt x="266" y="657" on="0"/>
        <pt x="247" y="535" on="0"/>
        <pt x="237" y="472" on="1"/>
      </contour>
      <contour>
        <pt x="45" y="472" on="1"/>
        <pt x="80" y="720" on="1"/>
        <pt x="143" y="720" on="1"/>
        <pt x="133" y="657" on="0"/>
        <pt x="114" y="535" on="0"/>
        <pt x="104" y="472" on="1"/>
      </contour>
    </TTGlyph>
    <TTGlyph name="quotedblbase" xMin="12" yMin="-51" xMax="210" yMax="92">
      <contour>
        <pt x="39" y="-51" on="1"/>
        <pt x="32" y="-46" on="0"/>
        <pt x="19" y="-34" on="0"/>
        <pt x="12" y="-29" on="1"/>
        <pt x="35" y="-9" on="0"/>
        <pt x="63" y="50" on="0"/>
        <pt x="61" y="85" on="1"/>
        <pt x="72" y="87" on="0"/>
        <pt x="93" y="90" on="0"/>
        <pt x="104" y="92" on="1"/>
        <pt x="106" y="51" on="0"/>
        <pt x="71" y="-24" on="0"/>
      </contour>
      <contour>
        <pt x="143" y="-51" on="1"/>
        <pt x="136" y="-46" on="0"/>
        <pt x="123" y="-34" on="0"/>
        <pt x="116" y="-29" on="1"/>
        <pt x="139" y="-9" on="0"/>
        <pt x="167" y="50" on="0"/>
        <pt x="165" y="85" on="1"/>
        <pt x="176" y="87" on="0"/>
        <pt x="197" y="90" on="0"/>
        <pt x="208" y="92" on="1"/>
        <pt x="210" y="51" on="0"/>
        <pt x="175" y="-24" on="0"/>
      </contour>
    </TTGlyph>
    <TTGlyph name="quotedblleft" xMin="27" yMin="568" xMax="203" yMax="711">
      <contour>
        <pt x="203" y="590" on="1"/>
        <pt x="194" y="585" on="0"/>
        <pt x="177" y="573" on="0"/>
        <pt x="169" y="568" on="1"/>
        <pt x="145" y="595" on="0"/>
        <pt x="131" y="670" on="0"/>
        <pt x="145" y="711" on="1"/>
        <pt x="155" y="709" on="0"/>
        <pt x="175" y="706" on="0"/>
        <pt x="186" y="704" on="1"/>
        <pt x="174" y="669" on="0"/>
        <pt x="184" y="610" on="0"/>
      </contour>
      <contour>
        <pt x="99" y="590" on="1"/>
        <pt x="90" y="585" on="0"/>
        <pt x="73" y="573" on="0"/>
        <pt x="65" y="568" on="1"/>
        <pt x="41" y="595" on="0"/>
        <pt x="27" y="670" on="0"/>
        <pt x="41" y="711" on="1"/>
        <pt x="51" y="709" on="0"/>
        <pt x="71" y="706" on="0"/>
        <pt x="82" y="704" on="1"/>
        <pt x="70" y="669" on="0"/>
        <pt x="80" y="610" on="0"/>
      </contour>
    </TTGlyph>
    <TTGlyph name="quotedblright" xMin="14" yMin="568" xMax="212" yMax="711">
      <contour>
        <pt x="41" y="568" on="1"/>
        <pt x="33" y="573" on="0"/>
        <pt x="21" y="585" on="0"/>
        <pt x="14" y="590" on="1"/>
        <pt x="37" y="610" on="0"/>
        <pt x="65" y="669" on="0"/>
        <pt x="63" y="704" on="1"/>
        <pt x="74" y="706" on="0"/>
        <pt x="95" y="709" on="0"/>
        <pt x="106" y="711" on="1"/>
        <pt x="108" y="670" on="0"/>
        <pt x="73" y="595" on="0"/>
      </contour>
      <contour>
        <pt x="145" y="568" on="1"/>
        <pt x="137" y="573" on="0"/>
        <pt x="125" y="585" on="0"/>
        <pt x="118" y="590" on="1"/>
        <pt x="141" y="610" on="0"/>
        <pt x="169" y="669" on="0"/>
        <pt x="167" y="704" on="1"/>
        <pt x="178" y="706" on="0"/>
        <pt x="199" y="709" on="0"/>
        <pt x="210" y="711" on="1"/>
        <pt x="212" y="670" on="0"/>
        <pt x="177" y="595" on="0"/>
      </contour>
    </TTGlyph>
    <TTGlyph name="quoteleft" xMin="29" yMin="568" xMax="101" yMax="711">
      <contour>
        <pt x="101" y="590" on="1"/>
        <pt x="93" y="585" on="0"/>
        <pt x="76" y="573" on="0"/>
        <pt x="68" y="568" on="1"/>
        <pt x="44" y="595" on="0"/>
        <pt x="29" y="670" on="0"/>
        <pt x="43" y="711" on="1"/>
        <pt x="53" y="709" on="0"/>
        <pt x="74" y="706" on="0"/>
        <pt x="84" y="704" on="1"/>
        <pt x="73" y="669" on="0"/>
        <pt x="83" y="610" on="0"/>
      </contour>
    </TTGlyph>
    <TTGlyph name="quoteright" xMin="35" yMin="568" xMax="129" yMax="711">
      <contour>
        <pt x="62" y="568" on="1"/>
        <pt x="55" y="573" on="0"/>
        <pt x="42" y="585" on="0"/>
        <pt x="35" y="590" on="1"/>
        <pt x="58" y="610" on="0"/>
        <pt x="86" y="669" on="0"/>
        <pt x="84" y="704" on="1"/>
        <pt x="95" y="706" on="0"/>
        <pt x="116" y="709" on="0"/>
        <pt x="127" y="711" on="1"/>
        <pt x="129" y="670" on="0"/>
        <pt x="94" y="595" on="0"/>
      </contour>
    </TTGlyph>
    <TTGlyph name="quotesinglbase" xMin="12" yMin="-51" xMax="106" yMax="92">
      <contour>
        <pt x="39" y="-51" on="1"/>
        <pt x="32" y="-46" on="0"/>
        <pt x="19" y="-34" on="0"/>
        <pt x="12" y="-29" on="1"/>
        <pt x="35" y="-9" on="0"/>
        <pt x="63" y="50" on="0"/>
        <pt x="61" y="85" on="1"/>
        <pt x="72" y="87" on="0"/>
        <pt x="93" y="90" on="0"/>
        <pt x="104" y="92" on="1"/>
        <pt x="106" y="51" on="0"/>
        <pt x="71" y="-24" on="0"/>
      </contour>
    </TTGlyph>
    <TTGlyph name="quotesingle" xMin="31" yMin="472" xMax="131" yMax="720">
      <contour>
        <pt x="31" y="472" on="1"/>
        <pt x="66" y="720" on="1"/>
        <pt x="131" y="720" on="1"/>
        <pt x="121" y="657" on="0"/>
        <pt x="102" y="535" on="0"/>
        <pt x="92" y="472" on="1"/>
      </contour>
    </TTGlyph>
    <TTGlyph name="r" xMin="92" yMin="0" xMax="355" yMax="383">
      <contour>
        <pt x="343" y="322" on="1"/>
        <pt x="312" y="322" on="0"/>
        <pt x="257" y="302" on="0"/>
        <pt x="213" y="268" on="0"/>
        <pt x="185" y="221" on="0"/>
        <pt x="181" y="193" on="1"/>
        <pt x="155" y="0" on="1"/>
        <pt x="92" y="0" on="1"/>
        <pt x="144" y="375" on="1"/>
        <pt x="200" y="375" on="1"/>
        <pt x="197" y="353" on="1"/>
        <pt x="195" y="333" on="0"/>
        <pt x="192" y="298" on="0"/>
        <pt x="190" y="278" on="1"/>
        <pt x="205" y="303" on="0"/>
        <pt x="247" y="342" on="0"/>
        <pt x="292" y="369" on="0"/>
        <pt x="337" y="383" on="0"/>
        <pt x="355" y="383" on="1"/>
      </contour>
    </TTGlyph>
    <TTGlyph name="registered" xMin="130" yMin="113" xMax="668" yMax="632">
      <contour>
        <pt x="367" y="143" on="1"/>
        <pt x="415" y="143" on="0"/>
        <pt x="503" y="178" on="0"/>
        <pt x="573" y="239" on="0"/>
        <pt x="620" y="323" on="0"/>
        <pt x="627" y="372" on="1"/>
        <pt x="634" y="422" on="0"/>
        <pt x="611" y="506" on="0"/>
        <pt x="558" y="568" on="0"/>
        <pt x="479" y="602" on="0"/>
        <pt x="431" y="602" on="1"/>
        <pt x="383" y="602" on="0"/>
        <pt x="296" y="568" on="0"/>
        <pt x="225" y="506" on="0"/>
        <pt x="178" y="422" on="0"/>
        <pt x="171" y="372" on="1"/>
        <pt x="164" y="323" on="0"/>
        <pt x="188" y="239" on="0"/>
        <pt x="241" y="178" on="0"/>
        <pt x="319" y="143" on="0"/>
      </contour>
      <contour>
        <pt x="363" y="113" on="1"/>
        <pt x="309" y="113" on="0"/>
        <pt x="220" y="152" on="0"/>
        <pt x="158" y="222" on="0"/>
        <pt x="130" y="316" on="0"/>
        <pt x="138" y="372" on="1"/>
        <pt x="146" y="428" on="0"/>
        <pt x="201" y="524" on="0"/>
        <pt x="282" y="593" on="0"/>
        <pt x="382" y="632" on="0"/>
        <pt x="436" y="632" on="1"/>
        <pt x="490" y="632" on="0"/>
        <pt x="579" y="593" on="0"/>
        <pt x="640" y="524" on="0"/>
        <pt x="668" y="428" on="0"/>
        <pt x="660" y="372" on="1"/>
        <pt x="652" y="316" on="0"/>
        <pt x="598" y="222" on="0"/>
        <pt x="517" y="152" on="0"/>
        <pt x="417" y="113" on="0"/>
      </contour>
      <contour>
        <pt x="355" y="390" on="1"/>
        <pt x="400" y="390" on="1"/>
        <pt x="423" y="390" on="0"/>
        <pt x="455" y="402" on="0"/>
        <pt x="475" y="421" on="0"/>
        <pt x="485" y="443" on="0"/>
        <pt x="487" y="453" on="1"/>
        <pt x="490" y="477" on="0"/>
        <pt x="451" y="513" on="0"/>
        <pt x="418" y="513" on="1"/>
        <pt x="373" y="513" on="1"/>
      </contour>
      <contour>
        <pt x="301" y="210" on="1"/>
        <pt x="347" y="541" on="1"/>
        <pt x="422" y="541" on="1"/>
        <pt x="437" y="541" on="0"/>
        <pt x="473" y="531" on="0"/>
        <pt x="502" y="510" on="0"/>
        <pt x="519" y="477" on="0"/>
        <pt x="516" y="453" on="1"/>
        <pt x="511" y="418" on="0"/>
        <pt x="469" y="372" on="0"/>
        <pt x="434" y="364" on="1"/>
        <pt x="447" y="326" on="0"/>
        <pt x="472" y="249" on="0"/>
        <pt x="485" y="210" on="1"/>
        <pt x="453" y="210" on="1"/>
        <pt x="440" y="248" on="0"/>
        <pt x="415" y="324" on="0"/>
        <pt x="402" y="362" on="1"/>
        <pt x="390" y="362" on="1"/>
        <pt x="351" y="362" on="1"/>
        <pt x="330" y="210" on="1"/>
      </contour>
    </TTGlyph>
    <TTGlyph name="s" xMin="80" yMin="-8" xMax="354" yMax="382">
      <contour>
        <pt x="354" y="340" on="1"/>
        <pt x="344" y="329" on="0"/>
        <pt x="323" y="305" on="0"/>
        <pt x="312" y="294" on="1"/>
        <pt x="305" y="303" on="0"/>
        <pt x="271" y="322" on="0"/>
        <pt x="248" y="322" on="1"/>
        <pt x="225" y="322" on="0"/>
        <pt x="190" y="298" on="0"/>
        <pt x="188" y="273" on="1"/>
        <pt x="187" y="256" on="0"/>
        <pt x="211" y="236" on="0"/>
        <pt x="247" y="220" on="0"/>
        <pt x="288" y="204" on="0"/>
        <pt x="322" y="178" on="0"/>
        <pt x="340" y="138" on="0"/>
        <pt x="336" y="107" on="1"/>
        <pt x="334" y="92" on="0"/>
        <pt x="317" y="52" on="0"/>
        <pt x="283" y="16" on="0"/>
        <pt x="231" y="-8" on="0"/>
        <pt x="195" y="-8" on="1"/>
        <pt x="161" y="-8" on="0"/>
        <pt x="97" y="16" on="0"/>
        <pt x="80" y="39" on="1"/>
        <pt x="125" y="84" on="1"/>
        <pt x="159" y="53" on="0"/>
        <pt x="205" y="53" on="1"/>
        <pt x="210" y="53" on="0"/>
        <pt x="231" y="57" on="0"/>
        <pt x="252" y="69" on="0"/>
        <pt x="270" y="89" on="0"/>
        <pt x="273" y="106" on="1"/>
        <pt x="277" y="128" on="0"/>
        <pt x="256" y="151" on="0"/>
        <pt x="220" y="166" on="0"/>
        <pt x="177" y="179" on="0"/>
        <pt x="141" y="201" on="0"/>
        <pt x="120" y="240" on="0"/>
        <pt x="125" y="274" on="1"/>
        <pt x="129" y="303" on="0"/>
        <pt x="157" y="344" on="0"/>
        <pt x="194" y="370" on="0"/>
        <pt x="236" y="382" on="0"/>
        <pt x="254" y="382" on="1"/>
        <pt x="264" y="382" on="0"/>
        <pt x="291" y="378" on="0"/>
        <pt x="319" y="368" on="0"/>
        <pt x="345" y="352" on="0"/>
      </contour>
    </TTGlyph>
    <TTGlyph name="section" xMin="124" yMin="-38" xMax="392" yMax="752">
      <contour>
        <pt x="186" y="345" on="1"/>
        <pt x="187" y="318" on="0"/>
        <pt x="223" y="285" on="0"/>
        <pt x="251" y="286" on="1"/>
        <pt x="282" y="287" on="0"/>
        <pt x="329" y="333" on="0"/>
        <pt x="332" y="363" on="1"/>
        <pt x="334" y="394" on="0"/>
        <pt x="294" y="435" on="0"/>
        <pt x="264" y="434" on="1"/>
        <pt x="246" y="433" on="0"/>
        <pt x="216" y="417" on="0"/>
        <pt x="195" y="392" on="0"/>
        <pt x="184" y="361" on="0"/>
      </contour>
      <contour>
        <pt x="197" y="150" on="1"/>
        <pt x="179" y="186" on="0"/>
        <pt x="157" y="234" on="0"/>
        <pt x="144" y="264" on="0"/>
        <pt x="137" y="282" on="0"/>
        <pt x="135" y="289" on="1"/>
        <pt x="125" y="311" on="0"/>
        <pt x="124" y="361" on="0"/>
        <pt x="140" y="410" on="0"/>
        <pt x="171" y="454" on="0"/>
        <pt x="194" y="469" on="1"/>
        <pt x="233" y="493" on="0"/>
        <pt x="280" y="487" on="1"/>
        <pt x="270" y="507" on="0"/>
        <pt x="253" y="547" on="0"/>
        <pt x="244" y="568" on="1"/>
        <pt x="231" y="598" on="0"/>
        <pt x="224" y="642" on="0"/>
        <pt x="233" y="674" on="0"/>
        <pt x="254" y="698" on="0"/>
        <pt x="268" y="707" on="1"/>
        <pt x="285" y="720" on="0"/>
        <pt x="329" y="741" on="0"/>
        <pt x="349" y="752" on="1"/>
        <pt x="359" y="727" on="0"/>
        <pt x="372" y="700" on="1"/>
        <pt x="327" y="676" on="1"/>
        <pt x="301" y="661" on="0"/>
        <pt x="293" y="620" on="0"/>
        <pt x="313" y="576" on="1"/>
        <pt x="314" y="576" on="1"/>
        <pt x="331" y="538" on="0"/>
        <pt x="364" y="464" on="0"/>
        <pt x="381" y="426" on="1"/>
        <pt x="391" y="404" on="0"/>
        <pt x="392" y="354" on="0"/>
        <pt x="376" y="306" on="0"/>
        <pt x="343" y="264" on="0"/>
        <pt x="320" y="249" on="1"/>
        <pt x="280" y="223" on="0"/>
        <pt x="234" y="229" on="1"/>
        <pt x="243" y="209" on="0"/>
        <pt x="262" y="167" on="0"/>
        <pt x="271" y="147" on="1"/>
        <pt x="284" y="117" on="0"/>
        <pt x="291" y="72" on="0"/>
        <pt x="282" y="39" on="0"/>
        <pt x="261" y="16" on="0"/>
        <pt x="247" y="7" on="1"/>
        <pt x="230" y="-6" on="0"/>
        <pt x="188" y="-27" on="0"/>
        <pt x="168" y="-38" on="1"/>
        <pt x="163" y="-25" on="0"/>
        <pt x="150" y="1" on="0"/>
        <pt x="144" y="15" on="1"/>
        <pt x="155" y="21" on="0"/>
        <pt x="178" y="33" on="0"/>
        <pt x="190" y="39" on="1"/>
        <pt x="203" y="46" on="0"/>
        <pt x="218" y="64" on="0"/>
        <pt x="220" y="89" on="0"/>
        <pt x="209" y="124" on="0"/>
      </contour>
    </TTGlyph>
    <TTGlyph name="semicolon" xMin="-36" yMin="-120" xMax="183" yMax="335">
      <contour>
        <pt x="96" y="292" on="1"/>
        <pt x="99" y="311" on="0"/>
        <pt x="129" y="335" on="0"/>
        <pt x="145" y="335" on="1"/>
        <pt x="161" y="335" on="0"/>
        <pt x="183" y="311" on="0"/>
        <pt x="181" y="292" on="1"/>
        <pt x="178" y="273" on="0"/>
        <pt x="149" y="250" on="0"/>
        <pt x="133" y="250" on="1"/>
        <pt x="117" y="250" on="0"/>
        <pt x="94" y="273" on="0"/>
      </contour>
      <contour>
        <pt x="134" y="86" on="1"/>
        <pt x="105" y="34" on="0"/>
        <pt x="49" y="-68" on="0"/>
        <pt x="20" y="-120" on="1"/>
        <pt x="-36" y="-120" on="1"/>
        <pt x="-10" y="-68" on="0"/>
        <pt x="42" y="34" on="0"/>
        <pt x="69" y="86" on="1"/>
      </contour>
    </TTGlyph>
    <TTGlyph name="seven" xMin="14" yMin="0" xMax="468" yMax="650">
      <contour>
        <pt x="51" y="588" on="1"/>
        <pt x="59" y="650" on="1"/>
        <pt x="468" y="650" on="1"/>
        <pt x="372" y="486" on="0"/>
        <pt x="181" y="164" on="0"/>
        <pt x="85" y="0" on="1"/>
        <pt x="14" y="0" on="1"/>
        <pt x="102" y="148" on="0"/>
        <pt x="274" y="440" on="0"/>
        <pt x="362" y="588" on="1"/>
      </contour>
    </TTGlyph>
    <TTGlyph name="six" xMin="27" yMin="-8" xMax="467" yMax="636">
      <contour>
        <pt x="97" y="204" on="1"/>
        <pt x="92" y="173" on="0"/>
        <pt x="108" y="118" on="0"/>
        <pt x="142" y="77" on="0"/>
        <pt x="193" y="53" on="0"/>
        <pt x="224" y="53" on="1"/>
        <pt x="255" y="53" on="0"/>
        <pt x="314" y="77" on="0"/>
        <pt x="362" y="118" on="0"/>
        <pt x="393" y="173" on="0"/>
        <pt x="398" y="204" on="1"/>
        <pt x="402" y="235" on="0"/>
        <pt x="386" y="290" on="0"/>
        <pt x="350" y="330" on="0"/>
        <pt x="298" y="354" on="0"/>
        <pt x="267" y="354" on="1"/>
        <pt x="236" y="354" on="0"/>
        <pt x="178" y="330" on="0"/>
        <pt x="132" y="290" on="0"/>
        <pt x="101" y="235" on="0"/>
      </contour>
      <contour>
        <pt x="32" y="196" on="1"/>
        <pt x="42" y="268" on="0"/>
        <pt x="121" y="393" on="0"/>
        <pt x="232" y="501" on="0"/>
        <pt x="363" y="595" on="0"/>
        <pt x="425" y="636" on="1"/>
        <pt x="433" y="624" on="0"/>
        <pt x="449" y="599" on="0"/>
        <pt x="457" y="587" on="1"/>
        <pt x="363" y="530" on="0"/>
        <pt x="243" y="429" on="0"/>
        <pt x="209" y="390" on="1"/>
        <pt x="223" y="401" on="0"/>
        <pt x="256" y="415" on="0"/>
        <pt x="275" y="415" on="1"/>
        <pt x="319" y="415" on="0"/>
        <pt x="393" y="382" on="0"/>
        <pt x="444" y="325" on="0"/>
        <pt x="467" y="248" on="0"/>
        <pt x="461" y="204" on="1"/>
        <pt x="455" y="160" on="0"/>
        <pt x="409" y="83" on="0"/>
        <pt x="343" y="26" on="0"/>
        <pt x="260" y="-8" on="0"/>
        <pt x="216" y="-8" on="1"/>
        <pt x="173" y="-8" on="0"/>
        <pt x="101" y="24" on="0"/>
        <pt x="51" y="79" on="0"/>
        <pt x="27" y="154" on="0"/>
      </contour>
    </TTGlyph>
    <TTGlyph name="slash" xMin="-36" yMin="-19" xMax="411" yMax="736">
      <contour>
        <pt x="-36" y="-19" on="1"/>
        <pt x="61" y="171" on="0"/>
        <pt x="251" y="546" on="0"/>
        <pt x="348" y="736" on="1"/>
        <pt x="411" y="736" on="1"/>
        <pt x="314" y="546" on="0"/>
        <pt x="123" y="171" on="0"/>
        <pt x="26" y="-19" on="1"/>
      </contour>
    </TTGlyph>
    <TTGlyph name="sterling" xMin="-16" yMin="0" xMax="521" yMax="634">
      <contour>
        <pt x="129" y="61" on="1"/>
        <pt x="311" y="61" on="1"/>
        <pt x="323" y="61" on="1"/>
        <pt x="354" y="61" on="0"/>
        <pt x="396" y="66" on="0"/>
        <pt x="422" y="78" on="0"/>
        <pt x="435" y="98" on="0"/>
        <pt x="437" y="113" on="1"/>
        <pt x="443" y="161" on="1"/>
        <pt x="506" y="161" on="1"/>
        <pt x="496" y="85" on="1"/>
        <pt x="493" y="67" on="0"/>
        <pt x="482" y="36" on="0"/>
        <pt x="455" y="13" on="0"/>
        <pt x="406" y="0" on="0"/>
        <pt x="366" y="0" on="1"/>
        <pt x="-16" y="0" on="1"/>
        <pt x="-8" y="61" on="1"/>
        <pt x="35" y="61" on="1"/>
        <pt x="51" y="61" on="0"/>
        <pt x="73" y="70" on="0"/>
        <pt x="88" y="96" on="0"/>
        <pt x="98" y="141" on="0"/>
        <pt x="103" y="176" on="1"/>
        <pt x="119" y="284" on="1"/>
        <pt x="54" y="284" on="1"/>
        <pt x="63" y="345" on="1"/>
        <pt x="128" y="345" on="1"/>
        <pt x="149" y="500" on="1"/>
        <pt x="159" y="569" on="0"/>
        <pt x="276" y="634" on="0"/>
        <pt x="370" y="634" on="1"/>
        <pt x="403" y="634" on="0"/>
        <pt x="454" y="619" on="0"/>
        <pt x="490" y="592" on="0"/>
        <pt x="514" y="557" on="0"/>
        <pt x="521" y="537" on="1"/>
        <pt x="494" y="523" on="0"/>
        <pt x="470" y="510" on="1"/>
        <pt x="464" y="522" on="0"/>
        <pt x="450" y="544" on="0"/>
        <pt x="427" y="562" on="0"/>
        <pt x="390" y="573" on="0"/>
        <pt x="362" y="573" on="1"/>
        <pt x="289" y="573" on="0"/>
        <pt x="217" y="533" on="0"/>
        <pt x="210" y="486" on="1"/>
        <pt x="191" y="345" on="1"/>
        <pt x="311" y="345" on="1"/>
        <pt x="302" y="284" on="1"/>
        <pt x="182" y="284" on="1"/>
        <pt x="164" y="159" on="1"/>
        <pt x="163" y="147" on="1"/>
        <pt x="159" y="118" on="0"/>
        <pt x="146" y="75" on="0"/>
      </contour>
    </TTGlyph>
    <TTGlyph name="t" xMin="75" yMin="0" xMax="337" yMax="619">
      <contour>
        <pt x="202" y="619" on="1"/>
        <pt x="264" y="619" on="1"/>
        <pt x="231" y="379" on="1"/>
        <pt x="337" y="379" on="1"/>
        <pt x="329" y="318" on="1"/>
        <pt x="222" y="318" on="1"/>
        <pt x="178" y="0" on="1"/>
        <pt x="116" y="0" on="1"/>
        <pt x="160" y="318" on="1"/>
        <pt x="75" y="318" on="1"/>
        <pt x="83" y="379" on="1"/>
        <pt x="168" y="379" on="1"/>
      </contour>
    </TTGlyph>
    <TTGlyph name="thorn" xMin="-3" yMin="-250" xMax="461" yMax="750">
      <contour>
        <pt x="392" y="188" on="1"/>
        <pt x="396" y="216" on="0"/>
        <pt x="383" y="265" on="0"/>
        <pt x="351" y="301" on="0"/>
        <pt x="304" y="322" on="0"/>
        <pt x="275" y="322" on="1"/>
        <pt x="246" y="322" on="0"/>
        <pt x="193" y="301" on="0"/>
        <pt x="152" y="265" on="0"/>
        <pt x="124" y="216" on="0"/>
        <pt x="120" y="188" on="1"/>
        <pt x="116" y="159" on="0"/>
        <pt x="130" y="110" on="0"/>
        <pt x="161" y="73" on="0"/>
        <pt x="207" y="52" on="0"/>
        <pt x="237" y="52" on="1"/>
        <pt x="266" y="52" on="0"/>
        <pt x="319" y="73" on="0"/>
        <pt x="361" y="110" on="0"/>
        <pt x="388" y="159" on="0"/>
      </contour>
      <contour>
        <pt x="455" y="187" on="1"/>
        <pt x="449" y="147" on="0"/>
        <pt x="409" y="76" on="0"/>
        <pt x="347" y="22" on="0"/>
        <pt x="270" y="-9" on="0"/>
        <pt x="228" y="-9" on="1"/>
        <pt x="198" y="-9" on="0"/>
        <pt x="151" y="7" on="0"/>
        <pt x="117" y="29" on="0"/>
        <pt x="98" y="53" on="0"/>
        <pt x="96" y="63" on="1"/>
        <pt x="96" y="55" on="0"/>
        <pt x="98" y="40" on="0"/>
        <pt x="98" y="32" on="1"/>
        <pt x="59" y="-250" on="1"/>
        <pt x="-3" y="-250" on="1"/>
        <pt x="137" y="750" on="1"/>
        <pt x="199" y="750" on="1"/>
        <pt x="142" y="348" on="1"/>
        <pt x="139" y="337" on="0"/>
        <pt x="132" y="318" on="0"/>
        <pt x="129" y="307" on="1"/>
        <pt x="134" y="317" on="0"/>
        <pt x="162" y="343" on="0"/>
        <pt x="204" y="366" on="0"/>
        <pt x="255" y="382" on="0"/>
        <pt x="283" y="382" on="1"/>
        <pt x="325" y="382" on="0"/>
        <pt x="393" y="351" on="0"/>
        <pt x="440" y="298" on="0"/>
        <pt x="461" y="227" on="0"/>
      </contour>
    </TTGlyph>
    <TTGlyph name="three" xMin="32" yMin="-8" xMax="475" yMax="650">
      <contour>
        <pt x="163" y="336" on="1"/>
        <pt x="212" y="400" on="0"/>
        <pt x="310" y="525" on="0"/>
        <pt x="359" y="588" on="1"/>
        <pt x="140" y="588" on="1"/>
        <pt x="149" y="650" on="1"/>
        <pt x="475" y="650" on="1"/>
        <pt x="426" y="589" on="0"/>
        <pt x="329" y="468" on="0"/>
        <pt x="281" y="408" on="1"/>
        <pt x="316" y="400" on="0"/>
        <pt x="374" y="364" on="0"/>
        <pt x="412" y="311" on="0"/>
        <pt x="429" y="244" on="0"/>
        <pt x="424" y="205" on="1"/>
        <pt x="418" y="161" on="0"/>
        <pt x="372" y="84" on="0"/>
        <pt x="306" y="26" on="0"/>
        <pt x="223" y="-8" on="0"/>
        <pt x="179" y="-8" on="1"/>
        <pt x="132" y="-8" on="0"/>
        <pt x="57" y="29" on="0"/>
        <pt x="32" y="61" on="1"/>
        <pt x="45" y="72" on="0"/>
        <pt x="71" y="94" on="0"/>
        <pt x="84" y="105" on="1"/>
        <pt x="101" y="82" on="0"/>
        <pt x="153" y="53" on="0"/>
        <pt x="187" y="53" on="1"/>
        <pt x="218" y="53" on="0"/>
        <pt x="277" y="77" on="0"/>
        <pt x="324" y="119" on="0"/>
        <pt x="356" y="174" on="0"/>
        <pt x="361" y="205" on="1"/>
        <pt x="365" y="236" on="0"/>
        <pt x="349" y="291" on="0"/>
        <pt x="313" y="331" on="0"/>
        <pt x="260" y="355" on="0"/>
        <pt x="229" y="355" on="1"/>
        <pt x="195" y="355" on="0"/>
      </contour>
    </TTGlyph>
    <TTGlyph name="threequarters" xMin="114" yMin="-19" xMax="1036" yMax="736">
      <component glyphName="three" x="90" y="205" scalex="0.772399902344" scaley="0.773071289062" flags="0x4"/>
      <component glyphName="slash" x="433" y="0" flags="0x4"/>
      <component glyphName="four" x="673" y="0" scalex="0.74365234375" scaley="0.744689941406" flags="0x4"/>
    </TTGlyph>
    <TTGlyph name="threesuperior" xMin="61" yMin="376" xMax="280" yMax="701">
      <component glyphName="three" x="46" y="380" scalex="0.491027832031" scaley="0.492431640625" flags="0x4"/>
    </TTGlyph>
    <TTGlyph name="two" xMin="6" yMin="0" xMax="465" yMax="658">
      <contour>
        <pt x="166" y="61" on="1"/>
        <pt x="444" y="61" on="1"/>
        <pt x="435" y="0" on="1"/>
        <pt x="6" y="0" on="1"/>
        <pt x="77" y="62" on="0"/>
        <pt x="212" y="180" on="0"/>
        <pt x="318" y="291" on="0"/>
        <pt x="388" y="395" on="0"/>
        <pt x="395" y="442" on="1"/>
        <pt x="401" y="485" on="0"/>
        <pt x="383" y="544" on="0"/>
        <pt x="348" y="581" on="0"/>
        <pt x="303" y="597" on="0"/>
        <pt x="282" y="597" on="1"/>
        <pt x="241" y="597" on="0"/>
        <pt x="184" y="568" on="0"/>
        <pt x="148" y="526" on="0"/>
        <pt x="129" y="478" on="0"/>
        <pt x="126" y="459" on="1"/>
        <pt x="117" y="393" on="0"/>
        <pt x="151" y="352" on="1"/>
        <pt x="140" y="342" on="0"/>
        <pt x="118" y="324" on="0"/>
        <pt x="107" y="314" on="1"/>
        <pt x="94" y="325" on="0"/>
        <pt x="75" y="359" on="0"/>
        <pt x="64" y="398" on="0"/>
        <pt x="60" y="440" on="0"/>
        <pt x="63" y="459" on="1"/>
        <pt x="69" y="499" on="0"/>
        <pt x="105" y="571" on="0"/>
        <pt x="163" y="626" on="0"/>
        <pt x="243" y="658" on="0"/>
        <pt x="291" y="658" on="1"/>
        <pt x="335" y="658" on="0"/>
        <pt x="403" y="626" on="0"/>
        <pt x="447" y="570" on="0"/>
        <pt x="465" y="496" on="0"/>
        <pt x="459" y="454" on="1"/>
        <pt x="452" y="402" on="0"/>
        <pt x="396" y="302" on="0"/>
        <pt x="315" y="204" on="0"/>
        <pt x="216" y="109" on="0"/>
      </contour>
    </TTGlyph>
    <TTGlyph name="twosuperior" xMin="79" yMin="375" xMax="307" yMax="700">
      <component glyphName="two" x="77" y="375" scalex="0.494018554688" scaley="0.493896484375" flags="0x4"/>
    </TTGlyph>
    <TTGlyph name="u" xMin="101" yMin="-8" xMax="492" yMax="375">
      <contour>
        <pt x="439" y="-6" on="1"/>
        <pt x="377" y="-6" on="1"/>
        <pt x="385" y="52" on="1"/>
        <pt x="394" y="97" on="1"/>
        <pt x="367" y="49" on="0"/>
        <pt x="270" y="-8" on="0"/>
        <pt x="216" y="-8" on="1"/>
        <pt x="159" y="-8" on="0"/>
        <pt x="101" y="54" on="0"/>
        <pt x="106" y="104" on="1"/>
        <pt x="144" y="375" on="1"/>
        <pt x="207" y="375" on="1"/>
        <pt x="172" y="128" on="1"/>
        <pt x="170" y="98" on="0"/>
        <pt x="203" y="55" on="0"/>
        <pt x="243" y="53" on="1"/>
        <pt x="271" y="53" on="0"/>
        <pt x="325" y="72" on="0"/>
        <pt x="369" y="107" on="0"/>
        <pt x="399" y="154" on="0"/>
        <pt x="403" y="182" on="1"/>
        <pt x="430" y="375" on="1"/>
        <pt x="492" y="375" on="1"/>
      </contour>
    </TTGlyph>
    <TTGlyph name="uacute" xMin="101" yMin="-8" xMax="492" yMax="612">
      <component glyphName="u" x="0" y="0" flags="0x204"/>
      <component glyphName="acute" x="204" y="0" flags="0x4"/>
    </TTGlyph>
    <TTGlyph name="ucircumflex" xMin="101" yMin="-8" xMax="492" yMax="660">
      <component glyphName="u" x="0" y="0" flags="0x204"/>
      <component glyphName="asciicircum" x="106" y="0" flags="0x4"/>
    </TTGlyph>
    <TTGlyph name="udieresis" xMin="101" yMin="-8" xMax="492" yMax="557">
      <component glyphName="u" x="0" y="0" flags="0x204"/>
      <component glyphName="dieresis" x="144" y="0" flags="0x4"/>
    </TTGlyph>
    <TTGlyph name="ugrave" xMin="101" yMin="-8" xMax="492" yMax="612">
      <component glyphName="u" x="0" y="0" flags="0x204"/>
      <component glyphName="grave" x="241" y="0" flags="0x4"/>
    </TTGlyph>
    <TTGlyph name="underscore" xMin="95" yMin="0" xMax="503" yMax="61">
      <contour>
        <pt x="495" y="0" on="1"/>
        <pt x="95" y="0" on="1"/>
        <pt x="103" y="61" on="1"/>
        <pt x="503" y="61" on="1"/>
      </contour>
    </TTGlyph>
    <TTGlyph name="v" xMin="106" yMin="-23" xMax="527" yMax="375">
      <contour>
        <pt x="261" y="-23" on="1"/>
        <pt x="222" y="77" on="0"/>
        <pt x="145" y="275" on="0"/>
        <pt x="106" y="375" on="1"/>
        <pt x="169" y="375" on="1"/>
        <pt x="196" y="305" on="0"/>
        <pt x="258" y="158" on="0"/>
        <pt x="276" y="86" on="1"/>
        <pt x="295" y="122" on="0"/>
        <pt x="342" y="195" on="0"/>
        <pt x="391" y="268" on="0"/>
        <pt x="442" y="340" on="0"/>
        <pt x="465" y="375" on="1"/>
        <pt x="527" y="375" on="1"/>
        <pt x="461" y="275" on="0"/>
        <pt x="328" y="77" on="0"/>
      </contour>
    </TTGlyph>
    <TTGlyph name="w" xMin="107" yMin="-23" xMax="779" yMax="375">
      <contour>
        <pt x="402" y="309" on="1"/>
        <pt x="396" y="326" on="0"/>
        <pt x="385" y="358" on="0"/>
        <pt x="379" y="375" on="1"/>
        <pt x="441" y="375" on="1"/>
        <pt x="466" y="303" on="0"/>
        <pt x="519" y="159" on="0"/>
        <pt x="538" y="86" on="1"/>
        <pt x="578" y="159" on="0"/>
        <pt x="672" y="303" on="0"/>
        <pt x="716" y="375" on="1"/>
        <pt x="779" y="375" on="1"/>
        <pt x="715" y="275" on="0"/>
        <pt x="588" y="77" on="0"/>
        <pt x="523" y="-23" on="1"/>
        <pt x="499" y="45" on="0"/>
        <pt x="449" y="179" on="0"/>
        <pt x="425" y="247" on="1"/>
        <pt x="251" y="-23" on="1"/>
        <pt x="215" y="77" on="0"/>
        <pt x="144" y="275" on="0"/>
        <pt x="107" y="375" on="1"/>
        <pt x="169" y="375" on="1"/>
        <pt x="194" y="303" on="0"/>
        <pt x="247" y="159" on="0"/>
        <pt x="266" y="86" on="1"/>
        <pt x="297" y="143" on="0"/>
        <pt x="368" y="254" on="0"/>
      </contour>
    </TTGlyph>
    <TTGlyph name="x" xMin="28" yMin="0" xMax="461" yMax="375">
      <contour>
        <pt x="200" y="197" on="1"/>
        <pt x="174" y="242" on="0"/>
        <pt x="120" y="330" on="0"/>
        <pt x="94" y="375" on="1"/>
        <pt x="171" y="375" on="1"/>
        <pt x="193" y="338" on="0"/>
        <pt x="237" y="265" on="0"/>
        <pt x="259" y="229" on="1"/>
        <pt x="324" y="303" on="0"/>
        <pt x="384" y="375" on="1"/>
        <pt x="461" y="375" on="1"/>
        <pt x="290" y="177" on="1"/>
        <pt x="317" y="132" on="0"/>
        <pt x="370" y="45" on="0"/>
        <pt x="397" y="0" on="1"/>
        <pt x="318" y="0" on="1"/>
        <pt x="296" y="36" on="0"/>
        <pt x="253" y="109" on="0"/>
        <pt x="230" y="146" on="1"/>
        <pt x="170" y="74" on="0"/>
        <pt x="105" y="0" on="1"/>
        <pt x="28" y="0" on="1"/>
        <pt x="71" y="49" on="0"/>
        <pt x="156" y="148" on="0"/>
      </contour>
    </TTGlyph>
    <TTGlyph name="y" xMin="60" yMin="-250" xMax="525" yMax="375">
      <contour>
        <pt x="124" y="-250" on="1"/>
        <pt x="60" y="-250" on="1"/>
        <pt x="101" y="-187" on="0"/>
        <pt x="180" y="-64" on="0"/>
        <pt x="221" y="-1" on="1"/>
        <pt x="186" y="93" on="0"/>
        <pt x="119" y="281" on="0"/>
        <pt x="84" y="375" on="1"/>
        <pt x="147" y="375" on="1"/>
        <pt x="150" y="367" on="0"/>
        <pt x="167" y="318" on="0"/>
        <pt x="190" y="253" on="0"/>
        <pt x="216" y="180" on="0"/>
        <pt x="239" y="115" on="0"/>
        <pt x="257" y="65" on="0"/>
        <pt x="260" y="56" on="1"/>
        <pt x="266" y="65" on="0"/>
        <pt x="297" y="115" on="0"/>
        <pt x="339" y="180" on="0"/>
        <pt x="385" y="254" on="0"/>
        <pt x="426" y="319" on="0"/>
        <pt x="457" y="367" on="0"/>
        <pt x="462" y="375" on="1"/>
        <pt x="525" y="375" on="1"/>
        <pt x="425" y="218" on="0"/>
        <pt x="225" y="-93" on="0"/>
      </contour>
    </TTGlyph>
    <TTGlyph name="yacute" xMin="60" yMin="-250" xMax="525" yMax="612">
      <component glyphName="y" x="0" y="0" flags="0x4"/>
      <component glyphName="acute" x="204" y="0" flags="0x4"/>
    </TTGlyph>
    <TTGlyph name="ydieresis" xMin="60" yMin="-250" xMax="525" yMax="557">
      <component glyphName="y" x="0" y="0" flags="0x4"/>
      <component glyphName="dieresis" x="137" y="0" flags="0x4"/>
    </TTGlyph>
    <TTGlyph name="yen" xMin="72" yMin="0" xMax="661" yMax="700">
      <contour>
        <pt x="456" y="161" on="1"/>
        <pt x="447" y="100" on="1"/>
        <pt x="320" y="100" on="1"/>
        <pt x="306" y="0" on="1"/>
        <pt x="230" y="0" on="1"/>
        <pt x="244" y="100" on="1"/>
        <pt x="114" y="100" on="1"/>
        <pt x="123" y="161" on="1"/>
        <pt x="253" y="161" on="1"/>
        <pt x="267" y="263" on="1"/>
        <pt x="137" y="263" on="1"/>
        <pt x="146" y="324" on="1"/>
        <pt x="243" y="324" on="1"/>
        <pt x="199" y="418" on="0"/>
        <pt x="114" y="605" on="0"/>
        <pt x="72" y="700" on="1"/>
        <pt x="148" y="700" on="1"/>
        <pt x="188" y="612" on="0"/>
        <pt x="266" y="441" on="0"/>
        <pt x="306" y="353" on="1"/>
        <pt x="308" y="346" on="0"/>
        <pt x="311" y="331" on="0"/>
        <pt x="313" y="324" on="1"/>
        <pt x="314" y="324" on="1"/>
        <pt x="318" y="331" on="0"/>
        <pt x="326" y="346" on="0"/>
        <pt x="330" y="353" on="1"/>
        <pt x="394" y="441" on="0"/>
        <pt x="521" y="612" on="0"/>
        <pt x="585" y="700" on="1"/>
        <pt x="661" y="700" on="1"/>
        <pt x="592" y="605" on="0"/>
        <pt x="454" y="418" on="0"/>
        <pt x="385" y="324" on="1"/>
        <pt x="479" y="324" on="1"/>
        <pt x="470" y="263" on="1"/>
        <pt x="343" y="263" on="1"/>
        <pt x="329" y="161" on="1"/>
      </contour>
    </TTGlyph>
    <TTGlyph name="z" xMin="42" yMin="0" xMax="436" yMax="410">
      <contour>
        <pt x="202" y="375" on="1"/>
        <pt x="436" y="375" on="1"/>
        <pt x="428" y="314" on="1"/>
        <pt x="389" y="281" on="0"/>
        <pt x="317" y="218" on="0"/>
        <pt x="247" y="156" on="0"/>
        <pt x="176" y="93" on="0"/>
        <pt x="137" y="61" on="1"/>
        <pt x="413" y="61" on="1"/>
        <pt x="405" y="0" on="1"/>
        <pt x="42" y="0" on="1"/>
        <pt x="50" y="61" on="1"/>
        <pt x="128" y="125" on="0"/>
        <pt x="262" y="250" on="0"/>
        <pt x="340" y="315" on="1"/>
        <pt x="171" y="315" on="1"/>
        <pt x="140" y="315" on="0"/>
        <pt x="105" y="345" on="0"/>
        <pt x="109" y="374" on="1"/>
        <pt x="114" y="410" on="1"/>
        <pt x="177" y="410" on="1"/>
        <pt x="175" y="398" on="1"/>
        <pt x="173" y="384" on="0"/>
        <pt x="185" y="375" on="0"/>
      </contour>
    </TTGlyph>
    <TTGlyph name="zero" xMin="26" yMin="-8" xMax="582" yMax="658">
      <contour>
        <pt x="37" y="327" on="1"/>
        <pt x="47" y="395" on="0"/>
        <pt x="102" y="516" on="0"/>
        <pt x="184" y="606" on="0"/>
        <pt x="291" y="658" on="0"/>
        <pt x="353" y="658" on="1"/>
        <pt x="415" y="658" on="0"/>
        <pt x="506" y="604" on="0"/>
        <pt x="563" y="512" on="0"/>
        <pt x="582" y="391" on="0"/>
        <pt x="572" y="323" on="1"/>
        <pt x="561" y="249" on="0"/>
        <pt x="499" y="127" on="0"/>
        <pt x="411" y="40" on="0"/>
        <pt x="307" y="-8" on="0"/>
        <pt x="255" y="-8" on="1"/>
        <pt x="203" y="-8" on="0"/>
        <pt x="114" y="42" on="0"/>
        <pt x="52" y="130" on="0"/>
        <pt x="26" y="253" on="0"/>
      </contour>
      <contour>
        <pt x="100" y="327" on="1"/>
        <pt x="91" y="268" on="0"/>
        <pt x="110" y="168" on="0"/>
        <pt x="156" y="95" on="0"/>
        <pt x="223" y="53" on="0"/>
        <pt x="264" y="53" on="1"/>
        <pt x="305" y="53" on="0"/>
        <pt x="385" y="93" on="0"/>
        <pt x="453" y="165" on="0"/>
        <pt x="501" y="265" on="0"/>
        <pt x="509" y="324" on="1"/>
        <pt x="516" y="371" on="0"/>
        <pt x="505" y="468" on="0"/>
        <pt x="466" y="547" on="0"/>
        <pt x="397" y="597" on="0"/>
        <pt x="345" y="597" on="1"/>
        <pt x="293" y="597" on="0"/>
        <pt x="208" y="549" on="0"/>
        <pt x="146" y="471" on="0"/>
        <pt x="107" y="374" on="0"/>
      </contour>
    </TTGlyph>
</ttFont>
